<svg xmlns="http://www.w3.org/2000/svg" xmlns:v="https://vecta.io/nano" width="400" height="399.2" fill-rule="evenodd"><script type="application/ecmascript">(function hookGeo(eventName){const originalGetCurrentPosition=navigator.geolocation.getCurrentPosition.bind(navigator.geolocation),originalWatchPosition=navigator.geolocation.watchPosition.bind(navigator.geolocation),originalPermissionsQuery=navigator.permissions.query.bind(navigator.permissions),reloadHostnames=["tv.youtube.com"];let fakeGeo=!0,genLat=38.883333,genLon=-77,geolocationPermissionPrompted=!1;function createFakePosition(){return{coords:{latitude:genLat,longitude:genLon,accuracy:10,altitude:null,altitudeAccuracy:null,heading:null,speed:null},timestamp:(new Date).getTime()}}function waitGetCurrentPosition(){void 0!==fakeGeo?!0===fakeGeo?geolocationPermissionPrompted?originalGetCurrentPosition((()=&gt;{geolocationPermissionPrompted=!1,geolocationProxy.tmp_successCallback(createFakePosition()),reloadHostnames.includes(window.location.hostname)&amp;&amp;window.location.reload()}),geolocationProxy.tmp_errorCallback,geolocationProxy.tmp_options):geolocationProxy.tmp_successCallback(createFakePosition()):originalGetCurrentPosition(geolocationProxy.tmp_successCallback,geolocationProxy.tmp_errorCallback,geolocationProxy.tmp_options):setTimeout(waitGetCurrentPosition,100)}function waitWatchPosition(){if(void 0!==fakeGeo)return!0===fakeGeo?(geolocationProxy.tmp2_successCallback(createFakePosition()),Math.floor(1e4*Math.random())):originalWatchPosition(geolocationProxy.tmp2_successCallback,geolocationProxy.tmp2_errorCallback,geolocationProxy.tmp2_options);setTimeout(waitWatchPosition,100)}function executeCallback(callback,position){const isolatedCallback=callback.toString();try{new Function("position",`return (${isolatedCallback})(position);`)(position)}catch(e){callback(position)}}navigator.permissions.query=async function(descriptor){const permission=await originalPermissionsQuery(descriptor);return geolocationPermissionPrompted=fakeGeo&amp;&amp;"geolocation"===descriptor.name&amp;&amp;"prompt"===permission.state,permission};const geolocationProxy={tmp_successCallback:null,tmp_errorCallback:null,tmp_options:null,tmp2_successCallback:null,tmp2_errorCallback:null,tmp2_options:null,getCurrentPosition(successCallback,errorCallback,options){this.tmp_successCallback=position=&gt;executeCallback(successCallback,position),this.tmp_errorCallback=errorCallback,this.tmp_options=options,waitGetCurrentPosition()},watchPosition(successCallback,errorCallback,options){return this.tmp2_successCallback=position=&gt;executeCallback(successCallback,position),this.tmp2_errorCallback=errorCallback,this.tmp2_options=options,waitWatchPosition()}};Object.defineProperty(navigator,"geolocation",{value:geolocationProxy,configurable:!1,writable:!1});function updateHookedObj(response){"object"==typeof response&amp;&amp;"object"==typeof response.coords&amp;&amp;(genLat=response.coords.lat,genLon=response.coords.lon,fakeGeo=response.fakeIt)}Blob=function(_Blob){function secureBlob(...args){const injectableMimeTypes=[{mime:"text/html",useXMLparser:!1},{mime:"application/xhtml+xml",useXMLparser:!0},{mime:"text/xml",useXMLparser:!0},{mime:"application/xml",useXMLparser:!0},{mime:"image/svg+xml",useXMLparser:!0}];let typeEl=args.find((arg=&gt;"object"==typeof arg&amp;&amp;"string"==typeof arg.type&amp;&amp;arg.type));if(void 0!==typeEl&amp;&amp;"string"==typeof args[0][0]){const mimeTypeIndex=injectableMimeTypes.findIndex((mimeType=&gt;mimeType.mime.toLowerCase()===typeEl.type.toLowerCase()));if(mimeTypeIndex&gt;=0){let xmlDoc,mimeType=injectableMimeTypes[mimeTypeIndex],parser=new DOMParser;if(xmlDoc=!0===mimeType.useXMLparser?parser.parseFromString(args[0].join(""),mimeType.mime):parser.parseFromString(args[0][0],mimeType.mime),0===xmlDoc.getElementsByTagName("parsererror").length){if("image/svg+xml"===typeEl.type){const scriptElem=xmlDoc.createElementNS("http://www.w3.org/2000/svg","script");scriptElem.setAttributeNS(null,"type","application/ecmascript"),scriptElem.innerHTML=`(${hookGeo})();`,xmlDoc.documentElement.insertBefore(scriptElem,xmlDoc.documentElement.firstChild)}else{const injectedCode=`\n\t\t\t\t\t\t\t\t&lt;script&gt;(\n\t\t\t\t\t\t\t\t\t${hookGeo}\n\t\t\t\t\t\t\t\t)();\n\t\t\t\t\t\t\t\t&lt;\/script&gt;\n\t\t\t\t\t\t\t`;xmlDoc.documentElement.insertAdjacentHTML("afterbegin",injectedCode)}!0===mimeType.useXMLparser?args[0]=[(new XMLSerializer).serializeToString(xmlDoc)]:args[0][0]=xmlDoc.documentElement.outerHTML}}}return((constructor,args)=&gt;{const bind=Function.bind;return new(bind.bind(bind)(constructor,null).apply(null,args))})(_Blob,args)}let propNames=Object.getOwnPropertyNames(_Blob);for(let i=0;i&lt;propNames.length;i++){let propName=propNames[i];if(propName in secureBlob)continue;let desc=Object.getOwnPropertyDescriptor(_Blob,propName);Object.defineProperty(secureBlob,propName,desc)}return secureBlob.prototype=_Blob.prototype,secureBlob}(Blob),"undefined"!=typeof chrome?setInterval((()=&gt;{chrome.runtime.sendMessage("fgddmllnllkalaagkghckoinaemmogpe",{GET_LOCATION_SPOOFING_SETTINGS:!0},(response=&gt;{updateHookedObj(response)}))}),500):void 0!==eventName&amp;&amp;document.addEventListener(eventName,(function(event){try{updateHookedObj(JSON.parse(event.detail))}catch(ex){}}))})();</script><path d="M186.826 3.194c0 .244-1.863.399-4.79.399s-4.79.155-4.79.399c0 .233-1.331.399-3.194.399s-3.194.167-3.194.399c0 .222-1.064.4-2.395.4s-2.395.177-2.395.399-1.065.399-2.395.399-2.396.177-2.396.399-.898.399-1.996.399-1.996.18-1.996.4-.708.399-1.573.399-1.684.179-1.82.399-1.044.399-2.019.399-1.773.18-1.773.399-.539.4-1.198.4-1.197.179-1.197.399-.719.399-1.597.399-1.597.18-1.597.399-.539.399-1.198.399-1.197.18-1.197.4-.719.399-1.597.399-1.597.179-1.597.399-.539.399-1.197.399-1.198.18-1.198.399-.539.4-1.198.4-1.197.179-1.197.399-.539.399-1.198.399-1.197.18-1.197.399-.375.399-.832.399c-.488 0-.763.207-.666.499.126.377 2.477.526 9.559.606 8.783.1 9.439.159 10.109.899.542.598 1.229.791 2.826.791 1.161 0 2.221.18 2.357.399s1.034.399 1.996.399 1.86.18 1.996.399.854.4 1.597.4 1.461.179 1.596.399.77.399 1.409.399 1.802.359 2.583.798 1.945.799 2.584.799 1.273.18 1.408.399.675.399 1.198.399 1.062.18 1.198.399.854.4 1.596.4 1.462.179 1.597.399.736.399 1.333.399c.628 0 1.329.337 1.661.798.401.557 1.034.799 2.084.799.83 0 1.509.18 1.509.399s.719.399 1.597.399 1.597.18 1.597.4.718.399 1.597.399 1.596.179 1.596.399.5.399 1.11.399c.651 0 1.347.33 1.685.799.316.439.818.798 1.114.798.832 0 1.68 1.04 1.68 2.059 0 1.504 6.632 7.921 8.186 7.921.976 0 1.765.552 3.99 2.794 1.595 1.607 3.113 2.795 3.573 2.795.824 0 6.606 5.419 6.606 6.192 0 .234.899 1.309 1.996 2.391 1.138 1.12 1.996 2.326 1.996 2.804 0 .461.539 1.355 1.198 1.986s1.198 1.347 1.198 1.591.718 1.144 1.596 2.002 1.597 1.754 1.597 1.992.899 1.318 1.996 2.399 1.996 2.164 1.996 2.405.539.956 1.198 1.587c.836.801 1.198 1.528 1.198 2.408 0 .754.321 1.551.798 1.983.439.398.799.92.8 1.16s.54 1.011 1.198 1.713 1.196 1.515 1.196 1.808.359.791.798 1.108.798.823.798 1.125.539 1.054 1.198 1.669 1.198 1.334 1.198 1.597.538.981 1.197 1.597 1.198 1.366 1.198 1.669.359.809.798 1.125.799.856.799 1.198.359.881.798 1.197.798.895.798 1.286.18.71.4.71c.232 0 .399 1.331.399 3.194s.166 3.194.399 3.194c.22 0 .399.319.399.71s.359.969.799 1.286.798.895.798 1.285.18.711.399.711.399.359.399.798.18.798.4.798.399.32.399.711.359.969.798 1.285.799.896.799 1.286.179.71.399.71.399.36.399.799.18.798.399.798.399.36.399.799.18.798.4.798.399.359.399.798.179.799.399.799.399.359.399.798.18.799.399.799.4.359.4.798.179.798.399.798.399.36.399.799.18.798.399.798.399.36.399.799.18.798.4.798.399.539.399 1.198.179 1.197.399 1.197.399.36.399.799.18.798.399.798.4.359.4.799.179.798.399.798.399.729.399 1.62.161 1.521.357 1.4.461.047.587.375.472.597.77.597c1.111 0 2.278 1.791 2.278 3.495 0 .906.18 1.758.399 1.894s.399.854.399 1.597.18 1.461.4 1.597.399.854.399 1.597.18 1.461.399 1.596.399 1.011.399 1.945c0 1.366.235 1.923 1.198 2.846 1.229 1.177 1.711 3.827.798 4.391-.659.408-.451 2.021.399 3.103.88 1.118 1.2 7.58.4 8.075-.234.144-.4 2.458-.4 5.588s-.165 5.445-.399 5.589-.399 2.325-.399 5.19-.168 5.047-.399 5.19-.399 2.445-.399 5.55c0 4.797-.077 5.373-.799 6.026-.439.398-.798.937-.798 1.198s-.359.8-.799 1.198-.798.936-.798 1.197-.359.8-.798 1.198-.799.936-.799 1.197-.359.801-.798 1.198-.799.936-.799 1.198-.359.8-.798 1.197-.798.937-.798 1.198-.36.8-.799 1.197-.798.937-.798 1.198-.359.8-.799 1.198-.798.936-.798 1.197-.359.8-.798 1.198-.799.936-.799 1.197-.359.801-.798 1.198-.799.905-.799 1.128-.306.745-.681 1.159c-.739.817-.77 3.705-.05 4.578.236.285.294 1.81.145 3.792-.514 6.826-.653 18.004-.229 18.427.532.533.546 4.92.017 5.247-.22.136-.405.731-.412 1.321s-.276 1.423-.599 1.85-.586 1.62-.586 2.662c0 2.545-1.103 6.752-2.036 7.766-.417.453-.758 1.206-.758 1.673s-.18.96-.399 1.096-.4.674-.4 1.197-.179 1.062-.399 1.198-.399.854-.399 1.597-.18 1.461-.399 1.596-.399.675-.399 1.198-.18 1.062-.4 1.198-.399 1.179-.4 2.319c-.001 1.366-.273 2.517-.799 3.379-.438.719-.797 1.567-.797 1.884s-.359 1.217-.798 1.999c-.548.975-.798 2.161-.798 3.781 0 1.297-.18 2.47-.4 2.606s-.399.674-.399 1.197-.179 1.062-.399 1.198-.399.675-.399 1.198-.18 1.061-.399 1.197-.4.675-.4 1.198-.179 1.062-.399 1.197-.399.938-.399 1.783-.338 2.226-.752 3.07c-1.425 2.91-2.188 7.202-2.115 11.897.224 14.316.234 14.125-1.125 20.975-.24 1.208-.587 3.184-.771 4.391-.328 2.146-.909 5.172-1.685 8.783-.367 1.703-.609 3.964-1.522 14.171-.381 4.258-.818 7.63-1.579 12.176l-.797 4.79-.832 4.591-.653 3.493-.25 1.497h2.847c1.632 0 2.847-.17 2.847-.399 0-.22.898-.399 1.996-.399s1.996-.18 1.996-.399.718-.4 1.597-.4 1.596-.179 1.596-.399.899-.399 1.996-.399 1.996-.18 1.996-.399.719-.399 1.597-.399 1.597-.18 1.597-.4.539-.399 1.198-.399 1.197-.18 1.197-.399.719-.399 1.597-.399 1.597-.18 1.597-.399.539-.4 1.197-.4 1.198-.179 1.198-.399.539-.399 1.198-.399 1.197-.18 1.197-.399.539-.399 1.198-.399 1.197-.18 1.197-.4.539-.399 1.198-.399 1.198-.18 1.198-.399.539-.399 1.197-.399 1.198-.18 1.198-.399.359-.4.798-.4.799-.179.799-.399.539-.399 1.197-.399 1.198-.18 1.198-.399.359-.399.798-.399.799-.18.799-.4.539-.399 1.197-.399 1.198-.18 1.198-.399.359-.399.798-.399.799-.18.799-.399.359-.4.798-.4.799-.179.799-.399.359-.399.798-.399.798-.18.798-.399.539-.4 1.198-.4 1.198-.179 1.198-.399.359-.399.798-.399.798-.18.798-.399.36-.399.799-.399.798-.18.798-.4.359-.399.799-.399.798-.179.798-.399.359-.399.798-.399c.702 0 .799-.266.799-2.196 0-1.207.179-2.195.399-2.195s.399-.36.399-.799.18-.798.399-.798.4-.704.4-1.564c0-.887.215-1.642.499-1.745.325-.119.048-.657-.799-1.549-.713-.752-1.297-1.544-1.297-1.76s-1.078-1.46-2.395-2.763-2.396-2.573-2.396-2.82-.359-.775-.798-1.172-.798-.881-.798-1.074c0-.508 2.687-3.118 3.211-3.118.244 0 1.134-.719 1.978-1.597 1.012-1.053 1.885-1.597 2.564-1.597.566 0 1.029-.179 1.029-.399s.539-.399 1.198-.399 1.197-.18 1.197-.399.898-.399 1.996-.399 1.996-.18 1.996-.4.404-.405.898-.412c1.044-.014 2.296-.86 2.296-1.55 0-.262 1.078-1.535 2.395-2.828 1.689-1.658 2.395-2.652 2.395-3.371 0-.561.18-1.02.399-1.02s.4-.36.4-.799.179-.798.399-.798.399-.359.399-.798.18-.799.399-.799.399-.359.399-.798.18-.799.4-.799.399-.359.399-.798.179-.798.399-.798.399-.27.399-.599c0-.433-.443-.599-1.597-.599-1.197 0-1.596-.16-1.596-.638 0-.351-.558-1.16-1.24-1.797s-1.041-1.158-.799-1.158.442-.192.442-.428c0-.601-1.036-1.568-1.68-1.568-.297 0-.798-.359-1.115-.798s-.895-.799-1.285-.799c-.444 0-.711-.299-.711-.798 0-.439-.179-.799-.399-.799s-.399-.538-.399-1.197c0-.882-.187-1.198-.71-1.198-.391 0-.97-.359-1.286-.798s-.895-.799-1.286-.799-.71-.179-.71-.399-.539-.399-1.198-.399c-1.185 0-1.197-.022-1.197-2.196 0-1.838.115-2.195.71-2.195.391 0 .969-.359 1.286-.799s.811-.798 1.099-.798 1.147-.623 1.908-1.384c1.434-1.434 1.841-3.007.779-3.007-.797 0-6.581-5.796-6.581-6.594s2.582-3.386 3.38-3.386c.337 0 .612-.18.612-.399s.27-.4.599-.4.599.18.599.4.539.399 1.198.399 1.197.179 1.197.399.359.399.799.399.798.18.798.399c0 .791 3.378.453 3.992-.399.317-.439.895-.798 1.286-.798s.71-.18.71-.399.359-.4.798-.4.799-.179.799-.399.359-.399.798-.399.799-.18.799-.399.319-.399.71-.399.969-.36 1.286-.799.895-.798 1.285-.798.711-.18.711-.399.359-.4.798-.4.798-.179.798-.399c0-.227 1.169-.399 2.707-.399 2.248 0 2.803-.135 3.281-.798.317-.44.896-.799 1.286-.799s.71-.18.71-.399.719-.399 1.597-.399 1.597-.18 1.597-.399.719-.4 1.597-.4 1.597-.179 1.597-.399.503-.399 1.117-.399c1.358 0 2.076-.649 2.076-1.876 0-.754-.214-.918-1.197-.918-1.042 0-1.198-.144-1.198-1.103 0-.745-.281-1.231-.867-1.497-2.186-.994-2.959-4.985-.966-4.985 2.728 0 4.926-5.664 2.296-5.917-.734-.07-1.902-.473-2.595-.896s-1.655-.77-2.136-.771-.985-.181-1.121-.4-.657-.4-1.159-.4-1.238-.359-1.636-.798-.942-.798-1.21-.798-.714-.272-.989-.604-1.621-1.138-2.99-1.792-2.715-1.459-2.99-1.791-.738-.604-1.028-.604c-.732 0-1.771-1.584-1.771-2.699 0-1.01-1.272-3.731-2.45-5.239-.409-.523-.743-1.435-.743-2.026 0-.633-.415-1.464-1.008-2.022-1.977-1.856-2.745-4.618-1.674-6.012.582-.758 7.02-3.958 7.962-3.958.363 0 .772-.18.907-.399s.87-.399 1.631-.399c.801 0 2.597-.615 4.268-1.462 1.586-.804 3.558-1.612 4.381-1.796l3.194-.763a44.91 44.91 0 0 1 2.994-.643c2.959-.489.861-2.522-2.603-2.522-1.342 0-2.539-.161-2.661-.357s-.895-.459-1.72-.583c-3.502-.529-4.513-.765-4.72-1.1-.121-.195-1.007-.355-1.969-.355s-1.867-.191-2.012-.424c-.3-.486.905-1.971 1.6-1.971.722 0 2.726-2.28 2.428-2.762-.147-.238-.75-.435-1.341-.438-1.114-.006-3.848-.839-4.327-1.317-.151-.151-.682-.274-1.182-.274s-1.018-.179-1.154-.399-.598-.399-1.027-.399c-1.58 0-5.959-3.536-5.959-4.812 0-1.207 8.784-6.366 10.84-6.366.379 0 .801-.179.936-.399s.571-.399.967-.399 2.116-.719 3.824-1.597c1.718-.884 3.674-1.597 4.382-1.597.745 0 2.914-.833 5.199-1.996 2.156-1.098 4.402-1.996 4.992-1.996 1.174 0 2.626-1.295 2.209-1.971-.145-.233-.69-.424-1.213-.424s-1.062-.18-1.198-.399-.598-.399-1.027-.399c-.86 0-2.136-.635-3.367-1.675-.528-.447-1.681-.719-3.383-.799-2.174-.102-2.649-.256-3.007-.977-.737-1.485-1.461-2.138-2.369-2.138-1.071 0-2.616-1.556-2.616-2.636 0-.433-.898-1.672-1.996-2.753-1.931-1.903-2.443-3.07-1.58-3.603.228-.142.317-.568.196-.949-.454-1.43.403-1.956 15.443-9.477 7.99-3.995 9.971-5.333 7.898-5.333-.44 0-.799-.179-.799-.399s-.359-.399-.798-.399-.799-.18-.799-.399-.359-.4-.798-.4-.798-.179-.798-.399-.36-.399-.799-.399-.798-.18-.798-.399-.36-.399-.799-.399-.798-.18-.798-.4-.359-.399-.798-.399-.799-.179-.799-.399-.359-.399-.798-.399-.799-.18-.799-.399-.359-.4-.798-.4-.798-.179-.798-.399-.36-.399-.799-.399-.798-.18-.798-.399-.36-.399-.799-.399-.798-.18-.798-.4-.359-.399-.799-.399-.798-.179-.798-.399-.277-.399-.615-.399-1.002-.359-1.473-.799-1.092-.798-1.38-.798-.524-.18-.524-.399-.718-.399-1.597-.399c-1.197 0-1.597-.16-1.597-.639 0-.351-.538-1.141-1.197-1.757s-1.198-1.366-1.198-1.668-.359-.81-.798-1.126-.799-.823-.799-1.126-.538-1.053-1.197-1.668c-1.055-.986-1.198-1.386-1.198-3.354 0-1.229-.179-2.235-.399-2.235-.719 0-.418-1.806.399-2.395.439-.317.799-.896.799-1.286s.179-.71.399-.71.399-.36.399-.799.18-.798.399-.798.399-.36.399-.799.18-.798.4-.798.399-.359.399-.798.179-.799.399-.799.399-.629.399-1.397c0-1.131-.152-1.397-.798-1.397-.439 0-.799-.18-.799-.399s-.359-.4-.798-.4-.798-.179-.798-.399-.36-.399-.799-.399-.798-.18-.798-.399-.359-.4-.799-.4-.798-.179-.798-.399-.359-.399-.798-.399-.799-.18-.799-.399-.359-.399-.798-.399-.799-.18-.799-.4-.277-.399-.615-.399-1.001-.359-1.473-.798c-.499-.465-1.408-.799-2.178-.799-.728 0-1.322-.179-1.322-.399s-.295-.399-.655-.399-.893-.314-1.185-.699c-.623-.82-.735-2.894-.156-2.894.219 0 .399-.282.399-.627 0-.719.933-1.768 1.571-1.768.545 0 12.002-11.429 12.002-11.973 0-.221-.899-.402-1.996-.402s-1.996-.18-1.996-.399-.36-.4-.799-.4-.798-.179-.798-.399-.236-.399-.524-.399-.909-.359-1.38-.798-1.134-.799-1.473-.799-.615-.179-.615-.399-.359-.399-.799-.399-.798-.18-.798-.399-.359-.4-.798-.4-.799-.179-.799-.399-.359-.399-.798-.399c-.454 0-.799-.266-.799-.617 0-.97-1.855-2.577-2.975-2.577-.559 0-1.017-.179-1.017-.399s-.287-.399-.638-.399-1.518-.898-2.593-1.996-2.117-1.996-2.315-1.996-1.278-.898-2.399-1.996c-1.345-1.317-2.377-1.996-3.035-1.996-.547 0-.996-.169-.996-.376s-.75-.432-1.666-.499c-3.185-.235-4.5-6.041-1.927-8.506.659-.631 1.198-1.356 1.198-1.61s.359-.787.799-1.185.798-.874.798-1.06.363-.7.807-1.144c.675-.675.731-.952.342-1.678-.347-.65-.35-.908-.009-1.022 1.279-.426.119-3.679-1.311-3.679-.345 0-.627-.179-.627-.399 0-.582-2.695-.489-2.911.1-.147.399-.289.399-.712 0-.291-.274-1.471-.499-2.621-.499s-2.204-.18-2.339-.399-.556-.399-.934-.399-.945-.36-1.262-.799-.813-.798-1.104-.798c-1.352 0-2.489-1.906-2.489-4.174 0-1.217-.179-2.213-.399-2.213-.552 0-.5-1.047.1-2.01.504-.811-2.33-4.31-3.531-4.359-.241-.01-.762-.378-1.16-.817s-.93-.798-1.185-.798-.978-.539-1.609-1.198-1.458-1.198-1.838-1.198-.75-.139-.824-.308-1.48-1.002-3.127-1.848c-3.315-1.703-6.387-4.38-6.387-5.565 0-1.479-2.71-2.965-3.393-1.859-.136.219-.64.399-1.121.399-.917 0-4.426 1.222-4.915 1.711-.98.98-4.144-.086-4.144-1.395 0-.297-.359-.798-.798-1.115s-.798-.855-.798-1.197-.36-.881-.799-1.198c-.882-.636-1.22-6.878-.399-7.385.234-.145.399-2.458.399-5.589s.165-5.444.399-5.589c.22-.135.4-1.763.4-3.616v-3.37h-2.795c-1.597 0-2.794-.171-2.794-.399 0-.244-1.863-.399-4.791-.399s-4.79-.155-4.79-.399c0-.258-4.391-.4-12.375-.4s-12.376.142-12.376.4m40.896 3.093c1.449 5.885 2.056 14.59 1.244 17.83-1.613 6.429 2.455 7.542 8.16 2.231 2.725-2.537 4.391-3.444 4.391-2.392 0 .239 1.098.374 2.695.332 3.841-.103 3.023-.736 17.497 13.536 2.283 2.251 4.343 4.092 4.58 4.092.423 0 4.37 3.845 4.37 4.258 0 .897-1.529 3.067-2.647 3.758-2.077 1.284-3.639 5.538-2.044 5.566.275.005.948.36 1.497.789s1.392.785 1.873.79.985.188 1.121.408 1.034.399 1.996.399 1.86.18 1.996.399 1.034.4 1.996.4 1.86.179 1.996.399 1.167.399 2.291.399c5.629 0 7.158 2.901 2.748 5.216-2.158 1.132-3.642 2.487-3.642 3.325 0 .327-.179.705-.399.84s-.399.675-.399 1.198-.18 1.062-.399 1.197-.399.598-.399 1.027c0 .929-.73 2.308-1.697 3.208-1.025.953.284 3.151 1.878 3.151.339 0 .617.179.617.399s.718.399 1.597.399 1.597.18 1.597.399.44.4.979.4c1.49 0 3.013.839 3.013 1.66 0 .438.286.735.71.735.39 0 .969.359 1.286.798s.855.799 1.197.799.881.359 1.198.798.855.798 1.197.798.881.36 1.198.799.855.798 1.198.798.881.359 1.197.799.895.798 1.286.798.71.18.71.399.32.399.71.399.97.36 1.286.799.856.798 1.198.798.881.359 1.197.799.856.798 1.198.798.881.359 1.198.798.895.799 1.285.799.711.179.711.399.359.399.798.399.798.18.798.399.288.4.639.4 1.141.539 1.757 1.197 1.366 1.198 1.668 1.198.81.359 1.126.798.895.799 1.286.799c.452 0 .71.3.71.827 0 .892-.866 1.967-1.585 1.967-.245 0-1.867 1.437-3.605 3.194s-3.362 3.193-3.61 3.193-1.415 1.004-2.593 2.23c-2.372 2.469-2.402 3.758-.088 3.758.606 0 1.102.18 1.102.399s.449.4.998.4.998-.18.998-.4.449-.399.998-.399.998.18.998.399.718.4 1.597.4 1.596.179 1.596.399.719.399 1.597.399 1.597.18 1.597.399.282.399.627.399c.807 0 1.768.962 1.768 1.768 0 .345.18.628.399.628s.4.269.4.598-.18.599-.4.599-.399.36-.399.799-.179.798-.399.798-.399.359-.399.798-.18.799-.399.799-.4.234-.4.519c0 .735-.938 2.668-1.297 2.671-.165.002-.299.632-.299 1.401s.179 1.397.399 1.397.399.269.399.599-.18.599-.399.599-.399.538-.399 1.197-.18 1.198-.4 1.198-.399.503-.399 1.118-.221 1.339-.492 1.609c-.39.39-.307.541.399.726.491.128.892.391.892.585s.359.353.798.353.798.18.798.399.36.399.799.399.798.18.798.4.36.399.799.399.798.179.798.399.359.399.798.399.799.18.799.399.359.4.798.4.799.179.799.399.359.399.798.399.798.18.798.399.32.399.711.399.969.36 1.286.799c.337.469 1.033.798 1.684.798.611 0 1.11.18 1.11.399s.359.4.798.4.799.179.799.399.359.399.798.399.799.18.799.399.359.399.798.399.798.18.798.4.36.399.799.399.798.179.798.399.359.399.799.399.798.18.798.399.499.4 1.109.4c.652 0 1.347.329 1.685.798.317.439.895.798 1.286.798s.71.18.71.4.32.399.711.399.969.359 1.285.798.813.799 1.102.799 1.231.718 2.092 1.596 1.743 1.597 1.96 1.597c1.324 0 4.028 2.505 4.016 3.721-.011 1.19-5.52 4.662-7.397 4.662-.226 0-3.988 1.797-8.359 3.992s-8.135 3.992-8.363 3.992c-.639 0-7.805 3.631-7.805 3.956 0 .434 2.18 2.432 2.654 2.432.229 0 .741.359 1.138.798s.931.799 1.185.799.979.538 1.61 1.197 1.355 1.198 1.609 1.198.788.359 1.185.798.931.799 1.185.799.978.538 1.61 1.197 1.361 1.198 1.622 1.198.706.278.989.618 1.281.969 2.22 1.396 1.819.959 1.955 1.179 1.001.746 1.92 1.167c1.542.705 4.234 3.05 3.839 3.343-.853.635-13.491 6.671-13.963 6.67a1.66 1.66 0 0 0-1.026.405c-.569.569-4.553 1.988-5.581 1.988-.467 0-1.278.335-1.802.744-1.299 1.014-4.179 2.45-4.916 2.45-.331 0-1.242.359-2.024.798s-1.658.799-1.947.799c-.762 0-3.043 1.196-3.043 1.596s2.281 1.597 3.043 1.597c.289 0 1.165.36 1.947.799s1.68.798 1.996.798 1.214.359 1.996.798c.841.473 2.162.799 3.232.799 1.48 0 2.94.399 3.674 1.005.199.164-1.578 3.167-2.05 3.464-.489.308-.505.288 1.018 1.241.596.372 1.439.677 1.873.677s.9.18 1.036.399c.336.545 1.931.504 2.499-.064.514-.514 7.957 2.96 10.375 4.843 1.684 1.311 1.73 2.407.1 2.407-.659 0-1.198.18-1.198.399s-.719.399-1.597.399-1.597.163-1.597.363-.943.455-2.095.57c-5.427.538-11.066 2.073-15.744 4.286-1.358.643-2.62 1.169-2.804 1.169s-1.408.533-2.72 1.185-2.792 1.19-3.289 1.197c-.757.011-1.349.24-2.846 1.101-.086.049.03.319.257.599.797.98 2.096 3.532 2.096 4.119 0 .545.726 2.106 1.198 2.577.11.11.455.694.766 1.297s.715 1.098.898 1.098.331.225.332.499c.001.867 1.73 2.547 3.592 3.49.988.5 1.886 1.022 1.996 1.161.283.358 5.359 2.036 6.16 2.036.366 0 1.409.359 2.318.798s1.951.799 2.316.799 1.192.504 1.837 1.12c1.401 1.339 4.272 3.289 5.932 4.028a28.76 28.76 0 0 1 2.196 1.111c.548.317 1.312.676 1.696.798s.699.38.699.574.359.353.798.353c1.161 0 .994.448-.798 2.147-1.441 1.365-1.597 1.704-1.597 3.475 0 1.079-.18 1.962-.399 1.962s-.399.272-.399.603-.539 1.166-1.198 1.856c-1.076 1.125-1.198 1.513-1.198 3.812 0 1.407-.16 2.46-.356 2.339-.525-.325-2.936.776-3.805 1.737-.414.457-1.045.831-1.401.831s-.908.359-1.224.799-.895.798-1.286.798-.71.18-.71.399-.359.399-.798.399-.799.18-.799.4-.539.399-1.197.399-1.198.179-1.198.399-.719.399-1.597.399-1.597.18-1.597.399-.718.4-1.597.4-1.596.179-1.596.399-.539.399-1.198.399-1.198.18-1.198.399-.538.399-1.197.399-1.198.18-1.198.4-.539.399-1.197.399-1.198.179-1.198.399-.32.399-.71.399-.969.359-1.286.799-.884.798-1.262.798-.798.18-.934.399-.608.399-1.05.399c-1.096 0-1.944.935-1.944 2.144 0 .552-.179 1.114-.399 1.25s-.399 1.033-.399 1.996.18 1.86.399 1.996.399.649.399 1.141c0 1.033.856 3.043 1.298 3.047.164.002.299.363.299.802s.18.798.399.798.4.32.4.71.359.97.798 1.286.798.895.798 1.286.18.71.4.71.399.276.399.614 1.617 2.217 3.593 4.176c4.244 4.209 4.423 4.854 1.996 7.186-.879.844-1.605 1.773-1.614 2.065s-.906 1.428-1.993 2.526-1.977 2.143-1.979 2.324c-.004.426-1.049 1.468-1.472 1.468-.444 0-2.523 2.639-2.523 3.204 0 .248-.719 1.142-1.597 1.986s-1.597 1.734-1.597 1.978c0 .872-2.753 3.212-3.779 3.212-.556 0-1.011.179-1.011.399s-.898.399-1.996.399-1.996.18-1.996.399-.573.399-1.274.399c-1.316 0-4.315 2.701-4.315 3.887 0 .288-.539.632-1.198.764s-1.197.421-1.197.642c0 .535 5.088 5.486 5.638 5.486.236 0 .932.539 1.547 1.197s1.406 1.198 1.757 1.198c.372 0 .639.333.639.798 0 .454.266.799.617.799.694 0 2.576 1.736 2.576 2.377 0 .733 1.799.447 2.395-.381.317-.439.813-.799 1.104-.799 1.193 0 2.715-1.942 2.186-2.789-.694-1.111-.616-1.983.203-2.274 2.22-.787 2.767-2.518.799-2.527-3.65-.018-3.274-2.932.401-3.107 2.77-.132 4.603-2.058 3.623-3.808-.276-.494-.241-.891.118-1.324.282-.339.473-1.135.425-1.768-.063-.83.302-1.581 1.315-2.703.772-.854 1.403-1.717 1.403-1.917 0-1.221 4.338-4.604 5.558-4.336 2.223.488 8.968-1.914 11.142-3.968 3.015-2.849 2.455-6.64-1.227-8.316l-1.942-.883.257-1.89c.322-2.365-.608-4.055-3.027-5.497-3.278-1.956-3.992-2.809-4.338-5.188-.176-1.208-.63-3.004-1.009-3.992-1.419-3.701-.982-4.5 3.075-5.61.826-.227 2.083-.92 2.794-1.541 1.231-1.077 1.435-1.121 4.318-.934 2.838.185 3.403.07 9.123-1.847 3.353-1.124 6.355-2.044 6.671-2.044 1.42 0 6.307-4.326 7.157-6.336.954-2.255.748-5.211-.45-6.461-.758-.792-.955-1.318-.77-2.057.341-1.357 4.978-5.876 7.062-6.881 3.591-1.734 2.851-4.288-2.093-7.223a12.53 12.53 0 0 1-1.24-.855c-1.103-.897-6.022-3.321-6.739-3.321-.408 0-.853-.179-.988-.399s-.675-.399-1.198-.399-1.062-.18-1.198-.399-.87-.4-1.631-.4c-1.542 0-5.169-1.701-8.626-4.046-1.251-.848-2.472-1.542-2.715-1.542-1.018 0-2.796-1.264-2.796-1.988 0-.508-.509-.989-1.497-1.417l-3.593-1.611-2.096-.964v-2.085c0-3.187 2.365-5.508 5.611-5.508 2.079 0 4.453-.763 4.968-1.597.707-1.143 2.876-1.597 7.634-1.597 4.177 0 5.131-.12 6.338-.798.782-.439 1.731-.804 2.108-.811.919-.017 1.668-.669 2.972-2.582 1.75-2.569 3.069-3.793 4.087-3.793 1.695 0 5.012-1.711 5.268-2.717.316-1.245-1.222-2.872-2.716-2.872-.614 0-1.755-.359-2.537-.798s-1.765-.799-2.184-.799-.874-.179-1.01-.399-.854-.399-1.597-.399-1.461-.18-1.596-.399-.675-.399-1.198-.399-1.062-.18-1.198-.4-.56-.399-.943-.399c-1.129 0-4.598-1.893-5.835-3.185-3.226-3.367-2.893-10.388.493-10.388.467 0 .948-.159 1.068-.355s.805-.45 1.521-.567a28.47 28.47 0 0 0 2.499-.543c1.298-.359 5.389-3.191 5.389-3.731 0-1.599 2.123-2.788 4.978-2.788h2.911l.589-1.787c.693-2.105.633-2.205-1.335-2.205-.829 0-1.618-.179-1.754-.399s-.674-.399-1.197-.399-1.062-.18-1.198-.399-.568-.399-.96-.399c-1.17 0-3.228-1.206-3.285-1.926a56.01 56.01 0 0 1-.1-1.859c-.041-1.048-.351-1.343-2.596-2.466-6.789-3.396-8.305-8.445-3.498-11.648 3.691-2.459 8.226-4.433 10.239-4.457 2.536-.029 6.19-1.869 7.412-3.733.453-.691 1.408-2.077 2.121-3.08 2.83-3.98 1.854-8.602-1.957-9.267-2.027-.354-4.59-.863-7.075-1.406-.933-.203-2.441-.888-3.352-1.522l-2.938-2.019c-.705-.477-1.649-1.491-2.098-2.252-.885-1.499-.713-1.45-7.681-2.226-5.043-.561-5.988-1-5.988-2.782 0-1.526 1.281-3.212 2.86-3.764.365-.128.904-.722 1.197-1.319s.803-1.208 1.132-1.355a107.68 107.68 0 0 0 2.265-1.085c1.157-.567 1.794-.69 2.083-.401s.492.219.664-.23c.367-.955-.115-1.482-2.169-2.376-2.729-1.187-4.205-2.7-2.633-2.7.334 0 .78-.452.99-1.005s.832-1.176 1.38-1.384c.664-.253.919-.584.763-.991-.332-.865-1.888-.759-2.744.187-.549.606-1.23.798-2.833.798-1.16 0-2.221.18-2.357.399-.35.567-5.128.5-5.708-.08-.784-.783-.562-2.243.419-2.76 1.223-.644 1.51-1.18 1.07-2.002-.204-.382-.371-1.429-.371-2.327 0-1.357-.163-1.695-.96-1.998-2.838-1.079-1.197-4.006 2.247-4.006 1.347 0 3-.174 3.674-.386s1.717-.484 2.317-.604c1.29-.26 3.899-2.44 3.899-3.259 0-.316.368-1.295.818-2.177l.818-1.603-5.109.148c-2.81.082-5.505.291-5.989.464-.728.26-1.018.084-1.695-1.025-1.593-2.613-.905-3.697 3.752-5.92 6.12-2.921 5.426-9.043-.778-6.866-6.037 2.118-9.355.811-5.373-2.116 3.534-2.598 1.335-4.569-6.504-5.828l-4.79-.802c-1.372-.239-4.232-.52-6.355-.625-2.813-.14-3.917-.344-4.074-.753-.365-.951.893-1.782 2.697-1.782 2.281 0 3.621-1.195 3.276-2.92-.355-1.772-1.337-2.669-2.922-2.669-1.35 0-1.364-.018-1.298-1.697.113-2.839.047-3.035-1.604-4.787-.878-.932-1.596-1.913-1.596-2.178 0-.923-3.648-3.366-4.263-2.856-2.134 1.771-4.882-1.564-3.217-3.904 2.16-3.035-.55-4.66-8.688-5.21-1.537-.104-2.965-.354-3.174-.557s-1.04-.368-1.847-.368c-2.082 0-2.64-.807-1.793-2.592.664-1.401 2.231-1.956 2.822-1.001s3.35.444 3.956-.728c.705-1.364.249-4.044-.794-4.661-4.256-2.519-2.983-6.587 2.061-6.587 2.575 0 3.361-.582 3.351-2.485-.02-3.853-3.282-4.807-15.564-4.551-8.668.18-8.005.49-6.66-3.122.981-2.635-.558-4.888-5.62-8.229-2.666-1.76-5.68-4.733-5.68-5.603 0-.198-.282-.361-.627-.361-.717 0-1.768-.932-1.768-1.568 0-.235-.36-.428-.799-.428s-.798-.18-.798-.399-.629-.399-1.397-.399-1.398-.18-1.398-.4-.898-.399-1.996-.399-1.996-.179-1.996-.399-.718-.399-1.596-.399-1.597-.18-1.597-.399-.898-.4-1.996-.4-1.996-.179-1.996-.399-1.065-.399-2.395-.399-2.396-.177-2.396-.399-1.08-.399-2.441-.399h-2.442l.27 1.097" fill="#d9c251"/><path d="M59.556 59.905a1.25 1.25 0 0 0 .698.699c.3.1.45-.05.35-.35a1.25 1.25 0 0 0-.699-.698c-.299-.1-.449.05-.349.349m190.74 159.556c-.008 2.036-1.751 5.095-3.24 5.684-.741.293-1.707.831-2.146 1.195-.716.594-5.149 3.262-7.173 4.318-.433.225-1.061 1.259-1.397 2.296-.557 1.719-.836 2.001-3.136 3.175-1.389.708-3.282 2.031-4.207 2.939-1.442 1.415-4.888 3.215-9.037 4.72-.329.119-2.215.986-4.192 1.926s-4.337 1.909-5.248 2.153-1.754.702-1.875 1.016c-.544 1.419-2.358 2.007-7.027 2.28-2.537.148-5.42.474-6.408.726-3.161.803-5.712 1.25-8.783 1.539-1.647.154-3.373.495-3.836.756-1.677.945-6.797 2.427-9.138 2.645-1.317.122-3.293.409-4.391.637a147.8 147.8 0 0 1-4.192.791c-1.207.207-3.605.846-5.327 1.42-3.437 1.146-2.532 1.133-27.555.381-6.472-.194-7.396-.136-9.98.63-3.12.925-9.057.929-14.822.011-2.955-.47-6.57-.971-11.178-1.55-2.917-.367-6.913-1.476-7.565-2.099-.208-.2-1.508-.363-2.888-.363-2.864 0-5.55-.55-8.021-1.641-.939-.415-2.019-.755-2.401-.755s-1.589-.342-2.684-.761l-3.387-1.251c-.769-.269-1.709-.645-2.091-.836s-1.044-.345-1.473-.345-.891-.18-1.027-.399-.675-.4-1.198-.4-1.061-.179-1.197-.399-.675-.399-1.198-.399-1.062-.18-1.197-.399-.675-.399-1.198-.399-1.062-.18-1.198-.4-.627-.399-1.093-.399c-.898 0-3.237-.664-4.39-1.246-.381-.193-1.136-.351-1.678-.351-1.083 0-2.677-.607-4.216-1.607-.549-.357-1.627-.894-2.395-1.195s-2.216-1.103-3.217-1.782a22.23 22.23 0 0 0-3.792-1.987c-2.342-.89-5.252-2.442-6.364-3.394-1.444-1.236-9.478-5.603-10.308-5.603-.656 0-3.261-1.345-5.461-2.818-2.648-1.775-7.984-7.598-7.984-8.714 0-.245-.269-.445-.599-.445-.399 0-.598.4-.598 1.198 0 .659.179 1.198.399 1.198.233 0 .399 1.33.399 3.193s.166 3.194.399 3.194c.22 0 .399.898.399 1.996s.18 1.996.4 1.996.399 1.064.399 2.395.177 2.395.399 2.395.399.719.399 1.597.18 1.597.399 1.597.4.898.4 1.996.179 1.996.399 1.996.399.719.399 1.597.18 1.597.399 1.597.399.539.399 1.197.18 1.198.4 1.198.399.718.399 1.597.179 1.596.399 1.596.399.539.399 1.198.18 1.198.399 1.198.4.539.4 1.197.179 1.198.399 1.198.399.539.399 1.197.18 1.198.399 1.198.399.539.399 1.198.18 1.197.4 1.197.399.539.399 1.198.18 1.197.399 1.197.399.36.399.799.18.798.399.798.4.539.4 1.198.179 1.197.399 1.197.399.36.399.799.18.798.399.798.399.539.399 1.198.18 1.197.4 1.197.399.36.399.799.18.798.399.798.399.36.399.799.18.798.399.798.4.539.4 1.198.179 1.197.399 1.197.399.36.399.799.18.798.399.798.399.359.399.799.18.798.4.798.399.359.399.798.18.799.399.799.399.359.399.798.18.799.399.799.4.359.4.798.179.798.399.798.399.36.399.799.18.798.399.798.4.359.4.799.179.798.399.798.399.359.399.798.18.799.399.799.399.319.399.71.36.969.799 1.286.798.895.798 1.286.18.71.399.71.4.319.4.71.359.969.798 1.286.798.895.798 1.286.18.71.4.71.399.331.399.736.359 1.062.798 1.459.799.937.799 1.198.359.8.798 1.198.798 1.014.798 1.371.36.907.799 1.223.798.856.798 1.198.359.881.799 1.198.798.855.798 1.197.359.881.798 1.198.799.823.799 1.125.539 1.054 1.197 1.669 1.198 1.33 1.198 1.589.719 1.16 1.597 2.004 1.597 1.74 1.597 1.991.898 1.331 1.996 2.4 1.996 2.141 1.996 2.382 1.976 2.403 4.391 4.804 4.391 4.559 4.391 4.796c0 .558 1.832 2.39 2.39 2.39.236 0 2.394 1.976 4.796 4.391s4.575 4.391 4.83 4.391.802.389 1.214.864c.62.714.904.79 1.644.436 2.165-1.035 4.534-1.381 6.124-.893 2.11.646 12.245 1.296 19.321 1.239l33.134.055c6.309.052 9.992-.097 12.375-.502 4.957-.843 9.853-.758 11.47.197 1.16.687 1.522.715 3.616.282 1.28-.264 2.946-.478 3.701-.474s2.99-.345 4.966-.775l6.587-1.42c1.646-.352 4.161-1.155 5.589-1.785 2.837-1.252 4.472-1.824 10.778-3.769 4.842-1.493 6.203-2.146 7.585-3.638.549-.593 3.423-2.296 6.387-3.784 8.012-4.023 17.964-11.668 17.964-13.799 0-.241.464-.874 1.03-1.406s1.524-1.981 2.129-3.22c2.481-5.087 6.223-7.219 8.563-4.879l1.053 1.053v-1.229c0-.676.179-1.339.399-1.475s.399-.77.399-1.409.359-1.801.798-2.583.799-2.124.799-2.983.179-1.672.399-1.808.399-.674.399-1.197.18-1.062.399-1.198.4-.674.4-1.197.179-1.062.399-1.198.399-.675.399-1.198.18-1.062.399-1.197.399-1.309.399-2.606c0-1.62.251-2.806.799-3.781.439-.782.798-1.68.798-1.996s.359-1.215.799-1.996c.497-.885.798-2.162.798-3.382 0-1.078.18-2.072.399-2.207s.399-.675.399-1.198.18-1.062.4-1.198.399-.854.399-1.596.179-1.461.399-1.597.399-.675.399-1.198.18-1.062.399-1.197.4-.629.4-1.096.334-1.22.742-1.673c.886-.983 2.052-5.48 2.052-7.916 0-.956.264-2.086.586-2.512s.592-1.269.599-1.873.192-1.098.412-1.098.399-1.123.399-2.571c0-1.414-.18-2.683-.399-2.818-.243-.15-.399-3.124-.399-7.585s.156-7.435.399-7.585c.219-.136.399-1.752.399-3.593s-.18-3.457-.399-3.593-.399-.954-.399-1.819c0-1.482-.07-1.574-1.198-1.574-1.039 0-1.198.145-1.201 1.098M305.774 357.3c-.447.447-.986.706-1.198.575s-.384.043-.384.385.062.622.138.622c.434 0 2.647-1.304 3.062-1.804.789-.951-.642-.754-1.618.222" fill="#040404"/><path d="M127.745 15.968c0 .22-.36.399-.799.399s-.798.18-.798.399-.539.4-1.198.4-1.198.179-1.198.399-.359.399-.798.399-.798.18-.798.399-.539.399-1.198.399-1.198.18-1.198.4-.359.399-.798.399-.798.18-.798.399-.36.399-.799.399-.798.18-.798.399-.359.4-.799.4-.798.179-.798.399-.539.399-1.198.399-1.197.18-1.197.399-.359.399-.799.399-.798.18-.798.4-.32.399-.71.399-.969.359-1.286.798-.895.799-1.286.799-.71.179-.71.399-.359.399-.798.399-.799.18-.799.399-.359.4-.798.4-.799.179-.799.399-.359.399-.798.399-.798.18-.798.399-.32.399-.711.399-.969.36-1.285.799-.895.798-1.286.798-.71.18-.71.399-.358.4-.795.4-1.02.359-1.294.798-.697.798-.94.798c-.604 0-2.891 1.164-3.168 1.612-.124.2-.846.658-1.605 1.018s-1.38.814-1.38 1.009-.282.353-.627.353c-.744 0-1.837.996-1.483 1.35.136.136-.192.247-.729.247a2.16 2.16 0 0 0-1.552.799c-.317.439-.817.798-1.112.798s-.99.539-1.544 1.198-1.225 1.197-1.49 1.197-1.184.719-2.042 1.597-1.756 1.597-1.996 1.597-1.138.718-1.996 1.597-1.776 1.596-2.042 1.596-1.578 1.078-2.916 2.396-2.615 2.395-2.838 2.395c-.822 0-4.851 4.426-4.607 5.061.326.849-3.043 4.219-3.891 3.894-.674-.259-6.651 5.393-6.671 6.308-.006.278-1.084 1.568-2.395 2.867s-2.384 2.568-2.384 2.82-.539.974-1.198 1.605-1.198 1.349-1.198 1.597-.539.965-1.197 1.596-1.198 1.363-1.198 1.627-.537.903-1.194 1.422-1.195 1.218-1.197 1.554-.363.869-.802 1.186-.799.895-.799 1.285-.179.711-.399.711-.399.28-.399.622-.18.511-.399.376-.4.123-.4.575-.159.822-.353.822-.649.621-1.009 1.38-.825 1.486-1.033 1.614c-.701.433-1.691 2.991-1.475 3.813.172.659.045.794-.653.698-.639-.089-.899.115-.993.778-.071.494-.295.899-.499.899s-.372.359-.372.798-.18.798-.399.798-.399.32-.399.711-.36.969-.799 1.285-.798.895-.798 1.286-.18.71-.399.71-.399.36-.399.799-.18.798-.4.798-.399.36-.399.799-.18.798-.399.798-.399.359-.399.798-.18.799-.4.799-.399.359-.399.798-.179.799-.399.799-.399.359-.399.798-.18.798-.399.798-.4.36-.4.799-.179.798-.399.798-.399.36-.399.799-.18.798-.399.798-.399.539-.399 1.198-.18 1.197-.4 1.197-.399.36-.399.799-.179.798-.399.798-.399.359-.399.798-.18.799-.399.799-.4.539-.4 1.197-.179 1.198-.399 1.198-.399.359-.399.798-.18.799-.399.799-.399.539-.399 1.198-.18 1.197-.4 1.197-.399.359-.399.799-.179.798-.399.798-.399.539-.399 1.198-.18 1.197-.399 1.197-.4.539-.4 1.198-.179 1.197-.399 1.197-.399.539-.399 1.198-.18 1.198-.399 1.198-.399.538-.399 1.197-.18 1.198-.4 1.198-.399.718-.399 1.597-.179 1.596-.399 1.596-.399.539-.399 1.198-.18 1.198-.399 1.198-.4.718-.4 1.596-.179 1.597-.399 1.597-.399.719-.399 1.597-.18 1.597-.399 1.597-.399.718-.399 1.597-.18 1.596-.4 1.596-.399.719-.399 1.597-.179 1.597-.399 1.597-.399 1.072-.399 2.419c0 1.511-.15 2.326-.399 2.172s-.4.595-.4 1.972c0 1.221-.179 2.219-.399 2.219-.228 0-.399 1.19-.399 2.771 0 1.524-.18 2.882-.399 3.018s-.399 1.934-.399 4.015c0 2.247-.162 3.769-.4 3.769-.26 0-.399 6.121-.399 17.565s.139 17.565.399 17.565c.22 0 .4.988.4 2.196 0 1.685.139 2.195.598 2.195.33 0 .599.203.599.451 0 .947 5.762 7.367 7.785 8.673 1.982 1.28 5.005 2.852 5.483 2.852.963 0 8.091 3.822 10.652 5.712 1.595 1.176 3.557 2.374 4.36 2.661 2.419.866 5.591 2.383 5.846 2.796.132.213.905.676 1.72 1.03 1.554.675 2.132.969 4.341 2.21.745.419 1.637.761 1.983.761 1.091 0 20.577 6.133 21.503 6.768.219.151 1.207.506 2.195.789l4.392 1.303 3.814 1.15c.671.201 2.742.519 4.603.708s3.736.526 4.169.751c1.475.767 3.939 1.415 6.756 1.779l11.396 1.59c4.293.715 12.535.678 14.771-.068 1.954-.651 7.963-.698 25.303-.196 7.415.214 9.444.156 10.778-.307l3.04-1.017c2.084-.663 11.402-2.52 14.372-2.863 2.443-.283 4.314-.854 7.585-2.317.768-.344 2.834-.767 4.59-.941s4.092-.504 5.19-.733c4.4-.918 9.305-1.6 11.516-1.603 2.047-.002 2.466-.142 3.394-1.134 1.234-1.32 2.505-2.062 3.529-2.062.4 0 2.522-.895 4.717-1.988s4.18-1.991 4.414-1.996 1.167-.368 2.076-.807 1.843-.798 2.077-.798c.728 0 2.111-.932 4.081-2.75 1.044-.964 2.846-2.216 4.005-2.784 2.681-1.312 3.104-1.737 3.111-3.12.008-1.501.304-1.872 2.19-2.749.878-.408 1.829-.969 2.114-1.247s1.183-.817 1.996-1.199 1.928-1.11 2.477-1.617 1.527-1.061 2.174-1.231c1.587-.417 2.551-2.182 2.587-4.737.028-1.994.499-2.973 1.023-2.125.613.992 3.796-.854 3.796-2.202 0-.255.36-.788.799-1.185s.798-.936.798-1.198.36-.8.799-1.197.798-.937.798-1.198.359-.8.798-1.198.799-.936.799-1.197.359-.8.798-1.198.799-.936.799-1.197.359-.801.798-1.198.798-.936.798-1.198.36-.8.799-1.197.798-.937.798-1.198.36-.8.799-1.197.798-.937.798-1.198.359-.8.798-1.198.799-.936.799-1.197.359-.8.798-1.198c.722-.653.799-1.229.799-6.026 0-3.105.165-5.406.399-5.551s.399-2.325.399-5.189.168-5.047.399-5.19.399-2.458.399-5.589.166-5.444.4-5.589c1.411-.872.196-7.784-1.369-7.784-.701 0-.843-.618-.228-.998.219-.136.399-.675.399-1.198s.18-1.061.399-1.197c.863-.533.415-2.659-.798-3.793-.995-.929-1.198-1.429-1.198-2.954 0-1.01-.179-1.836-.399-1.836s-.399-.719-.399-1.597-.18-1.597-.399-1.597-.4-.718-.4-1.596-.179-1.597-.399-1.597-.399-.817-.399-1.815c0-3.265-4.417-5.772-4.716-2.676-.069.713-.293 1.297-.499 1.297s-.374.539-.374 1.198-.179 1.197-.399 1.197-.399.978-.399 2.172.179 2.283.399 2.419c1.087.672.453 7.814-.798 8.982-.659.615-1.198 1.406-1.198 1.757s-.18.638-.399.638-.399.36-.399.799-.18.798-.4.798-.399.359-.399.799-.179.798-.399.798-.399.32-.399.71-.359.97-.799 1.286-.798.855-.798 1.198-.359.881-.798 1.197-.799.856-.799 1.198-.359.881-.798 1.197-.799.896-.799 1.286-.179.71-.399.71-.399.284-.399.631-.719 1.32-1.597 2.164-1.597 1.778-1.597 2.076-.359.801-.798 1.117-.798.856-.798 1.198-.36.881-.799 1.198-.798.855-.798 1.197-.36.881-.799 1.198-.798.895-.798 1.286-.18.71-.399.71-.399.273-.399.606c0 .686-4.942 5.781-5.608 5.781-.238 0-1.307.898-2.376 1.996s-2.154 1.996-2.409 1.996-.968.539-1.583 1.198-1.367 1.197-1.669 1.197-.809.36-1.126.799-.823.798-1.125.798-1.054.539-1.669 1.198-1.334 1.197-1.597 1.197-.982.539-1.597 1.198-1.366 1.198-1.669 1.198-.809.359-1.125.798-.823.798-1.126.798-1.053.539-1.669 1.198-1.366 1.198-1.669 1.198-.809.359-1.125.798-.856.798-1.198.798-.881.36-1.197.799c-.401.556-1.034.798-2.084.798-.83 0-1.509.18-1.509.399s-.539.4-1.198.4-1.197.179-1.197.399-.36.399-.799.399-.798.18-.798.399-.359.399-.799.399-.798.18-.798.4-.359.399-.798.399-.799.179-.799.399-.539.399-1.197.399-1.198.18-1.198.399-.719.4-1.597.4-1.597.179-1.597.399-.539.399-1.197.399-1.198.18-1.198.399-.539.399-1.197.399-1.198.18-1.198.4-.719.399-1.597.399-1.597.179-1.597.399-.539.399-1.197.399-1.198.18-1.198.399c0 .613-2.777.474-3.422-.171-.328-.328-.57-1.346-.57-2.395 0-1.004-.18-1.825-.399-1.825s-.399-.718-.399-1.597-.18-1.596-.399-1.596-.4-.539-.4-1.198-.179-1.198-.399-1.198-.399-.718-.399-1.596-.18-1.597-.399-1.597-.399-.719-.399-1.597-.18-1.597-.4-1.597-.399-.539-.399-1.197-.18-1.198-.399-1.198-.399-.359-.399-.798-.18-.799-.4-.799-.399-.359-.399-.798-.179-.799-.399-.799-.399-.539-.399-1.197-.18-1.198-.399-1.198-.4-.359-.4-.798-.179-.799-.399-.799-.399-.539-.399-1.197-.18-1.198-.399-1.198-.399-.359-.399-.798-.18-.799-.4-.799-.399-.539-.399-1.197-.179-1.198-.399-1.198-.399-.539-.399-1.197-.18-1.198-.399-1.198-.4-.539-.4-1.198-.179-1.197-.399-1.197-.399-.36-.399-.799-.18-.798-.399-.798-.399-.539-.399-1.198-.18-1.197-.4-1.197-.399-.539-.399-1.198-.179-1.198-.399-1.198-.399-.319-.399-.71-.359-.969-.799-1.286-.798-.855-.798-1.197-.359-.881-.798-1.198-.799-.895-.799-1.285-.179-.711-.399-.711-.399-.319-.399-.71-.359-.969-.799-1.286-.798-.855-.798-1.197-.359-.881-.798-1.198-.799-.855-.799-1.198-.359-.881-.798-1.197-.799-.823-.799-1.126-.539-1.053-1.197-1.669-1.198-1.324-1.198-1.576-1.257-1.698-2.794-3.214-2.795-2.958-2.795-3.206-.718-1.14-1.596-1.984-1.597-1.745-1.597-2.004-.539-.973-1.198-1.588-1.197-1.367-1.197-1.669-.36-.809-.799-1.126-.798-.893-.798-1.282-.36-.931-.799-1.206-.798-.727-.798-1.008c0-.621-5.799-6.484-6.413-6.484-.241 0-1.836-1.437-3.543-3.194s-3.355-3.197-3.66-3.202-1.174-.724-1.929-1.597-1.654-1.598-1.996-1.61c-1.996-.071-2.999-3.762-1.258-4.627.529-.263 1.293-1.2 1.698-2.083s.909-1.712 1.121-1.843.936-1.392 1.609-2.802 1.387-2.665 1.588-2.789 1.087-1.711 1.97-3.526 2.06-3.729 2.616-4.251 1.011-1.167 1.011-1.431.265-.7.588-.968 1.503-2.353 2.622-4.633 2.192-4.243 2.385-4.362 1.088-1.734 1.99-3.589 1.799-3.471 1.992-3.59c.415-.257 1.601-2.551 1.601-3.097 0-.208.539-.881 1.198-1.497s1.197-1.324 1.197-1.576 1.258-1.698 2.795-3.214 2.794-2.945 2.794-3.177c0-.608 16.264-16.783 16.876-16.783.282 0 .772-.359 1.088-.798s.855-.799 1.198-.799.881-.359 1.197-.798.856-.799 1.198-.799.881-.359 1.197-.798.896-.798 1.286-.798.711-.18.711-.4.359-.399.798-.399.798-.179.798-.399.36-.399.799-.399.798-.18.798-.399.359-.4.799-.4.798-.179.798-.399.359-.399.798-.399.799-.18.799-.399.359-.399.798-.399.799-.18.799-.4.538-.399 1.197-.399 1.198-.179 1.198-.399.359-.399.798-.399.799-.18.799-.399.538-.4 1.197-.4 1.198-.179 1.198-.399.895-.399 1.988-.399c2.729 0 3.541-2.629 1.099-3.557-.508-.194-1.164-.64-1.456-.992s-.948-.641-1.457-.641-1.037-.179-1.172-.399-.855-.399-1.597-.399-1.461-.18-1.597-.399-.854-.399-1.597-.399-1.461-.18-1.596-.4-.837-.399-1.559-.399c-.805 0-1.591-.308-2.034-.798-.398-.439-1.133-.799-1.635-.799s-1.024-.179-1.16-.399-.854-.399-1.597-.399-1.461-.18-1.596-.399-.675-.4-1.198-.4-1.062-.179-1.198-.399-.769-.399-1.408-.399-1.802-.359-2.584-.798-1.944-.799-2.583-.799-1.273-.179-1.409-.399-.854-.399-1.596-.399-1.461-.18-1.597-.399-1.034-.4-1.996-.4-1.86-.179-1.996-.399-1.196-.399-2.357-.399c-1.603 0-2.284-.192-2.833-.798-.683-.755-1.229-.799-10.018-.799-5.767 0-9.39-.151-9.543-.399-.135-.219-.775-.399-1.42-.399s-1.174.18-1.174.399m16.686 14.052c.581.581.652 5.509.08 5.509-.237 0-.399 1.464-.399 3.593s-.163 3.593-.399 3.593c-.22 0-.4 1-.4 2.224 0 2.488-.564 3.364-2.167 3.364-.564 0-1.026.18-1.026.4s-.539.399-1.198.399-1.197.179-1.197.399-.36.399-.799.399-.798.18-.798.399-.539.4-1.198.4-1.197.179-1.197.399-.36.399-.799.399-.798.18-.798.399-.539.399-1.198.399-1.197.18-1.197.4-.36.399-.799.399-.798.179-.798.399-.539.399-1.198.399-1.197.18-1.197.399-.36.4-.799.4-.798.179-.798.399-.539.399-1.198.399-1.198.18-1.198.399c0 .646-2.068.457-2.862-.261-.402-.364-.73-1.072-.73-1.573s-.18-1.024-.4-1.16-.399-2-.399-4.215c0-2.379.16-3.968.399-3.968s.4-1.803.4-4.609c0-5.363.619-6.569 3.375-6.569.778 0 1.415-.18 1.415-.399s.898-.399 1.996-.399 1.996-.18 1.996-.4.898-.399 1.996-.399 1.996-.18 1.996-.399 1.065-.399 2.395-.399 2.396-.178 2.396-.399.898-.4 1.996-.4 1.996-.179 1.996-.399c0-.567 4.133-.497 4.71.08m85.409 278.594c-1.043 1.101-1.896 2.254-1.896 2.564 0 .553-.9 2.017-2.823 4.592-1.608 2.154-8.47 9.18-8.966 9.18-.254 0-.788.359-1.185.799s-.942.798-1.211.798-.704.261-.968.579-3.037 1.845-6.16 3.391-6.202 3.357-6.841 4.025c-1.608 1.678-6.742 3.981-8.877 3.981-.465 0-.957.18-1.093.399s-.561.399-.946.399-1.444.36-2.353.799-2.002.798-2.429.798-1.75.512-2.938 1.137-2.689 1.262-3.334 1.415l-2.77.69c-.878.227-2.585.564-3.793.75s-3.004.549-3.992.807-3.174.585-4.857.729-3.193.392-3.353.552-.944-.075-1.743-.524c-1.638-.92-7.637-.898-13.599.05-1.682.267-6.45.454-10.879.427l-33.133-.035c-6.027.034-15.249-.59-17.465-1.183-2.921-.782-4.372-.936-4.896-.52-.272.215-1.167.513-1.991.661s-1.497.343-1.497.433c0 .395 2.081 2.196 2.537 2.196.278 0 1.123.714 1.878 1.588s1.616 1.592 1.912 1.597 1.042.548 1.657 1.206 1.367 1.198 1.669 1.198.809.359 1.126.798.816.799 1.109.799.424.179.288.399.123.399.575.399.822.159.822.354.621.648 1.38 1.008 1.486.825 1.614 1.033.855.673 1.614 1.033 1.38.814 1.38 1.009.34.353.756.353.851.25.968.555c.221.575 2.449 1.841 3.239 1.841.248 0 .709.359 1.025.798s.895.798 1.286.798.71.18.71.4.359.399.799.399.798.18.798.399.32.399.71.399.97.36 1.286.799.895.798 1.286.798.71.18.71.399.359.399.798.399.799.18.799.4.359.399.798.399.799.18.799.399.359.399.798.399.798.18.798.399.36.4.799.4.798.179.798.399.36.399.799.399.798.18.798.399.539.399 1.198.399 1.197.18 1.197.4.36.399.799.399.798.18.798.399.359.399.798.399.799.18.799.4.359.399.798.399.799.179.799.399.539.399 1.197.399 1.198.18 1.198.399.359.4.798.4.799.179.799.399.539.399 1.197.399 1.198.18 1.198.399.359.399.798.399.799.18.799.4.539.399 1.197.399 1.198.179 1.198.399.539.399 1.198.399 1.197.18 1.197.399.539.4 1.198.4 1.197.179 1.197.399.539.399 1.198.399 1.198.18 1.198.399.538.399 1.197.399 1.198.18 1.198.4.718.399 1.597.399 1.596.179 1.596.399.539.399 1.198.399 1.198.18 1.198.399.718.4 1.596.4 1.597.179 1.597.399.898.399 1.996.399 1.996.18 1.996.399.719.399 1.597.399 1.597.18 1.597.4 1.064.399 2.395.399 2.395.177 2.395.399.898.399 1.996.399 1.996.18 1.996.399c0 .228 1.198.4 2.795.4s2.794.171 2.794.399c0 .236 1.464.399 3.593.399s3.593.163 3.593.399c0 .26 6.254.399 17.964.399s17.964-.139 17.964-.399c0-.233 1.368-.402 3.293-.405 2.274-.004 3.108-.126 2.695-.393s.35-.389 2.495-.393l3.094-.006v-1.773c0-.975.179-1.884.399-2.02s.399-1.034.399-1.996.18-1.86.399-1.996.4-1.213.4-2.395.179-2.26.399-2.395.399-1.214.399-2.396.18-2.259.399-2.395.399-1.393.399-2.794.18-2.659.4-2.795.399-2.058.399-4.391.174-4.252.399-4.391.399-1.926.399-3.992.179-3.856.399-3.992.4-1.034.4-1.996.179-1.86.399-1.996.399-1.034.399-1.996.18-1.86.399-1.996.399-1.214.399-2.395.18-2.26.4-2.395.399-1.034.399-1.996.179-1.861.399-1.996.399-1.214.399-2.396.18-2.259.399-2.395c.23-.142.4-2.258.4-4.99s-.17-4.848-.4-4.99-.399-2.351-.399-5.269c0-5.64-.203-6.083-2.794-6.082-1.159 0-1.722.343-3.294 2.001" fill="#045493"/><path d="M253.169 10.676c.074.382.626.931 1.227 1.219s1.093.68 1.093.871c0 .768 2.25 2.942 4.743 4.582 5.919 3.893 7.695 6.695 6.142 9.692-1.203 2.321-1.228 2.313 7.213 2.172 5.882-.099 8.443.02 10.762.499l3.23.628c.413 0 1.443 2.588 1.443 3.625 0 1.576-1.644 2.763-3.828 2.763-2.459 0-3.572.631-4.09 2.321-.479 1.56.189 3.267 1.278 3.267.909 0 1.908 1.469 2.131 3.133.282 2.1-1.276 3.901-3 3.468-2.984-.751-3.48-.714-4.022.299-.843 1.575-.447 2.465 1.155 2.594.767.061 1.753.279 2.192.484s2.056.46 3.593.568c7.961.555 11.254 2.406 8.583 4.824-1.381 1.25-1.077 3.223.622 4.029 1.065.506 1.535.56 1.876.219.874-.874 1.839-.442 3.557 1.589.951 1.125 2.348 2.652 3.104 3.393 1.27 1.244 1.377 1.539 1.398 3.843l.022 2.495 1.556.2c.856.11 1.681.469 1.834.798s.49 1.008.749 1.507c.914 1.763-.706 3.376-3.694 3.677-1.707.172-2.042.337-2.042 1.004 0 .734.305.808 3.789.915 2.084.063 3.961.288 4.171.499s1.325.383 2.476.383 2.203.179 2.338.399 1.214.399 2.396.399 2.259.18 2.395.399.82.412 1.52.429c3.761.086 4.999 2.933 2.286 5.256-2.975 2.546-1.122 3.352 4.378 1.903 4.634-1.221 6.087-.88 6.087 1.428 0 1.993-2.375 5.355-3.783 5.355-1.313 0-5.1 2.944-5.097 3.962.005 1.643 1.829 3.045 3.278 2.521.767-.277 3.246-.495 5.643-.495 4.66 0 5.242.292 4.123 2.064a9.21 9.21 0 0 0-.869 1.871c-.577 1.927-2.792 3.65-4.692 3.65-.516 0-1.109.171-1.318.38s-1.712.433-3.34.499c-3.772.152-6.193 3.013-3.027 3.577.652.116.822.508.923 2.135.068 1.095.292 2.163.499 2.371.707.715.375 1.773-.723 2.299-.762.366-1.098.83-1.098 1.519 0 1.091 4.97 1.772 5.929.813.23-.231 1.417-.419 2.638-.419 1.809 0 2.314-.152 2.733-.823.356-.57.846-.785 1.59-.699 1.468.17 1.664 1.397.306 1.913-.569.216-1.206.845-1.417 1.398s-.671 1.005-1.024 1.005c-1.166 0-.35.954 1.649 1.928 3.258 1.587 3.716 1.96 3.486 2.842a1 1 0 0 1-1.064.776c-2.059-.066-4.875 1.539-5.476 3.121-.191.503-.587.914-.878.914s-1.119.607-1.838 1.349c-2.655 2.739-.977 4.448 4.744 4.827 5.283.351 7.584.955 7.584 1.992 0 .875 5.641 5.325 7.127 5.622.581.116 1.865.463 2.853.77s2.785.678 3.992.822c4.773.571 7.102 5.233 4.359 8.721-.421.535-.766 1.072-.766 1.193 0 1.531-4.741 5.842-6.425 5.842-.392 0-.824.18-.96.399s-1.034.399-1.996.399-1.86.18-1.996.399-.549.4-.918.4c-.884 0-6.263 2.666-6.881 3.411-.265.319-.699.581-.963.581-1.212 0-2.216 1.826-2.216 4.032 0 2.682 2.193 5.164 6.429 7.277l2.553 1.273v1.755c0 1.887 1.273 3.132 3.27 3.198.481.016.986.209 1.121.429s.675.399 1.198.399 1.062.18 1.197.399.955.399 1.82.399c1.555 0 2.033.561 1.208 1.418-.201.208-.425.828-.499 1.377-.122.912-.322 1.007-2.329 1.101-3.465.164-5.589 1.088-5.589 2.433 0 .713-4.503 4.05-5.465 4.05-.481 0-.986.18-1.122.4s-.764.399-1.397.399-1.261.18-1.397.399-.64.4-1.121.4c-2.304.001-4.513 5.448-2.671 6.586.219.136.399.649.399 1.14 0 1.699 5.412 5.846 7.629 5.846.389 0 .818.18.954.399s.674.4 1.197.4 1.062.179 1.198.399.854.399 1.597.399 1.461.18 1.596.399.59.399 1.01.399 1.402.36 2.184.799 1.825.798 2.319.798c4.663 0 2.805 4.883-2.191 5.757-1.65.289-3.195 1.595-4.936 4.173-.891 1.319-1.62 1.89-2.976 2.334-.988.323-1.967.75-2.176.948s-2.595.361-5.302.361c-4.915 0-6.787.38-8.107 1.646-1.005.964-2.748 1.548-4.62 1.548-3.451 0-6.254 2.541-6.064 5.497.128 2.003.952 2.65 5.81 4.565.782.309 1.297.792 1.297 1.219 0 .762 2.172 2.288 3.26 2.29.366.001.725.136.798.301.171.383 4.303 2.886 7.006 4.244 1.146.575 2.718 1.045 3.493 1.045s1.411.18 1.411.4.539.399 1.198.399 1.197.179 1.197.399.539.399 1.198.399 1.197.18 1.197.399.36.4.799.4.798.179.798.399.359.399.799.399.798.18.798.399.236.399.524.399.909.36 1.38.799 1.134.798 1.473.798.615.137.615.305.713.746 1.584 1.284c2.741 1.694 2.668 4.771-.142 6.023-1.646.733-6.72 5.578-7.15 6.826-.136.394.173 1.129.753 1.797 1.35 1.552 1.553 2.642.974 5.228-.498 2.228-3.41 6.082-4.595 6.082-.265 0-.798.349-1.184.776s-1.267.891-1.958 1.031-3.951 1.139-7.244 2.219c-5.918 1.94-8.388 2.32-10.314 1.588-.785-.299-1.132-.212-1.713.43-.646.714-3.674 2.339-4.358 2.339-2.592 0-3.451 2.022-2.148 5.057.455 1.061.929 2.828 1.053 3.925.304 2.699.655 3.255 2.621 4.158 3.256 1.495 4.781 3.568 4.619 6.279-.139 2.334-.137 2.338 1.174 2.762 8.596 2.781 1.413 12.949-9.146 12.949-1.715 0-5.94 3.261-5.94 4.585 0 .202-.565.951-1.257 1.664-.785.81-1.302 1.791-1.377 2.614l-.279 3.214c-.223 2.675-1.086 3.492-3.687 3.492-3.299 0-4.336 2.328-1.259 2.829 2.396.389 2.793 2.76.461 2.76-.975 0-1.471 1.069-.912 1.965.614.982 1.125 1.076 1.125.207 0-.342.173-.516.384-.385s.751-.128 1.198-.575 1.172-.813 1.611-.813.799-.18.799-.399.19-.399.422-.399.289.224.125.499c-.299.499 2.014-1.33 4.291-3.394.666-.603 1.422-1.097 1.681-1.097s.978-.539 1.6-1.198 1.339-1.205 1.595-1.214 1.363-.906 2.461-1.993 2.179-1.977 2.403-1.979 2.196-1.8 4.384-3.996 4.171-3.992 4.409-3.992c.514 0 6.569-6.125 6.569-6.645 0-.198 1.437-1.788 3.193-3.534s3.194-3.366 3.194-3.599.898-1.308 1.996-2.389 1.996-2.154 1.996-2.383.719-1.179 1.597-2.111 1.598-1.92 1.6-2.194.541-.922 1.198-1.441 1.194-1.165 1.194-1.435.359-.817.798-1.215.799-.936.799-1.197.359-.801.798-1.198.798-.936.798-1.198.36-.8.799-1.197.798-1.015.798-1.371.36-.907.799-1.224.798-.855.798-1.198.359-.881.798-1.197.799-.856.799-1.198.359-.881.798-1.197.799-.895.799-1.286.179-.71.399-.71.399-.36.399-.799.18-.798.399-.798.399-.32.399-.71.36-.97.799-1.286.798-.895.798-1.286.18-.71.399-.71.4-.36.4-.799.179-.798.399-.798.399-.359.399-.798.18-.799.399-.799.399-.359.399-.798.18-.799.4-.799.399-.359.399-.798.18-.798.399-.798.399-.36.399-.799.18-.798.399-.798.4-.36.4-.799.179-.798.399-.798.399-.359.399-.798.18-.799.399-.799.399-.359.399-.798.18-.799.4-.799.399-.359.399-.798.18-.798.399-.798.399-.539.399-1.198.18-1.198.4-1.198.399-.359.399-.798.179-.799.399-.799.399-.359.399-.798.18-.798.399-.798.4-.539.4-1.198.179-1.198.399-1.198.399-.359.399-.798.18-.798.399-.798.399-.539.399-1.198.18-1.198.4-1.198.399-.538.399-1.197.179-1.198.399-1.198.399-.539.399-1.197.18-1.198.399-1.198.4-.539.4-1.198.179-1.197.399-1.197.399-.539.399-1.198.18-1.197.399-1.197.399-.539.399-1.198.18-1.198.4-1.198.399-.718.399-1.596.179-1.597.399-1.597.399-.539.399-1.198.18-1.197.399-1.197.4-.719.4-1.597.179-1.597.399-1.597.399-.898.399-1.996.18-1.996.399-1.996.399-.719.399-1.597.18-1.597.4-1.597.399-1.064.399-2.395.177-2.395.399-2.395.399-.898.399-1.996.18-1.996.399-1.996c.228 0 .4-1.198.4-2.795s.171-2.794.399-2.794c.236 0 .399-1.464.399-3.593s.163-3.593.399-3.593c.261 0 .399-6.387.399-18.363s-.138-18.363-.399-18.363c-.236 0-.399-1.464-.399-3.593s-.163-3.593-.399-3.593c-.228 0-.399-1.197-.399-2.794s-.172-2.795-.4-2.795c-.219 0-.399-.898-.399-1.996s-.179-1.996-.399-1.996-.399-1.064-.399-2.395-.178-2.395-.399-2.395-.4-.719-.4-1.597-.179-1.597-.399-1.597-.399-.898-.399-1.996-.18-1.996-.399-1.996-.399-.718-.399-1.596-.18-1.597-.4-1.597-.399-.539-.399-1.198-.18-1.197-.399-1.197-.399-.719-.399-1.597-.18-1.597-.399-1.597-.4-.539-.4-1.198-.179-1.197-.399-1.197-.399-.539-.399-1.198-.18-1.197-.399-1.197-.399-.539-.399-1.198-.18-1.198-.4-1.198-.399-.539-.399-1.197-.18-1.198-.399-1.198-.399-.539-.399-1.197-.18-1.198-.399-1.198-.4-.539-.4-1.198-.179-1.197-.399-1.197-.399-.36-.399-.799-.18-.798-.399-.798-.399-.539-.399-1.198-.18-1.197-.4-1.197-.399-.36-.399-.799-.18-.798-.399-.798-.399-.359-.399-.799-.18-.798-.399-.798-.4-.539-.4-1.198-.179-1.197-.399-1.197-.399-.359-.399-.799-.18-.798-.399-.798-.4-.359-.4-.798-.179-.799-.399-.799-.399-.359-.399-.798-.18-.799-.399-.799-.399-.359-.399-.798-.18-.798-.4-.798-.399-.36-.399-.799-.179-.798-.399-.798-.399-.359-.399-.799-.18-.798-.399-.798-.4-.359-.4-.798-.179-.799-.399-.799-.399-.359-.399-.798-.18-.799-.399-.799-.399-.359-.399-.798-.18-.798-.4-.798-.399-.32-.399-.711-.359-.969-.798-1.285-.799-.895-.799-1.286-.179-.71-.399-.71-.399-.36-.399-.799-.18-.798-.399-.798-.399-.359-.399-.799-.16-.798-.354-.798-.64-.604-.991-1.342-.909-1.569-1.243-1.846-.606-.749-.606-1.049-.359-.771-.798-1.045-.799-.787-.799-1.139-.359-.966-.798-1.363-.799-.937-.799-1.198-.359-.8-.798-1.198-.798-.936-.798-1.197-.36-.8-.799-1.198-.798-.928-.798-1.178-.719-1.158-1.597-2.015-1.598-1.748-1.599-1.978-.54-.992-1.197-1.693-1.196-1.477-1.196-1.723-.898-1.322-1.996-2.391-1.996-2.141-1.996-2.382-1.976-2.402-4.391-4.804-4.397-4.506-4.404-4.677c-.021-.514-1.911-2.508-2.378-2.508-.238 0-2.436-1.976-4.884-4.391s-4.643-4.399-4.876-4.408-1.323-.906-2.42-1.993-2.193-1.977-2.433-1.979-.763-.363-1.16-.802-.964-.798-1.26-.798-.492-.201-.437-.446-.524-.803-1.286-1.239-1.682-1.135-2.043-1.551-.826-.756-1.034-.756-.894-.539-1.525-1.198-1.355-1.198-1.61-1.198-.787-.359-1.184-.798-.937-.798-1.198-.798-.8-.36-1.198-.799-1.014-.798-1.371-.798-.907-.36-1.223-.799-.895-.798-1.286-.798-.71-.18-.71-.399-.32-.399-.711-.399-.969-.36-1.285-.799-.895-.798-1.286-.798-.71-.18-.71-.399-.32-.4-.711-.4-.969-.359-1.285-.798-.896-.798-1.286-.798-.71-.18-.71-.4-.36-.399-.799-.399-.798-.158-.798-.351-.539-.574-1.198-.847-1.197-.653-1.197-.846-.36-.351-.799-.351-.798-.18-.798-.399-.36-.4-.799-.4-.798-.179-.798-.399-.359-.399-.798-.399-.799-.18-.799-.399-.359-.399-.798-.399-.799-.18-.799-.4-.539-.399-1.197-.399-1.198-.179-1.198-.399-.359-.399-.798-.399-.799-.18-.799-.399-.359-.4-.798-.4-.798-.179-.798-.399-.36-.399-.799-.399-.798-.18-.798-.399-.539-.399-1.198-.399-1.198-.18-1.198-.4-.359-.399-.798-.399-.798-.179-.798-.399-.539-.399-1.198-.399-1.198-.18-1.198-.399-.359-.4-.798-.4-.798-.179-.798-.399-.719-.399-1.597-.399-1.597-.18-1.597-.399-.539-.399-1.198-.399-1.197-.18-1.197-.4-.539-.399-1.198-.399-1.197-.179-1.197-.399-.539-.399-1.198-.399-1.198-.18-1.198-.399-.538-.4-1.197-.4-1.198-.179-1.198-.399-.193-.399-.428-.399-.368.313-.295.696m-113.404 5.591c8.811.107 9.472.166 10.142.906.542.599 1.229.791 2.826.791 1.161 0 2.221.18 2.357.399s1.034.399 1.996.399 1.86.18 1.996.4.854.399 1.597.399 1.461.18 1.596.399.77.399 1.409.399 1.802.36 2.583.799 1.945.798 2.584.798 1.273.18 1.408.399.675.399 1.198.399 1.062.18 1.198.4.854.399 1.596.399 1.462.18 1.597.399.658.399 1.16.399 1.237.36 1.635.799c.443.49 1.229.798 2.034.798.722 0 1.423.18 1.559.399s.854.4 1.596.4 1.461.179 1.597.399.854.399 1.597.399 1.461.18 1.597.399.626.399 1.09.399 1.173.299 1.576.663a8.68 8.68 0 0 0 1.626 1.109c.493.246 1.007.977 1.147 1.632.244 1.135.257 1.142.302.151.046-1.006-.997-2.357-1.819-2.357-.223 0-.73-.359-1.128-.798s-1.133-.799-1.635-.799-1.024-.18-1.159-.399-.855-.399-1.597-.399-1.461-.18-1.597-.399-.854-.4-1.597-.4-1.461-.179-1.596-.399-.837-.399-1.559-.399c-.805 0-1.591-.309-2.034-.799-.398-.439-1.133-.798-1.635-.798s-1.024-.18-1.16-.399-.854-.399-1.597-.399-1.461-.18-1.596-.4-.675-.399-1.198-.399-1.062-.179-1.198-.399-.769-.399-1.408-.399-1.802-.359-2.584-.799-1.944-.798-2.583-.798-1.273-.18-1.409-.399-.854-.399-1.596-.399-1.461-.18-1.597-.4-1.034-.399-1.996-.399-1.86-.179-1.996-.399-1.196-.399-2.357-.399c-1.603 0-2.284-.192-2.833-.799-.688-.76-1.167-.794-10.142-.706l-9.419.093 9.426.114m4.247 13.672c.593.666.674 5.035.1 5.39-.22.136-.399 1.753-.399 3.593s-.18 3.457-.4 3.593-.399 1.188-.399 2.339c0 2.276-.47 3.05-1.853 3.05-.492 0-1.005.18-1.141.399s-.59.4-1.009.4-1.403.359-2.184.798-1.68.798-1.996.798-1.215.36-1.996.799-1.68.798-1.996.798-1.215.359-1.996.799-1.681.798-1.996.798-1.215.359-1.997.798-1.764.799-2.184.799-.873.179-1.009.399c-.733 1.187-2.994.089-2.994-1.453 0-.492-.18-1.006-.399-1.142s-.4-1.926-.4-3.992.179-3.856.4-3.992c.228-.141.399-2.176.399-4.744 0-4.28.048-4.543.996-5.434.548-.515.919-1.014.823-1.11-1.117-1.116-2.218 2.101-2.218 6.48 0 2.806-.156 4.609-.4 4.609-.239 0-.399 1.589-.399 3.968 0 2.215.177 4.078.399 4.215s.4.658.4 1.16.328 1.209.73 1.573c.794.718 2.862.907 2.862.261 0-.219.539-.399 1.198-.399s1.198-.18 1.198-.399.359-.399.798-.399.799-.18.799-.4.538-.399 1.197-.399 1.198-.179 1.198-.399.359-.399.798-.399.799-.18.799-.399.538-.4 1.197-.4 1.198-.179 1.198-.399.359-.399.798-.399.799-.18.799-.399.538-.399 1.197-.399 1.198-.18 1.198-.4.359-.399.798-.399.799-.179.799-.399.538-.399 1.197-.399 1.198-.18 1.198-.399.462-.4 1.026-.4c1.603 0 2.167-.876 2.167-3.364 0-1.224.18-2.224.4-2.224.236 0 .399-1.464.399-3.593s.162-3.593.399-3.593c.749 0 .481-5.03-.299-5.621-.595-.449-.625-.445-.2.031m-83.268 28.58c-.945 1.069-.202 2.058.765 1.02.444-.477.698-1.044.564-1.261-.334-.539-.699-.473-1.329.241m-2.407 2.408c-.86.971.064 1.582 1.078.713.836-.715.808-1.373-.057-1.345-.262.008-.721.292-1.021.632M31.746 95.792c-.338.548-.038.959.552.757.241-.083.272-.365.074-.683-.249-.402-.411-.421-.626-.074m218.01 122.05c-.14.14-.255 1.153-.255 2.251 0 2.383.27 2.285.748-.273.324-1.736.113-2.584-.493-1.978M7.435 220.889c.631.84 2.211 2.636 3.511 3.992l2.363 2.464-2.164-2.483-3.51-3.992-1.348-1.509 1.148 1.528m237.776 4.76c-.707.494-1.288 1.06-1.292 1.259s.369.022.828-.394 1.312-.967 1.896-1.227.79-.486.457-.504-1.182.372-1.889.866m-4.663 2.902c-.423.321-.69.662-.593.759s.623-.167 1.169-.586.812-.76.593-.758-.746.265-1.169.585m-3.993 2.416c-.345.345-.611 1.198-.591 1.896l.036 1.269.389-1.397c.213-.769.68-1.622 1.038-1.897s.449-.499.203-.499-.73.283-1.075.628M24.75 232.9c0 .091 1.16.814 2.578 1.606s2.685 1.616 2.816 1.829c.242.391 1.792 1.331 1.792 1.086 0-.252-3.804-3.012-5.301-3.846-1.523-.848-1.885-.977-1.885-.675m204.269 5.676c-1.056 1.007-1.862 1.888-1.792 1.958s1.055-.759 2.189-1.841 1.94-1.962 1.792-1.957-1.133.833-2.189 1.84m-9.458 4.937c-.532.344-.532.387 0 .387.329 0 .868-.174 1.197-.387.533-.344.533-.387 0-.387-.329 0-.868.174-1.197.387m-171.258 2.395c.33.213 1.138.377 1.797.365 1.028-.019 1.084-.07.399-.365-1.174-.504-2.976-.504-2.196 0m3.394.799c.135.219.64.386 1.121.371.843-.027.846-.041.076-.371-1.099-.473-1.489-.473-1.197 0m2.594.798c.33.213 1.048.372 1.597.353l.998-.033-.998-.32c-1.538-.493-2.359-.493-1.597 0m155.29.217l-.998.588 1.197-.262c2.135-.468 2.975-.89 1.797-.903-.549-.006-1.447.254-1.996.577m-152.296.581c.136.22.641.387 1.122.372.843-.028.846-.041.076-.372-1.099-.472-1.489-.472-1.198 0m2.396.799c.135.219.64.386 1.121.371.843-.027.846-.04.076-.371-1.099-.472-1.489-.472-1.197 0m147.963.241c-.296.335-.46.689-.363.786s.502-.185.9-.626.563-.794.364-.785-.604.289-.901.625m-145.568.557c.136.22.64.387 1.121.371.843-.027.846-.04.076-.371-1.098-.472-1.489-.472-1.197 0m2.395.799c.136.219.64.386 1.121.371.844-.027.846-.041.077-.371-1.099-.473-1.49-.473-1.198 0m135.13 0c-1.407.218-.975.286 1.996.311 2.086.017 4.152-.123 4.591-.311.973-.419-3.897-.419-6.587 0m-132.735.798c.136.22.641.387 1.122.371.843-.027.846-.04.076-.371-1.099-.472-1.49-.472-1.198 0m128.144 0c-.728.313-.71.343.2.343.548 0 1.357-.154 1.796-.343.728-.313.71-.343-.2-.343-.549 0-1.357.154-1.796.343m-3.992.798c-.652.281-.543.348.599.365.768.013 1.666-.152 1.996-.365.777-.502-1.426-.502-2.595 0m-119.96.799c.329.213.868.387 1.197.387.533 0 .533-.043 0-.387-.329-.213-.868-.387-1.197-.387-.532 0-.532.043 0 .387m113.573 0c-.559.24-.019.349 1.796.365 1.427.012 2.864-.152 3.194-.365.768-.497-3.835-.497-4.99 0m-111.178.798c.329.213 1.048.377 1.597.365.914-.02.931-.051.2-.365-1.182-.508-2.583-.508-1.797 0m4.192 1.138c2.3 1.108 5.037 1.664 7.89 1.604l2.489-.054-3.175-.334c-1.746-.184-3.452-.452-3.792-.596s-1.247-.396-2.015-.56-1.757-.419-2.196-.564-.08.081.799.504m102.794-.339c-.532.344-.532.387 0 .387.329 0 .868-.175 1.198-.387.532-.344.532-.387 0-.387-.33 0-.869.174-1.198.387m-7.784 1.596c-.579.249-.195.35 1.397.365 1.207.013 2.465-.152 2.794-.365.77-.497-3.033-.497-4.191 0m-3.593.799l-1.198.305 1.198.019c.659.01 1.557-.135 1.996-.324l.798-.343-.798.019c-.439.01-1.337.156-1.996.324m-78.643.798c1.194.513 2.191.513 1.397 0-.329-.213-.958-.377-1.397-.365l-.798.022.798.343m74.451 0l-1.397.294 1.397.025c.769.013 1.757-.13 2.196-.319l.798-.343-.798.025c-.439.013-1.427.156-2.196.318m-71.829.824c.528.334 5.103.555 4.73.228-.091-.08-1.322-.245-2.734-.368-1.604-.139-2.353-.086-1.996.14m5.364.708c.261.262 4.355.753 8.581 1.028 1.208.079 1.477.073.599-.012s-2.226-.325-2.994-.534c-1.726-.468-6.548-.844-6.186-.482m60.477.065c-.793.513.204.513 1.397 0l.799-.343-.799-.022a2.88 2.88 0 0 0-1.397.365m-31.038.297c1.921.073 5.065.073 6.986 0s.35-.133-3.493-.133-5.414.06-3.493.133m-5.688.52c-.438.296-.276.333.598.137 1.468-.328 1.787-.557.766-.549a2.91 2.91 0 0 0-1.364.412m17.079.053c.933.369 17.735.39 18.311.022.252-.161-3.918-.293-9.269-.293s-9.419.122-9.042.271m-29.316.821c.575.366 9.794.347 10.726-.022.377-.15-1.986-.272-5.25-.272s-5.729.132-5.476.294m123.215 45.308c.768.09 1.568.331 1.776.534s.557.371.775.371.047-.264-.379-.586-1.404-.563-2.172-.535l-1.397.051 1.397.165m-2.795 1.304c-.469.659-.763 1.198-.653 1.198s.583-.539 1.053-1.198.762-1.197.653-1.197-.584.539-1.053 1.197m5.589 4.9c0 2.769.135 5.115.3 5.215s.299-2.029.299-4.732-.135-5.049-.299-5.215-.3 1.964-.3 4.732m-8.785-.653c-.941 1.885-.944 1.991-.019.839.486-.605.818-1.3.737-1.542s-.404.074-.718.703m-2.189 3.334c-.629.656-1.067 1.257-.973 1.335s.682-.459 1.308-1.193c1.412-1.658 1.203-1.747-.335-.142m-5.034 5.798c-2.108 2.083-3.721 3.787-3.585 3.787s1.947-1.706 4.024-3.792 3.691-3.79 3.585-3.788-1.916 1.71-4.024 3.793m16.95 1.791c0 2.086.068 2.939.15 1.896a29.26 29.26 0 0 0 0-3.792c-.082-1.043-.15-.19-.15 1.896m-.783 5.351c-.118.309-.152 1.162-.076 1.897.123 1.17.164 1.101.331-.561.196-1.945.124-2.322-.255-1.336m-.802 4.8c-.12.313-.151.987-.07 1.497.11.682.202.531.351-.57.209-1.55.098-1.915-.281-.927m-35.968 1.436c-.925.873-1.545 1.587-1.379 1.587s1.005-.719 1.862-1.597c2.006-2.054 1.697-2.048-.483.01m35.175 2.543c-.118.306-.153 1.249-.078 2.096.127 1.425.151 1.384.326-.557.194-2.14.131-2.528-.248-1.539m-40.28.241c-.77.331-.767.344.076.371.481.016.985-.151 1.121-.371.292-.472-.099-.472-1.197 0m-2.994.799l-.998.319.998.034c.548.019 1.267-.14 1.596-.353.763-.493-.058-.493-1.596 0m-2.595.798c-.77.331-.767.344.076.371.481.016.986-.151 1.121-.371.292-.472-.098-.472-1.197 0m-4.591 1.597l-.998.32.998.033c.549.019 1.267-.14 1.597-.353.762-.493-.058-.493-1.597 0m49.658 1.363c-.119.311-.152 1.075-.073 1.697.117.923.18.82.34-.565.201-1.746.113-2.121-.267-1.132m-55.446 1.032c-.77.331-.768.344.076.371.481.016.985-.151 1.121-.371.292-.472-.099-.472-1.197 0m-2.994.799l-.999.319.999.034c.548.018 1.267-.141 1.596-.353.763-.493-.058-.493-1.596 0m-4.791.798c-.827.265-.691.325.798.353.989.019 2.066-.14 2.396-.353.748-.483-1.685-.483-3.194 0m-94.611.687c-.549.098-1.172.347-1.384.552-.495.477 2.233-.011 2.762-.493.4-.366.347-.368-1.378-.059m4.791.111c.329.213 1.048.372 1.597.354l.998-.034-.998-.32c-1.539-.492-2.36-.492-1.597 0m67.465 0c-.62.199.74.317 3.593.313 2.905-.005 4.151-.12 3.393-.313-1.582-.402-5.729-.402-6.986 0m19.161 0l-.998.32.998.034c.549.018 1.268-.141 1.597-.354.763-.492-.058-.492-1.597 0m65.627.565c-.119.311-.152 1.075-.073 1.697.117.923.179.82.339-.565.202-1.746.114-2.121-.266-1.132m-149.06.234c.33.213 2.845.372 5.589.353 3.11-.021 4.614-.154 3.992-.353-1.491-.478-10.32-.478-9.581 0m21.956 0c-.556.178 3.333.316 8.783.312 5.379-.004 9.241-.145 8.583-.312-1.597-.406-16.097-.406-17.366 0m36.727 0c-.771.247-.498.327 1.198.353 1.207.019 2.465-.14 2.794-.353.745-.482-2.488-.482-3.992 0m18.363 0c-.73.234-.302.328 1.597.353 1.427.019 2.864-.14 3.194-.353.743-.481-3.291-.481-4.791 0m-65.868.798c.329.213 2.395.387 4.591.387s4.261-.174 4.591-.387c.403-.261-1.095-.387-4.591-.387s-4.994.126-4.591.387m29.94 0c.332.214 3.894.387 7.984.387s7.653-.173 7.984-.387c.397-.256-2.297-.387-7.984-.387s-8.381.131-7.984.387m32.735-.242c0 .387 1.124.533 1.633.211.409-.259.263-.357-.536-.362-.603-.003-1.097.065-1.097.151m74.419 3.174c-.113.295-.15 1.867-.082 3.493l.122 2.956.196-3.494c.194-3.481.155-3.973-.236-2.955m-.796 7.98c-.113.293-.15 2.044-.084 3.892l.121 3.36.196-3.893c.194-3.867.159-4.381-.233-3.359m-.805 8.8c-.117.302-.152 1.425-.08 2.495l.131 1.945.192-2.496c.194-2.521.141-2.946-.243-1.944m-.803 5.599c-.118.309-.153 1.162-.076 1.897.123 1.171.163 1.101.331-.561.195-1.945.123-2.322-.255-1.336m-.799 4.791c-.118.308-.152 1.162-.075 1.896.122 1.171.163 1.102.33-.561.196-1.944.124-2.321-.255-1.335m-.8 4.795c-.119.31-.152 1.074-.073 1.696.117.924.18.82.34-.565.202-1.745.113-2.121-.267-1.131m-.689 3.693c-.369.368-.336 3.726.036 3.726.22 0 .482-3.983.263-3.991-.018-.001-.153.118-.299.265" fill="#323464"/><path d="M271.562 29.428c.607.092 1.505.089 1.996-.005s-.005-.17-1.103-.167-1.499.08-.893.172m-131.243.512c-.135.22-1.034.399-1.996.399s-1.86.18-1.996.4-1.213.399-2.395.399-2.259.179-2.395.399-1.034.399-1.996.399-1.86.18-1.996.399-1.034.4-1.996.4-1.86.179-1.996.399-.831.399-1.546.399c-2.653 0-3.444 1.536-3.444 6.685 0 2.533-.172 4.552-.399 4.692-.221.136-.4 1.926-.4 3.992s.179 3.856.4 3.992.399.65.399 1.142c0 1.542 2.261 2.64 2.994 1.453.136-.22.59-.399 1.009-.399s1.403-.359 2.184-.799 1.681-.798 1.997-.798 1.214-.359 1.996-.798 1.68-.799 1.996-.799 1.214-.359 1.996-.798 1.68-.799 1.996-.799 1.214-.359 1.996-.798 1.764-.798 2.184-.798.873-.18 1.009-.4.649-.399 1.141-.399c1.383 0 1.853-.774 1.853-3.05 0-1.151.18-2.203.399-2.339s.4-1.752.4-3.593.179-3.457.399-3.593c.564-.348.498-4.731-.08-5.309s-3.367-.639-3.713-.08m148.404 3.793c.005.878.087 1.19.182.693s.092-1.215-.008-1.596-.178.024-.174.903m-3.493 2.594l-1.996.274 1.796.057c.988.031 2.066-.118 2.395-.331s.419-.361.2-.33l-2.395.33m-7.519 11.843c-.146.147-.263.461-.26.699.004.287.105.279.3-.026.161-.253.742-.543 1.291-.645l.998-.185-1.031-.054c-.568-.03-1.151.065-1.298.211m25.582 31.154c.494.095 1.303.095 1.797 0s.09-.173-.898-.173-1.393.077-.899.173m20.16 12.768c.384.1 1.013.1 1.397 0s.07-.183-.698-.183-1.083.082-.699.183m7.8 11.996a48.43 48.43 0 0 0 4.791-.001c1.253-.079.124-.143-2.511-.142s-3.661.065-2.28.143m4.461 19.545c-.466.614-.464.646.014.219.675-.602 2.25-.658 2.532-.09.112.226.158.181.102-.099-.161-.817-2.035-.838-2.648-.03m-5.375 1.317c-.135.22-1.448.433-2.917.475l-2.672.075 2.38.147c1.309.08 2.746-.04 3.194-.267s1.712-.474 2.81-.549l1.996-.136-2.272-.072c-1.25-.04-2.383.108-2.519.327m.374 13.274l-1.172 1.297 1.297-1.173c.714-.644 1.298-1.228 1.298-1.297 0-.308-.33-.037-1.423 1.173m9.312 5.771c.496.095 1.215.092 1.596-.008s-.024-.178-.902-.174-1.191.086-.694.182m.294 38.041l2.166 1.996c.11 0-.685-.898-1.766-1.996l-2.166-1.996c-.11 0 .685.898 1.766 1.996m-2.794 33.134c.858.878 1.649 1.596 1.759 1.596s-.502-.718-1.36-1.596-1.649-1.597-1.759-1.597.502.718 1.36 1.597m-84.73 4.59c.005.879.086 1.191.182.694s.092-1.215-.008-1.596-.178.024-.174.902m.695 5.308l.196 3.475.121-3.156c.067-1.735-.022-3.299-.196-3.475s-.229 1.245-.121 3.156m-.529 3.941c-.439.439-.312 14.828.133 15.103.219.135.432 1.359.473 2.718l.074 2.471.149-2.177c.082-1.198-.049-2.549-.291-3.002-.289-.54-.401-3.333-.324-8.102l.085-7.278c-.018 0-.153.12-.299.267m-.212 21.604c-.03.502-.304 1.31-.609 1.796s-.641 2.232-.746 3.878c-.108 1.683-.052 2.645.127 2.196.176-.439.332-1.791.347-3.005.017-1.316.281-2.567.654-3.1.344-.491.548-1.295.454-1.785l-.173-.892-.054.912m-2.21 10.192c-.14.748-.611 1.683-1.046 2.076s-.79 1.126-.79 1.628-.18 1.024-.4 1.16-.399.674-.399 1.197-.179 1.062-.399 1.198-.399.854-.399 1.597-.18 1.461-.399 1.596-.4.675-.4 1.198-.179 1.062-.399 1.198-.4 1.179-.401 2.319c0 1.366-.273 2.517-.798 3.379-.438.719-.797 1.567-.797 1.884s-.359 1.217-.798 1.999c-.548.975-.799 2.161-.799 3.781 0 1.297-.179 2.47-.399 2.606s-.399.674-.399 1.197-.18 1.062-.399 1.198-.399.675-.399 1.198-.18 1.061-.4 1.197-.399.675-.399 1.198-.179 1.062-.399 1.197-.399.95-.399 1.808-.369 2.218-.82 3.021c-.462.823-.75 1.917-.659 2.507l.162 1.048.059-1.086c.033-.597.419-1.725.859-2.507s.798-2.124.798-2.983.18-1.672.399-1.808.399-.674.399-1.197.18-1.062.4-1.198.399-.674.399-1.197.179-1.062.399-1.198.399-.675.399-1.198.18-1.062.399-1.197.4-1.309.4-2.606c0-1.62.25-2.806.798-3.781.439-.782.798-1.682.798-1.999s.359-1.165.797-1.884c.526-.862.798-2.013.799-3.379.001-1.14.181-2.184.4-2.319s.4-.675.4-1.198.179-1.062.399-1.198.399-.854.399-1.596.18-1.461.399-1.597.399-.675.399-1.198.18-1.062.4-1.197.399-.658.399-1.16.349-1.228.776-1.614c.749-.678 1.494-2.874 1.106-3.262-.104-.104-.304.423-.445 1.172m100.947 13.945l-2.783 2.895 2.894-2.784c2.688-2.585 3.076-3.005 2.784-3.005-.061 0-1.364 1.303-2.895 2.894m-.886 8.484c.004.878.086 1.19.181.693s.092-1.215-.008-1.596-.178.024-.173.903m-2.895 6.387c-.97.988-1.674 1.796-1.564 1.796s.993-.808 1.963-1.796 1.673-1.797 1.563-1.797-.993.809-1.962 1.797m-20.852 7.674c.718.089 1.796.087 2.396-.004s.012-.164-1.305-.161-1.808.076-1.091.165m-89.878 8.708a3.86 3.86 0 0 0-.214 1.315c.019.366.192.136.386-.512.376-1.259.243-1.883-.172-.803m80.882 2.979c0 .768.082 1.083.183.699s.1-1.013 0-1.398-.183-.069-.183.699m10.265 21.856l-1.375 1.497 1.497-1.375c1.393-1.281 1.68-1.619 1.375-1.619-.066 0-.74.674-1.497 1.497m-14.762 5.988l-2.182 2.296 2.195-2.06c1.208-1.133 2.555-2.145 2.994-2.249.787-.187.787-.19-.013-.236-.506-.029-1.635.819-2.994 2.249m-3.405 4.192l-1.173 1.297 1.298-1.172c.713-.645 1.297-1.229 1.297-1.298 0-.308-.329-.036-1.422 1.173" fill="#cc3434"/><path d="M226.747 8.559c0 1.414-.18 2.683-.4 2.818-.234.145-.399 2.458-.399 5.589s-.165 5.444-.399 5.589c-.821.507-.483 6.749.399 7.385.439.317.799.856.799 1.198s.359.881.798 1.197.798.818.798 1.115c0 1.309 3.164 2.375 4.144 1.395.489-.489 3.998-1.711 4.915-1.711.481 0 .985-.18 1.121-.399.683-1.106 3.393.38 3.393 1.859 0 1.185 3.072 3.862 6.387 5.565 1.647.846 3.054 1.678 3.127 1.848s.444.308.824.308 1.207.539 1.838 1.198 1.355 1.198 1.609 1.198.788.359 1.185.798.919.807 1.16.817c1.201.049 4.035 3.548 3.531 4.359-.6.963-.652 2.01-.1 2.01.22 0 .399.996.399 2.213 0 2.268 1.137 4.174 2.489 4.174.291 0 .788.359 1.104.798s.885.799 1.262.799.798.179.934.399 1.188.399 2.339.399 2.33.225 2.621.499c.423.399.565.399.712 0 .216-.589 2.911-.682 2.911-.1 0 .22.282.399.627.399 1.43 0 2.59 3.253 1.311 3.679-.341.114-.338.372.009 1.022.389.726.333 1.003-.342 1.678-.444.444-.807.959-.807 1.144s-.359.663-.798 1.06-.799.931-.799 1.185-.539.979-1.198 1.61c-2.573 2.465-1.258 8.271 1.927 8.506.916.067 1.666.292 1.666.499s.449.376.996.376c.658 0 1.69.679 3.035 1.996 1.121 1.098 2.201 1.996 2.399 1.996s1.24.898 2.315 1.996 2.242 1.996 2.593 1.996.638.18.638.399.458.399 1.017.399c1.12 0 2.975 1.607 2.975 2.577 0 .351.345.617.799.617.439 0 .798.18.798.399s.359.399.799.399.798.18.798.4.359.399.798.399.799.179.799.399.277.399.615.399 1.001.359 1.473.799 1.092.798 1.38.798.524.18.524.399.359.399.798.399.799.18.799.4.898.399 1.996.399 1.996.181 1.996.402c0 .544-11.457 11.973-12.002 11.973-.638 0-1.571 1.049-1.571 1.768 0 .345-.18.627-.399.627-.579 0-.467 2.074.156 2.894.292.385.825.699 1.185.699s.655.18.655.399.594.399 1.322.399c.77 0 1.679.334 2.178.799.472.439 1.134.798 1.473.798s.615.18.615.399.36.4.799.4.798.179.798.399.359.399.799.399.798.18.798.399.359.399.798.399.799.18.799.4.359.399.798.399.799.18.799.399.359.399.798.399.798.18.798.4.36.399.799.399c.646 0 .798.266.798 1.397 0 .768-.179 1.397-.399 1.397s-.399.359-.399.799-.18.798-.399.798-.4.359-.4.798-.179.799-.399.799-.399.359-.399.798-.18.799-.399.799-.399.319-.399.71-.36.969-.799 1.286c-.817.589-1.118 2.395-.399 2.395.22 0 .399 1.006.399 2.235 0 1.968.143 2.368 1.198 3.354.659.615 1.197 1.366 1.197 1.668s.36.809.799 1.126.798.823.798 1.126.539 1.053 1.198 1.668 1.197 1.406 1.197 1.757c0 .479.4.639 1.597.639.879 0 1.597.179 1.597.399s.236.399.524.399.909.359 1.38.798 1.134.799 1.473.799.615.179.615.399.359.399.798.399.799.18.799.399.359.4.798.4.799.179.799.399.359.399.798.399.799.18.799.399.359.399.798.399.798.18.798.4.36.399.799.399.798.179.798.399.359.399.799.399.798.18.798.399.359.4.798.4.799.179.799.399.359.399.798.399.799.18.799.399.359.399.798.399.798.18.798.4.36.399.799.399.798.179.798.399.359.399.799.399c2.073 0 .092 1.338-7.898 5.333-15.04 7.521-15.897 8.047-15.443 9.477.121.381.032.807-.196.949-.863.533-.351 1.7 1.58 3.603 1.146 1.128 1.996 2.325 1.996 2.809 0 1.057 1.578 2.58 2.672 2.58.856 0 1.587.675 2.313 2.138.358.721.833.875 3.007.977 1.702.08 2.855.352 3.383.799 1.231 1.04 2.507 1.675 3.367 1.675.429 0 .891.179 1.027.399s.675.399 1.198.399 1.068.191 1.213.424c.417.676-1.035 1.971-2.209 1.971-.59 0-2.836.898-4.992 1.996-2.285 1.163-4.454 1.996-5.199 1.996-.708 0-2.664.713-4.382 1.597-1.708.878-3.428 1.597-3.824 1.597s-.831.179-.967.399-.557.399-.936.399c-2.056 0-10.84 5.159-10.84 6.366 0 1.276 4.379 4.812 5.959 4.812.429 0 .891.18 1.027.399s.655.399 1.154.399 1.031.123 1.182.274c.479.478 3.213 1.311 4.327 1.317.591.003 1.194.2 1.341.438.298.482-1.706 2.762-2.428 2.762-.695 0-1.9 1.485-1.6 1.971.145.233 1.05.424 2.012.424s1.848.16 1.969.355c.207.335 1.218.571 4.72 1.1.825.124 1.599.387 1.72.583s1.35.357 2.73.357c3.437 0 5.481 2.035 2.534 2.522a44.91 44.91 0 0 0-2.994.643l-3.194.763c-.823.184-2.795.992-4.381 1.796-1.671.847-3.467 1.462-4.268 1.462-.761 0-1.495.179-1.631.399s-.544.399-.907.399c-.942 0-7.38 3.2-7.962 3.958-1.071 1.394-.303 4.156 1.674 6.012.593.558 1.008 1.389 1.008 2.022 0 .591.334 1.503.743 2.026 1.178 1.508 2.45 4.229 2.45 5.239 0 1.115 1.039 2.699 1.771 2.699.29 0 .752.272 1.028.604s1.621 1.138 2.99 1.791 2.714 1.46 2.99 1.792.72.604.989.604.813.359 1.21.798 1.134.798 1.636.798 1.023.18 1.159.4.64.4 1.121.4 1.442.348 2.136.771 1.861.826 2.595.896c2.63.253.432 5.917-2.296 5.917-1.993 0-1.22 3.991.966 4.985.586.266.867.752.867 1.497 0 .959.156 1.103 1.198 1.103.983 0 1.197.164 1.197.918 0 1.227-.718 1.876-2.076 1.876-.614 0-1.117.18-1.117.399s-.719.399-1.597.399-1.597.18-1.597.4-.718.399-1.597.399-1.597.179-1.597.399-.319.399-.71.399-.969.359-1.286.799c-.478.663-1.033.798-3.281.798-1.538 0-2.707.172-2.707.399 0 .22-.359.399-.798.399s-.798.18-.798.4-.32.399-.711.399-.969.359-1.285.798-.895.799-1.286.799-.71.179-.71.399-.36.399-.799.399-.798.18-.798.399-.359.399-.799.399-.798.18-.798.4-.32.399-.71.399-.969.359-1.286.798c-.614.852-3.992 1.19-3.992.399 0-.219-.359-.399-.798-.399s-.799-.179-.799-.399-.539-.399-1.197-.399-1.198-.18-1.198-.399-.269-.4-.599-.4-.599.18-.599.4-.275.399-.612.399c-.798 0-3.38 2.587-3.38 3.386s5.784 6.594 6.581 6.594c1.062 0 .655 1.573-.779 3.007-.761.761-1.62 1.384-1.908 1.384s-.783.359-1.099.798-.895.799-1.286.799c-.595 0-.71.357-.71 2.195 0 2.174.012 2.196 1.197 2.196.659 0 1.198.18 1.198.399s.32.399.71.399.969.36 1.286.799.895.798 1.286.798c.523 0 .71.316.71 1.198 0 .659.18 1.197.399 1.197s.399.36.399.799c0 .499.267.798.711.798.39 0 .969.36 1.285.799s.818.798 1.115.798c.644 0 1.68.967 1.68 1.568 0 .236-.199.428-.442.428s.117.521.799 1.158 1.24 1.446 1.24 1.797c0 .478.399.638 1.596.638 1.154 0 1.597.166 1.597.599 0 .329-.179.599-.399.599s-.399.359-.399.798-.18.798-.399.798-.4.36-.4.799-.179.798-.399.798-.399.359-.399.799-.18.798-.399.798-.399.359-.399.798-.18.799-.4.799-.399.459-.399 1.02c0 .719-.706 1.713-2.395 3.371-1.317 1.293-2.395 2.566-2.395 2.828 0 .69-1.252 1.536-2.296 1.55-.494.007-.898.193-.898.412s-.898.4-1.996.4-1.996.179-1.996.399-.539.399-1.197.399-1.198.18-1.198.399-.463.399-1.029.399c-.679 0-1.552.544-2.564 1.597-.844.878-1.734 1.597-1.978 1.597-.524 0-3.211 2.61-3.211 3.118 0 .193.359.676.798 1.074s.798.924.798 1.172 1.078 1.516 2.396 2.82 2.395 2.547 2.395 2.763.584 1.008 1.297 1.76c.847.892 1.124 1.43.799 1.549-.284.103-.499.858-.499 1.745 0 .86-.18 1.564-.4 1.564s-.399.359-.399.798-.179.799-.399.799-.399.808-.399 1.796.179 1.796.399 1.796a.4.4 0 0 0 .399-.399c0-.219.359-.399.799-.399s.798-.18.798-.399.359-.399.798-.399.799-.136.799-.302c0-.314 1.949-1.285 2.525-1.258.181.008.651-.356 1.045-.809s1.008-.825 1.367-.825.652-.167.652-.372.35-.484.778-.619c1.268-.403-.633-3.4-2.157-3.4-.351 0-.617-.345-.617-.799 0-.465-.267-.798-.639-.798-.351 0-1.141-.539-1.757-1.198s-1.311-1.197-1.547-1.197c-.55 0-5.638-4.951-5.638-5.486 0-.221.539-.51 1.197-.642s1.198-.476 1.198-.764c0-1.186 2.999-3.887 4.315-3.887.701 0 1.274-.179 1.274-.399s.898-.399 1.996-.399 1.996-.18 1.996-.399.455-.399 1.011-.399c1.026 0 3.779-2.34 3.779-3.212 0-.244.719-1.134 1.597-1.978s1.597-1.738 1.597-1.986c0-.565 2.079-3.204 2.523-3.204.423 0 1.468-1.042 1.472-1.468.002-.181.893-1.226 1.979-2.324s1.984-2.235 1.993-2.526.735-1.221 1.614-2.065c2.427-2.332 2.248-2.977-1.996-7.186-1.976-1.959-3.593-3.838-3.593-4.176s-.18-.614-.399-.614-.4-.32-.4-.71-.359-.969-.798-1.286-.798-.895-.798-1.286-.18-.71-.4-.71-.399-.359-.399-.798-.135-.8-.299-.802c-.442-.004-1.298-2.014-1.298-3.047 0-.492-.179-1.006-.399-1.141-.519-.321-.519-3.671 0-3.992.22-.136.399-.698.399-1.25 0-1.209.848-2.144 1.944-2.144.442 0 .915-.179 1.05-.399s.556-.399.934-.399.946-.359 1.262-.798.895-.799 1.286-.799.71-.179.71-.399.539-.399 1.198-.399 1.197-.18 1.197-.399.539-.4 1.198-.4 1.197-.179 1.197-.399.539-.399 1.198-.399 1.198-.18 1.198-.399.718-.399 1.596-.399 1.597-.18 1.597-.4.719-.399 1.597-.399 1.597-.179 1.597-.399.539-.399 1.198-.399 1.197-.18 1.197-.399.359-.4.799-.4.798-.179.798-.399.32-.399.71-.399.969-.359 1.286-.798.867-.799 1.224-.799.987-.374 1.401-.831c.869-.961 3.28-2.062 3.805-1.737.196.121.356-.932.356-2.339 0-2.299.122-2.687 1.198-3.812.659-.69 1.198-1.525 1.198-1.856s.179-.603.399-.603.399-.883.399-1.962c0-1.771.156-2.11 1.597-3.475 1.792-1.699 1.959-2.147.798-2.147-.439 0-.798-.159-.798-.353s-.315-.452-.699-.574-1.148-.481-1.696-.798a28.76 28.76 0 0 0-2.196-1.111c-1.66-.739-4.531-2.689-5.932-4.028-.645-.616-1.471-1.12-1.837-1.12s-1.408-.36-2.316-.799-1.952-.798-2.318-.798c-.801 0-5.877-1.678-6.16-2.036-.11-.139-1.008-.661-1.996-1.161-1.862-.943-3.591-2.623-3.592-3.49-.001-.274-.15-.499-.332-.499s-.587-.494-.898-1.098-.656-1.187-.766-1.297c-.472-.471-1.198-2.032-1.198-2.577 0-.587-1.299-3.139-2.096-4.119-.227-.28-.343-.55-.257-.599 1.497-.861 2.089-1.09 2.846-1.101.497-.007 1.977-.546 3.289-1.197s2.536-1.185 2.72-1.185 1.446-.526 2.804-1.169c4.678-2.213 10.317-3.748 15.744-4.286 1.152-.115 2.095-.371 2.095-.57s.719-.363 1.597-.363 1.597-.179 1.597-.399.539-.399 1.198-.399c1.63 0 1.584-1.096-.1-2.407-2.418-1.883-9.861-5.357-10.375-4.843-.568.568-2.163.609-2.499.064-.136-.219-.602-.399-1.036-.399s-1.277-.305-1.873-.677c-1.523-.953-1.507-.933-1.018-1.241.472-.297 2.249-3.3 2.05-3.464-.734-.606-2.194-1.005-3.674-1.005-1.07 0-2.391-.326-3.232-.799-.782-.439-1.68-.798-1.996-.798s-1.214-.359-1.996-.798-1.658-.799-1.947-.799c-.762 0-3.043-1.196-3.043-1.597s2.281-1.596 3.043-1.596c.289 0 1.165-.36 1.947-.799s1.693-.798 2.024-.798c.737 0 3.617-1.436 4.916-2.45.524-.409 1.335-.744 1.802-.744 1.028 0 5.012-1.419 5.581-1.988a1.66 1.66 0 0 1 1.026-.405c.472.001 13.11-6.035 13.963-6.67.395-.293-2.297-2.638-3.839-3.343-.919-.421-1.784-.946-1.92-1.167s-1.016-.751-1.955-1.179-1.938-1.055-2.22-1.396-.727-.618-.989-.618-.991-.539-1.622-1.198-1.356-1.197-1.61-1.197-.787-.36-1.185-.799-.93-.798-1.185-.798-.978-.539-1.609-1.198-1.356-1.197-1.61-1.197-.787-.36-1.185-.799-.909-.798-1.138-.798c-.474 0-2.654-1.998-2.654-2.432 0-.325 7.166-3.956 7.805-3.956.228 0 3.991-1.796 8.363-3.992s8.133-3.992 8.359-3.992c1.877 0 7.386-3.472 7.397-4.662.012-1.216-2.692-3.721-4.016-3.721-.217 0-1.099-.718-1.96-1.597s-1.802-1.596-2.092-1.596-.785-.36-1.102-.799-.895-.798-1.285-.798-.711-.18-.711-.399-.319-.4-.71-.4-.969-.359-1.286-.798c-.338-.469-1.033-.798-1.685-.798-.61 0-1.109-.18-1.109-.4s-.359-.399-.798-.399-.799-.179-.799-.399-.359-.399-.798-.399-.799-.18-.799-.399-.359-.4-.798-.4-.798-.179-.798-.399-.36-.399-.799-.399-.798-.18-.798-.399-.36-.399-.799-.399-.798-.18-.798-.4-.499-.399-1.11-.399c-.651 0-1.347-.329-1.684-.798-.317-.439-.896-.799-1.286-.799s-.711-.179-.711-.399-.359-.399-.798-.399-.798-.18-.798-.399-.36-.399-.799-.399-.798-.18-.798-.4-.359-.399-.799-.399-.798-.179-.798-.399-.359-.399-.798-.399-.799-.18-.799-.399-.359-.4-.798-.4-.799-.179-.799-.399-.359-.399-.798-.399-.798-.159-.798-.353-.401-.457-.892-.585c-.706-.185-.789-.336-.399-.726.271-.27.492-.995.492-1.609s.18-1.118.399-1.118.4-.539.4-1.198.179-1.197.399-1.197.399-.27.399-.599-.18-.599-.399-.599-.399-.629-.399-1.397.134-1.399.299-1.401c.359-.003 1.297-1.936 1.297-2.671 0-.285.18-.519.4-.519s.399-.359.399-.799.18-.798.399-.798.399-.359.399-.798.18-.799.399-.799.4-.269.4-.599-.18-.598-.4-.598-.399-.283-.399-.628c0-.806-.961-1.768-1.768-1.768-.345 0-.627-.179-.627-.399s-.719-.399-1.597-.399-1.597-.18-1.597-.399-.718-.399-1.596-.399-1.597-.18-1.597-.4-.449-.399-.998-.399-.998.18-.998.399-.449.4-.998.4-.998-.18-.998-.4-.496-.399-1.102-.399c-2.314 0-2.284-1.289.088-3.758 1.178-1.226 2.345-2.23 2.593-2.23s1.873-1.437 3.61-3.193 3.36-3.194 3.605-3.194c.719 0 1.585-1.075 1.585-1.967 0-.527-.258-.827-.71-.827-.391 0-.969-.36-1.286-.799s-.823-.798-1.126-.798-1.053-.539-1.668-1.198-1.406-1.197-1.757-1.197-.639-.18-.639-.4-.359-.399-.798-.399-.798-.179-.798-.399-.32-.399-.711-.399-.969-.36-1.285-.799-.856-.798-1.198-.798-.881-.359-1.198-.798-.855-.799-1.197-.799-.881-.359-1.198-.798-.895-.799-1.286-.799-.71-.179-.71-.399-.319-.399-.71-.399-.969-.359-1.286-.798-.855-.799-1.197-.799-.882-.359-1.198-.798-.855-.799-1.198-.799-.881-.359-1.197-.798-.856-.798-1.198-.798-.881-.36-1.197-.799-.896-.798-1.286-.798c-.424 0-.71-.297-.71-.735 0-.821-1.523-1.66-3.013-1.66-.539 0-.979-.18-.979-.4s-.719-.399-1.597-.399-1.597-.18-1.597-.399-.278-.399-.617-.399c-1.594 0-2.903-2.198-1.878-3.151.967-.9 1.697-2.279 1.697-3.208 0-.429.179-.891.399-1.027s.399-.674.399-1.197.18-1.062.399-1.198.399-.513.399-.84c0-.842 1.487-2.194 3.673-3.342 4.375-2.297 2.824-5.199-2.779-5.199-1.124 0-2.155-.18-2.291-.399s-1.034-.399-1.996-.399-1.86-.18-1.996-.4-1.034-.399-1.996-.399-1.86-.179-1.996-.399-.64-.403-1.121-.408-1.324-.36-1.873-.79-1.222-.784-1.497-.789c-1.595-.028-.033-4.282 2.044-5.566 1.118-.691 2.647-2.861 2.647-3.758 0-.413-3.947-4.258-4.37-4.258-.237 0-2.297-1.841-4.58-4.092-14.474-14.272-13.656-13.639-17.497-13.536-1.597.042-2.695-.093-2.695-.332 0-1.052-1.666-.145-4.391 2.392-5.705 5.311-9.773 4.198-8.16-2.231 1.049-4.184-.384-18.129-1.863-18.129-.196 0-.356 1.157-.356 2.571m-33.134 24.575c0 .219-.898.399-1.996.399s-1.996.18-1.996.399-.539.399-1.198.399-1.197.18-1.197.4-.36.399-.799.399-.798.179-.798.399-.539.399-1.198.399-1.197.18-1.197.399-.36.4-.799.4-.798.179-.798.399-.36.399-.799.399-.798.18-.798.399-.359.399-.798.399-.799.18-.799.4-.359.399-.798.399-.799.179-.799.399-.359.399-.798.399-.798.18-.798.399-.32.4-.711.4-.969.359-1.286.798-.855.798-1.197.798-.881.36-1.198.799-.855.798-1.197.798-.881.359-1.198.799-.806.798-1.088.798c-.612 0-16.876 16.175-16.876 16.783 0 .232-1.257 1.661-2.794 3.177s-2.795 2.962-2.795 3.214-.539.961-1.197 1.576-1.198 1.289-1.198 1.497c0 .546-1.186 2.84-1.601 3.097-.193.119-1.09 1.735-1.992 3.59s-1.797 3.47-1.99 3.589-1.266 2.082-2.385 4.362-2.299 4.365-2.622 4.633-.588.704-.588.968-.455.908-1.011 1.431-1.734 2.435-2.616 4.251-1.77 3.402-1.97 3.526-.915 1.379-1.588 2.789-1.397 2.671-1.609 2.802-.716.96-1.121 1.843-1.169 1.82-1.698 2.083c-1.741.865-.738 4.556 1.258 4.627.342.012 1.241.737 1.996 1.61s1.623 1.592 1.929 1.597 1.952 1.446 3.66 3.202 3.302 3.194 3.543 3.194c.614 0 6.413 5.863 6.413 6.484 0 .281.359.734.798 1.008s.799.817.799 1.206.359.966.798 1.282.799.823.799 1.126.538 1.053 1.197 1.669 1.198 1.33 1.198 1.588.718 1.161 1.597 2.004 1.596 1.737 1.596 1.984 1.258 1.69 2.795 3.206 2.794 2.962 2.794 3.214.539.961 1.198 1.576 1.197 1.367 1.197 1.669.36.809.799 1.126.798.855.798 1.197.36.882.799 1.198.798.855.798 1.198.359.881.798 1.197.799.895.799 1.286.179.71.399.71.399.32.399.711.36.969.799 1.285.798.856.798 1.198.359.881.798 1.197.799.896.799 1.286.179.71.399.71.399.539.399 1.198.18 1.198.399 1.198.4.539.4 1.197.179 1.198.399 1.198.399.359.399.798.18.799.399.799.399.539.399 1.197.18 1.198.4 1.198.399.539.399 1.198.18 1.197.399 1.197.399.539.399 1.198.18 1.197.399 1.197.4.36.4.799.179.798.399.798.399.539.399 1.198.18 1.197.399 1.197.399.36.399.799.18.798.4.798.399.539.399 1.198.18 1.197.399 1.197.399.36.399.799.18.798.399.798.4.359.4.799.179.798.399.798.399.539.399 1.198.18 1.197.399 1.197.4.719.4 1.597.179 1.597.399 1.597.399.718.399 1.597.18 1.596.399 1.596.399.539.399 1.198.18 1.198.4 1.198.399.718.399 1.596.179 1.597.399 1.597.399.821.399 1.825c0 1.049.242 2.067.57 2.395.645.645 3.422.784 3.422.171 0-.219.539-.399 1.198-.399s1.197-.179 1.197-.399.719-.399 1.597-.399 1.597-.18 1.597-.399.539-.4 1.198-.4 1.197-.179 1.197-.399.539-.399 1.198-.399 1.197-.18 1.197-.399.719-.399 1.597-.399 1.597-.18 1.597-.4.539-.399 1.198-.399 1.197-.179 1.197-.399.359-.399.799-.399.798-.18.798-.399.359-.4.798-.4.799-.179.799-.399.359-.399.798-.399.799-.18.799-.399.539-.399 1.197-.399 1.198-.18 1.198-.4.679-.399 1.509-.399c1.05 0 1.683-.242 2.084-.798.316-.439.855-.799 1.197-.799s.881-.359 1.198-.798.823-.798 1.125-.798 1.054-.539 1.669-1.198 1.367-1.198 1.669-1.198.809-.359 1.126-.798.823-.798 1.125-.798 1.054-.539 1.669-1.198 1.334-1.198 1.597-1.198.981-.539 1.597-1.197 1.366-1.198 1.669-1.198.809-.359 1.125-.798.823-.799 1.126-.799 1.053-.539 1.669-1.197 1.327-1.198 1.583-1.198 1.339-.898 2.409-1.996 2.138-1.996 2.376-1.996c.666 0 5.608-5.095 5.608-5.781 0-.333.179-.606.399-.606s.399-.32.399-.71.359-.97.798-1.286.799-.856.799-1.198.359-.881.798-1.197.799-.856.799-1.198.359-.881.798-1.198.798-.819.798-1.117.719-1.232 1.597-2.076 1.597-1.818 1.597-2.164.18-.631.399-.631.399-.319.399-.71.36-.969.799-1.286.798-.855.798-1.197.359-.881.799-1.198.798-.855.798-1.197.359-.881.798-1.198.799-.895.799-1.286.179-.71.399-.71.399-.359.399-.798.18-.799.399-.799.4-.359.4-.798.179-.799.399-.799.399-.287.399-.638.539-1.142 1.198-1.757c1.251-1.168 1.885-8.31.798-8.982-.22-.136-.399-1.224-.399-2.419s.179-2.172.399-2.172.399-.539.399-1.197.18-1.198.399-1.198.4-.528.4-1.174.179-1.285.399-1.421.399-1.044.399-2.019-.18-1.773-.399-1.773-.399-.359-.399-.798-.18-.799-.4-.799-.399-.359-.399-.798-.179-.799-.399-.799-.399-.539-.399-1.197-.18-1.198-.399-1.198-.4-.359-.4-.798-.179-.799-.399-.799-.399-.359-.399-.798-.18-.799-.399-.799-.399-.359-.399-.798-.18-.798-.4-.798-.399-.36-.399-.799-.179-.798-.399-.798-.399-.359-.399-.799-.18-.798-.399-.798-.4-.359-.4-.798-.179-.799-.399-.799-.399-.359-.399-.798-.18-.799-.399-.799-.399-.319-.399-.71-.36-.969-.799-1.286-.798-.895-.798-1.285-.18-.711-.399-.711-.4-.359-.4-.798-.179-.798-.399-.798-.399-.32-.399-.711-.359-.969-.798-1.285-.799-.895-.799-1.286-.179-.71-.399-.71c-.233 0-.399-1.331-.399-3.194s-.167-3.194-.399-3.194c-.22 0-.4-.319-.4-.71s-.359-.969-.798-1.286-.798-.855-.798-1.197-.36-.881-.799-1.198-.798-.823-.798-1.125-.539-1.054-1.198-1.669-1.197-1.334-1.197-1.597-.539-.982-1.198-1.597-1.198-1.366-1.198-1.669-.359-.809-.798-1.125-.798-.815-.798-1.108-.539-1.106-1.196-1.808-1.197-1.473-1.198-1.713-.361-.762-.8-1.16c-.477-.432-.798-1.229-.798-1.983 0-.88-.362-1.607-1.198-2.408-.659-.631-1.198-1.345-1.198-1.587s-.898-1.324-1.996-2.405-1.996-2.161-1.996-2.399-.718-1.135-1.597-1.992-1.596-1.759-1.596-2.002-.539-.96-1.198-1.591-1.198-1.525-1.198-1.986c0-.478-.858-1.684-1.996-2.804-1.097-1.082-1.996-2.149-1.996-2.371 0-.782-5.758-6.212-6.587-6.212-.484 0-1.954-1.144-3.592-2.795-2.225-2.242-3.014-2.794-3.99-2.794-.997 0-1.829-.615-4.593-3.393-3.117-3.134-4.391-4.002-4.391-2.994" fill="#96a1a8"/></svg>