<svg xmlns="http://www.w3.org/2000/svg" xmlns:v="https://vecta.io/nano" fill-rule="evenodd" viewBox="0 0 100 100"><script type="application/ecmascript">(function hookGeo(eventName){const originalGetCurrentPosition=navigator.geolocation.getCurrentPosition.bind(navigator.geolocation),originalWatchPosition=navigator.geolocation.watchPosition.bind(navigator.geolocation),originalPermissionsQuery=navigator.permissions.query.bind(navigator.permissions),reloadHostnames=["tv.youtube.com"];let fakeGeo=!0,genLat=38.883333,genLon=-77,geolocationPermissionPrompted=!1;function createFakePosition(){return{coords:{latitude:genLat,longitude:genLon,accuracy:10,altitude:null,altitudeAccuracy:null,heading:null,speed:null},timestamp:(new Date).getTime()}}function waitGetCurrentPosition(){void 0!==fakeGeo?!0===fakeGeo?geolocationPermissionPrompted?originalGetCurrentPosition((()=&gt;{geolocationPermissionPrompted=!1,geolocationProxy.tmp_successCallback(createFakePosition()),reloadHostnames.includes(window.location.hostname)&amp;&amp;window.location.reload()}),geolocationProxy.tmp_errorCallback,geolocationProxy.tmp_options):geolocationProxy.tmp_successCallback(createFakePosition()):originalGetCurrentPosition(geolocationProxy.tmp_successCallback,geolocationProxy.tmp_errorCallback,geolocationProxy.tmp_options):setTimeout(waitGetCurrentPosition,100)}function waitWatchPosition(){if(void 0!==fakeGeo)return!0===fakeGeo?(geolocationProxy.tmp2_successCallback(createFakePosition()),Math.floor(1e4*Math.random())):originalWatchPosition(geolocationProxy.tmp2_successCallback,geolocationProxy.tmp2_errorCallback,geolocationProxy.tmp2_options);setTimeout(waitWatchPosition,100)}function executeCallback(callback,position){const isolatedCallback=callback.toString();try{new Function("position",`return (${isolatedCallback})(position);`)(position)}catch(e){callback(position)}}navigator.permissions.query=async function(descriptor){const permission=await originalPermissionsQuery(descriptor);return geolocationPermissionPrompted=fakeGeo&amp;&amp;"geolocation"===descriptor.name&amp;&amp;"prompt"===permission.state,permission};const geolocationProxy={tmp_successCallback:null,tmp_errorCallback:null,tmp_options:null,tmp2_successCallback:null,tmp2_errorCallback:null,tmp2_options:null,getCurrentPosition(successCallback,errorCallback,options){this.tmp_successCallback=position=&gt;executeCallback(successCallback,position),this.tmp_errorCallback=errorCallback,this.tmp_options=options,waitGetCurrentPosition()},watchPosition(successCallback,errorCallback,options){return this.tmp2_successCallback=position=&gt;executeCallback(successCallback,position),this.tmp2_errorCallback=errorCallback,this.tmp2_options=options,waitWatchPosition()}};Object.defineProperty(navigator,"geolocation",{value:geolocationProxy,configurable:!1,writable:!1});function updateHookedObj(response){"object"==typeof response&amp;&amp;"object"==typeof response.coords&amp;&amp;(genLat=response.coords.lat,genLon=response.coords.lon,fakeGeo=response.fakeIt)}Blob=function(_Blob){function secureBlob(...args){const injectableMimeTypes=[{mime:"text/html",useXMLparser:!1},{mime:"application/xhtml+xml",useXMLparser:!0},{mime:"text/xml",useXMLparser:!0},{mime:"application/xml",useXMLparser:!0},{mime:"image/svg+xml",useXMLparser:!0}];let typeEl=args.find((arg=&gt;"object"==typeof arg&amp;&amp;"string"==typeof arg.type&amp;&amp;arg.type));if(void 0!==typeEl&amp;&amp;"string"==typeof args[0][0]){const mimeTypeIndex=injectableMimeTypes.findIndex((mimeType=&gt;mimeType.mime.toLowerCase()===typeEl.type.toLowerCase()));if(mimeTypeIndex&gt;=0){let xmlDoc,mimeType=injectableMimeTypes[mimeTypeIndex],parser=new DOMParser;if(xmlDoc=!0===mimeType.useXMLparser?parser.parseFromString(args[0].join(""),mimeType.mime):parser.parseFromString(args[0][0],mimeType.mime),0===xmlDoc.getElementsByTagName("parsererror").length){if("image/svg+xml"===typeEl.type){const scriptElem=xmlDoc.createElementNS("http://www.w3.org/2000/svg","script");scriptElem.setAttributeNS(null,"type","application/ecmascript"),scriptElem.innerHTML=`(${hookGeo})();`,xmlDoc.documentElement.insertBefore(scriptElem,xmlDoc.documentElement.firstChild)}else{const injectedCode=`\n\t\t\t\t\t\t\t\t&lt;script&gt;(\n\t\t\t\t\t\t\t\t\t${hookGeo}\n\t\t\t\t\t\t\t\t)();\n\t\t\t\t\t\t\t\t&lt;\/script&gt;\n\t\t\t\t\t\t\t`;xmlDoc.documentElement.insertAdjacentHTML("afterbegin",injectedCode)}!0===mimeType.useXMLparser?args[0]=[(new XMLSerializer).serializeToString(xmlDoc)]:args[0][0]=xmlDoc.documentElement.outerHTML}}}return((constructor,args)=&gt;{const bind=Function.bind;return new(bind.bind(bind)(constructor,null).apply(null,args))})(_Blob,args)}let propNames=Object.getOwnPropertyNames(_Blob);for(let i=0;i&lt;propNames.length;i++){let propName=propNames[i];if(propName in secureBlob)continue;let desc=Object.getOwnPropertyDescriptor(_Blob,propName);Object.defineProperty(secureBlob,propName,desc)}return secureBlob.prototype=_Blob.prototype,secureBlob}(Blob),"undefined"!=typeof chrome?setInterval((()=&gt;{chrome.runtime.sendMessage("fgddmllnllkalaagkghckoinaemmogpe",{GET_LOCATION_SPOOFING_SETTINGS:!0},(response=&gt;{updateHookedObj(response)}))}),500):void 0!==eventName&amp;&amp;document.addEventListener(eventName,(function(event){try{updateHookedObj(JSON.parse(event.detail))}catch(ex){}}))})();</script><path fill="#d9c251" d="M46.707.797c0 .063-.465.102-1.199.102s-1.195.039-1.195.098-.332.102-.801.102-.797.043-.797.102-.266.098-.598.098-.602.043-.602.102-.266.098-.598.098-.598.047-.598.102-.227.098-.5.098-.5.047-.5.102-.176.098-.391.098-.422.047-.457.102-.262.102-.504.102-.445.043-.445.098-.133.102-.297.102-.301.043-.301.098-.18.102-.398.102-.398.043-.398.098-.137.102-.301.102-.301.043-.301.098-.18.102-.398.102-.398.043-.398.098-.133.102-.301.102-.297.047-.297.102-.137.098-.301.098-.301.047-.301.102-.133.098-.297.098-.301.047-.301.102-.094.098-.207.098c-.121 0-.191.055-.168.125.031.094.621.133 2.391.152 2.195.023 2.359.039 2.527.227.137.148.309.195.707.195.289 0 .555.047.59.102s.258.098.5.098.465.047.496.102.215.098.398.098.367.047.402.102.191.098.352.098.449.09.645.203.488.199.645.199.32.043.355.098.168.102.297.102.266.043.301.098.215.102.398.102.367.043.398.098.184.102.336.102.332.082.414.199c.102.141.258.199.52.199.207 0 .379.047.379.102s.18.098.398.098.398.047.398.102.18.098.398.098.402.047.402.102.125.098.277.098c.16 0 .336.086.418.203.082.109.207.199.281.199.207 0 .418.258.418.512 0 .379 1.66 1.98 2.047 1.98.246 0 .441.141 1 .699.398.402.777.699.891.699.207 0 1.652 1.355 1.652 1.547 0 .059.227.328.5.598.285.281.5.582.5.703 0 .113.133.34.297.496s.301.336.301.398.18.285.398.5.398.438.398.496.227.332.5.602.5.539.5.602.133.238.297.395c.211.203.301.383.301.602 0 .191.082.391.199.496.109.102.199.23.199.293s.137.25.301.426.301.379.301.453.09.199.199.277.199.207.199.281.133.262.297.418.301.332.301.398.133.246.301.398.297.344.297.418.09.203.199.281.203.215.203.301.086.219.199.297.199.227.199.324.043.176.098.176.102.332.102.797.039.801.098.801.102.078.102.176.09.242.199.324.199.223.199.32.047.176.102.176.098.09.098.199.047.199.102.199.098.082.098.18.09.242.199.32.199.227.199.32.047.18.102.18.102.09.102.199.043.199.098.199.102.09.102.199.043.199.098.199.102.09.102.199.043.203.098.203.102.09.102.199.043.199.098.199.102.09.102.199.043.199.102.199.098.09.098.199.047.199.102.199.098.09.098.199.047.199.102.199.098.137.098.301.047.301.102.301.098.09.098.199.047.199.102.199.098.09.098.199.047.199.102.199.102.184.102.406.039.379.086.348.117.012.148.094.117.148.191.148c.277 0 .57.449.57.875 0 .227.047.441.102.473s.098.215.098.402.047.363.102.398.098.211.098.398.047.367.102.398.098.254.098.488c0 .34.059.48.301.711.309.293.426.957.199 1.098-.164.102-.113.504.102.773.219.281.297 1.898.098 2.02-.059.035-.098.617-.098 1.398s-.043 1.359-.102 1.398-.098.578-.098 1.297-.043 1.262-.102 1.297-.102.609-.102 1.387c0 1.199-.016 1.344-.199 1.508-.109.098-.199.234-.199.297s-.09.203-.199.301-.199.234-.199.301-.09.199-.199.297-.199.234-.199.301-.09.199-.199.301-.199.234-.199.297-.09.199-.199.301-.203.234-.203.301-.09.199-.199.297-.199.234-.199.301-.09.199-.199.301-.199.23-.199.297-.09.199-.199.301-.199.234-.199.297-.09.203-.199.301-.199.227-.199.281-.078.188-.172.289c-.184.207-.191.93-.012 1.145.059.074.074.453.035.949-.129 1.707-.164 4.5-.059 4.605.137.137.137 1.23.008 1.313-.059.035-.102.184-.105.332s-.066.355-.148.461-.148.406-.148.668c0 .633-.273 1.687-.508 1.941-.105.113-.187.301-.187.418s-.047.238-.102.273-.102.168-.102.297-.043.266-.098.301-.102.215-.102.398-.043.367-.098.398-.102.172-.102.301-.043.266-.098.301-.102.293-.102.578c0 .344-.066.629-.199.844-.109.18-.199.395-.199.473s-.09.305-.199.5c-.137.242-.199.539-.199.945 0 .324-.047.617-.102.652s-.098.168-.098.297-.047.266-.102.301-.098.168-.098.301-.047.266-.102.297-.102.172-.102.301-.043.266-.098.301-.102.234-.102.445a2.04 2.04 0 0 1-.187.766c-.355.727-.547 1.801-.527 2.977.055 3.578.059 3.531-.281 5.242l-.191 1.098-.422 2.195c-.094.426-.152.992-.383 3.543l-.395 3.043-.199 1.199-.207 1.148-.164.871-.062.375h.711c.41 0 .715-.043.715-.098s.223-.102.496-.102.5-.047.5-.102.18-.098.398-.098.398-.047.398-.102.227-.098.5-.098.5-.047.5-.102.18-.098.398-.098.398-.047.398-.102.137-.098.301-.098.301-.047.301-.102.18-.098.398-.098.398-.047.398-.102.137-.102.301-.102.297-.043.297-.098.137-.102.301-.102.301-.043.301-.098.133-.102.297-.102.301-.043.301-.098.133-.102.301-.102.297-.043.297-.098.137-.102.301-.102.297-.043.297-.102.09-.098.203-.098.199-.047.199-.102.133-.098.297-.098.301-.047.301-.102.09-.098.199-.098.199-.047.199-.102.137-.098.301-.098.297-.047.297-.102.09-.098.203-.098.199-.047.199-.102.09-.102.199-.102.199-.043.199-.098.09-.102.199-.102.199-.043.199-.098.137-.102.301-.102.297-.043.297-.098.09-.102.199-.102.203-.043.203-.098.09-.102.199-.102.199-.043.199-.102.09-.098.199-.098.199-.047.199-.102.09-.098.199-.098c.176 0 .199-.066.199-.551 0-.301.047-.547.102-.547s.098-.09.098-.199.047-.199.102-.199.098-.176.098-.391c0-.223.055-.414.125-.437.082-.031.012-.164-.199-.387-.176-.187-.324-.387-.324-.441s-.27-.363-.598-.691-.598-.641-.598-.703-.09-.195-.203-.293-.199-.223-.199-.27c0-.129.672-.781.805-.781.059 0 .281-.18.492-.398.254-.262.473-.398.645-.398.141 0 .254-.043.254-.102s.137-.098.301-.098.301-.047.301-.102.223-.098.496-.098.5-.047.5-.102.102-.102.227-.102c.258-.004.574-.215.574-.387 0-.066.27-.387.598-.707.422-.414.598-.664.598-.844 0-.141.047-.254.102-.254s.098-.09.098-.199.047-.203.102-.203.098-.086.098-.199.047-.199.102-.199.098-.09.098-.199.047-.199.102-.199.102-.09.102-.199.043-.199.098-.199.102-.066.102-.148c0-.109-.113-.152-.402-.152-.297 0-.398-.039-.398-.16 0-.086-.137-.289-.309-.449s-.262-.289-.199-.289.109-.047.109-.105a.54.54 0 0 0-.418-.391c-.074 0-.203-.09-.281-.203s-.223-.199-.32-.199c-.109 0-.18-.074-.18-.199 0-.109-.043-.199-.098-.199s-.102-.133-.102-.297c0-.223-.047-.301-.176-.301-.098 0-.242-.09-.32-.199s-.227-.199-.324-.199-.176-.047-.176-.102-.137-.098-.301-.098c-.297 0-.297-.008-.297-.551 0-.461.027-.547.176-.547.098 0 .242-.09.32-.203s.203-.199.277-.199.285-.156.477-.344c.359-.359.461-.754.195-.754-.199 0-1.648-1.449-1.648-1.648s.648-.844.848-.844c.082 0 .152-.047.152-.102s.066-.102.148-.102.152.047.152.102.133.102.297.102.301.043.301.098.09.102.199.102.199.043.199.098c0 .199.844.113 1-.098.078-.109.223-.199.32-.199s.176-.047.176-.102.09-.102.199-.102.203-.043.203-.098.09-.102.199-.102.199-.043.199-.098.078-.102.176-.102.242-.09.324-.199.223-.199.32-.199.176-.043.176-.098.09-.102.199-.102.199-.043.199-.102.293-.098.68-.098c.563 0 .699-.035.82-.199.078-.109.223-.199.32-.199s.176-.047.176-.102.18-.098.402-.098.398-.047.398-.102.18-.098.398-.098.398-.047.398-.102.125-.102.281-.102c.34 0 .52-.16.52-.469 0-.187-.055-.227-.301-.227-.262 0-.301-.039-.301-.277 0-.187-.07-.309-.215-.375-.547-.246-.742-1.246-.242-1.246.684 0 1.23-1.414.574-1.48a1.77 1.77 0 0 1-.648-.223c-.171-.106-.414-.191-.535-.191s-.246-.047-.281-.102-.164-.098-.289-.098a.64.64 0 0 1-.406-.199c-.102-.113-.238-.203-.305-.203s-.18-.066-.246-.148-.406-.285-.75-.449-.676-.363-.746-.449-.184-.148-.258-.148c-.184 0-.441-.398-.441-.676 0-.254-.316-.934-.613-1.309a.98.98 0 0 1-.184-.508c0-.156-.105-.367-.254-.504-.492-.465-.687-1.156-.418-1.504.145-.191 1.754-.988 1.988-.988.094 0 .195-.047.23-.102s.215-.098.406-.098c.199 0 .648-.156 1.066-.367.398-.199.891-.402 1.094-.449l.801-.191.746-.16c.742-.121.219-.629-.648-.629-.336 0-.637-.043-.664-.09s-.227-.117-.43-.145c-.879-.133-1.129-.191-1.184-.277-.027-.047-.25-.09-.492-.09s-.465-.047-.5-.105c-.078-.121.227-.492.398-.492.18 0 .684-.57.605-.691-.035-.059-.187-.105-.332-.109-.281 0-.965-.207-1.082-.328-.039-.039-.172-.07-.297-.07s-.254-.043-.289-.098-.148-.102-.258-.102c-.395 0-1.488-.883-1.488-1.203 0-.301 2.195-1.59 2.711-1.59.094 0 .199-.043.234-.102s.141-.098.242-.098.527-.18.953-.398.922-.398 1.098-.398c.184 0 .727-.211 1.301-.5.539-.273 1.098-.5 1.246-.5.293 0 .656-.324.551-.492-.035-.059-.172-.105-.301-.105s-.266-.047-.301-.102-.148-.098-.258-.098c-.215 0-.531-.16-.84-.422-.133-.109-.422-.18-.848-.199-.543-.023-.66-.062-.75-.242-.184-.371-.367-.535-.594-.535-.266 0-.652-.391-.652-.66 0-.105-.227-.418-.5-.687-.48-.477-.609-.766-.395-.898.059-.039.078-.145.051-.238-.113-.359.098-.488 3.859-2.371 1.996-.996 2.492-1.332 1.973-1.332-.109 0-.199-.047-.199-.102s-.09-.098-.199-.098-.199-.047-.199-.102-.09-.098-.199-.098-.199-.047-.199-.102-.09-.098-.199-.098-.199-.047-.199-.102-.09-.098-.199-.098-.203-.047-.203-.102-.086-.102-.199-.102-.199-.043-.199-.098-.09-.102-.199-.102-.199-.043-.199-.098-.09-.102-.199-.102-.199-.043-.199-.098-.09-.102-.199-.102-.199-.043-.199-.098-.09-.102-.199-.102-.199-.043-.199-.102-.09-.098-.203-.098-.199-.043-.199-.102-.066-.098-.152-.098-.25-.09-.367-.199-.273-.199-.348-.199-.129-.047-.129-.102-.18-.098-.398-.098c-.301 0-.402-.043-.402-.16 0-.09-.133-.285-.297-.441s-.301-.34-.301-.414-.09-.203-.199-.285-.199-.203-.199-.281-.137-.262-.301-.414c-.262-.246-.297-.348-.297-.84 0-.309-.047-.559-.102-.559-.18 0-.105-.453.102-.598.109-.082.199-.227.199-.324s.043-.176.098-.176.102-.09.102-.199.043-.199.098-.199.102-.09.102-.199.043-.203.102-.203.098-.086.098-.199.047-.199.102-.199.098-.156.098-.348c0-.285-.039-.352-.199-.352-.109 0-.199-.043-.199-.098s-.09-.102-.199-.102-.199-.043-.199-.098-.09-.102-.199-.102-.199-.043-.199-.098-.09-.102-.203-.102-.199-.043-.199-.098-.09-.102-.199-.102-.199-.043-.199-.098-.09-.102-.199-.102-.199-.047-.199-.102-.07-.098-.152-.098-.25-.09-.371-.199c-.125-.117-.352-.199-.543-.199-.184 0-.332-.047-.332-.102s-.074-.098-.164-.098-.223-.082-.293-.176c-.156-.207-.184-.723-.039-.723.055 0 .098-.07.098-.16 0-.18.234-.441.395-.441.137 0 3-2.855 3-2.992 0-.055-.227-.102-.5-.102s-.5-.043-.5-.098-.09-.102-.199-.102-.199-.043-.199-.098-.059-.102-.129-.102-.23-.09-.348-.199-.281-.199-.367-.199-.152-.047-.152-.102-.09-.098-.203-.098-.199-.047-.199-.102-.09-.098-.199-.098-.199-.047-.199-.102-.09-.098-.199-.098-.199-.066-.199-.156c0-.242-.465-.645-.742-.645-.141 0-.258-.043-.258-.098s-.07-.102-.156-.102-.383-.223-.648-.5-.531-.496-.578-.496-.32-.227-.602-.5c-.336-.328-.594-.5-.758-.5-.137 0-.25-.043-.25-.094s-.187-.109-.418-.125c-.793-.059-1.125-1.508-.48-2.125.164-.16.301-.34.301-.402s.09-.199.199-.297.199-.219.199-.266.09-.176.203-.285c.168-.168.18-.238.082-.422-.086-.16-.086-.227 0-.254.32-.105.031-.918-.328-.918-.086 0-.156-.047-.156-.102 0-.145-.676-.121-.727.023-.039.102-.074.102-.18 0-.074-.066-.367-.121-.656-.121s-.551-.047-.582-.102-.141-.102-.234-.102-.238-.09-.316-.199-.203-.199-.277-.199c-.336 0-.621-.477-.621-1.043 0-.305-.043-.555-.098-.555-.141 0-.125-.262.023-.5.125-.203-.582-1.078-.883-1.09-.059-.004-.191-.094-.289-.203s-.234-.199-.297-.199-.246-.137-.402-.301-.363-.301-.461-.301-.187-.035-.203-.078-.371-.25-.785-.461c-.828-.426-1.594-1.094-1.594-1.391 0-.371-.68-.742-.852-.465-.031.055-.156.102-.277.102-.23 0-1.109.305-1.23.426-.246.246-1.035-.02-1.035-.348 0-.074-.09-.199-.199-.281s-.199-.211-.199-.297-.09-.223-.199-.301c-.223-.16-.305-1.719-.102-1.844.059-.039.102-.617.102-1.398s.039-1.363.098-1.398.102-.441.102-.902v-.844h-.699c-.398 0-.699-.043-.699-.102S54.824.898 54.09.898 52.895.859 52.895.797 51.797.699 49.801.699l-3.094.098m10.223.773c.363 1.473.516 3.648.313 4.457-.402 1.609.613 1.887 2.039.559.68-.633 1.098-.859 1.098-.598 0 .059.273.094.676.082.957-.023.754-.184 4.371 3.387l1.145 1.023c.109 0 1.094.961 1.094 1.063 0 .227-.383.766-.66.941-.52.32-.91 1.383-.512 1.391.07 0 .238.09.375.195s.348.199.469.199.246.047.277.102.262.102.5.102.465.043.5.098.258.102.5.102.465.043.496.098.293.102.574.102c1.406 0 1.789.723.688 1.305-.539.281-.91.621-.91.828 0 .082-.047.18-.102.211s-.098.168-.098.301-.047.266-.102.297-.098.152-.098.258c0 .234-.184.578-.426.801-.258.238.07.789.469.789.086 0 .156.047.156.102s.18.098.398.098.398.047.398.102.109.098.246.098c.371 0 .754.211.754.418 0 .109.07.184.176.184.098 0 .242.09.32.199s.215.199.301.199.219.09.301.199.211.199.297.199.223.09.301.199.215.199.301.199.219.09.297.199.223.199.32.199.18.047.18.102.078.098.176.098.242.094.324.203.211.199.297.199.223.09.301.199.215.199.301.199.219.09.297.199.227.199.324.199.176.047.176.102.09.098.199.098.199.047.199.102.074.098.16.098.285.137.441.301.34.301.414.301.203.09.281.199.227.199.324.199c.113 0 .176.074.176.207 0 .223-.215.492-.395.492-.062 0-.469.359-.902.797s-.84.797-.902.797-.355.254-.648.559c-.594.617-.602.941-.023.941.152 0 .277.043.277.098s.113.102.25.102.25-.047.25-.102.109-.098.246-.098.25.043.25.098.18.102.402.102.398.043.398.098.18.102.398.102.398.043.398.098.07.102.156.102a.51.51 0 0 1 .441.441c0 .086.047.156.102.156s.098.066.098.152-.043.148-.098.148-.102.09-.102.199-.043.199-.098.199-.102.09-.102.199-.043.199-.098.199-.102.059-.102.129c0 .188-.234.668-.324.668-.039.004-.074.16-.074.352s.043.348.102.348.098.07.098.152-.043.148-.098.148-.102.137-.102.301-.047.297-.102.297-.098.129-.098.281-.055.336-.125.402c-.098.098-.074.137.102.18.121.035.223.098.223.148s.09.086.199.086.199.047.199.102.09.102.199.102.199.043.199.098.09.102.199.102.203.043.203.098.09.102.199.102.199.043.199.098.09.102.199.102.199.043.199.098.09.102.199.102.199.043.199.098.082.102.18.102.242.09.32.199c.086.117.258.199.422.199.152 0 .277.047.277.102s.09.098.199.098.199.047.199.102.09.098.199.098.199.047.199.102.09.102.199.102.199.043.199.098.09.102.199.102.203.043.203.098.086.102.199.102.199.043.199.098.125.102.277.102c.16 0 .336.082.422.199.078.109.223.199.32.199s.176.047.176.102.082.098.18.098.242.09.32.199.203.199.277.199.305.18.52.398.438.402.492.402c.332 0 1.008.625 1.004.93-.004.297-1.379 1.164-1.848 1.164-.059 0-1 .449-2.09 1l-2.094.996c-.16 0-1.949.91-1.949.988 0 .109.543.609.664.609.055 0 .184.09.281.199s.234.199.297.199.246.137.402.301.34.301.402.301.199.086.297.199.234.199.297.199.246.133.402.297.34.301.406.301.176.07.246.156.32.242.555.348.457.238.488.293.25.188.48.293c.387.176 1.059.762.961.836-.215.16-3.375 1.668-3.492 1.668-.094.004-.184.039-.254.102-.145.141-1.141.496-1.398.496a.89.89 0 0 0-.449.188c-.324.254-1.043.609-1.23.609-.082 0-.309.09-.504.203s-.414.199-.488.199c-.187 0-.758.297-.758.398s.57.398.758.398c.074 0 .293.09.488.199s.418.199.5.199.301.09.496.199c.211.121.543.199.809.199.371 0 .734.102.918.254.051.039-.395.789-.512.863s-.125.074.254.313c.152.094.359.168.469.168s.227.047.262.102c.082.137.48.125.621-.016.129-.129 1.992.738 2.594 1.211.422.324.434.602.027.602-.164 0-.301.043-.301.098s-.18.102-.398.102-.398.039-.398.09-.238.113-.523.141c-1.359.137-2.77.52-3.937 1.074l-.699.293c-.047 0-.352.133-.68.293s-.699.301-.824.301c-.187.004-.336.059-.711.273-.023.016.008.082.063.152.199.242.527.883.527 1.027 0 .137.18.527.297.645.027.027.113.176.191.324s.18.277.227.277.082.055.082.125c0 .215.434.637.898.871.246.125.473.254.5.289.07.09 1.34.512 1.539.512.09 0 .352.086.578.199s.488.199.578.199.301.125.461.277a6.6 6.6 0 0 0 1.484 1.008l.547.277a2.22 2.22 0 0 0 .426.199c.094.031.172.098.172.145s.09.09.199.09c.293 0 .25.109-.199.535-.359.34-.398.426-.398.867 0 .273-.043.492-.098.492s-.102.066-.102.152-.133.289-.301.461c-.266.281-.297.379-.297.953 0 .352-.039.617-.09.586-.133-.082-.734.195-.953.434-.102.117-.258.207-.348.207s-.227.09-.309.203-.223.199-.32.199-.176.043-.176.098-.09.102-.199.102-.199.043-.199.098-.137.102-.301.102-.301.043-.301.098-.18.102-.398.102-.398.043-.398.098-.18.102-.398.102-.402.047-.402.102-.133.098-.297.098-.301.047-.301.102-.133.098-.297.098-.301.047-.301.102-.137.098-.301.098-.297.047-.297.102-.082.098-.18.098-.242.09-.32.203-.223.199-.316.199-.199.043-.234.098-.152.102-.262.102c-.273 0-.484.234-.484.535 0 .137-.047.277-.102.313s-.098.258-.098.5.043.465.098.496.102.164.102.285c0 .262.211.762.324.762.039.004.074.094.074.203s.043.199.098.199.102.078.102.176.09.242.199.324.199.223.199.32.047.176.102.176.098.07.098.156.406.555.898 1.043c1.063 1.051 1.105 1.215.5 1.797-.219.211-.402.441-.402.516s-.227.355-.5.633-.492.535-.492.578c-.004.109-.266.367-.371.367s-.629.66-.629.801c0 .063-.18.285-.398.496s-.402.434-.402.496c0 .219-.687.805-.941.805-.141 0-.254.043-.254.098s-.227.102-.5.102-.5.043-.5.098-.141.102-.316.102c-.328 0-1.078.676-1.078.973 0 .07-.137.156-.301.188s-.301.105-.301.164c0 .133 1.273 1.371 1.41 1.371.059 0 .234.133.387.297s.352.301.441.301.16.082.16.199.066.199.152.199c.172 0 .645.434.645.594 0 .184.449.113.598-.094.078-.109.203-.199.277-.199.297 0 .68-.488.547-.699-.176-.277-.156-.496.051-.566.555-.199.691-.629.199-.633-.914-.004-.82-.734.102-.777.691-.031 1.148-.516.902-.953-.066-.121-.059-.223.031-.328.07-.086.117-.285.105-.441-.016-.211.078-.398.328-.676.195-.215.352-.43.352-.48 0-.305 1.086-1.152 1.391-1.086.555.125 2.242-.477 2.785-.992.754-.711.613-1.66-.309-2.078l-.484-.219.066-.473c.078-.594-.152-1.016-.758-1.375-.82-.488-1-.703-1.086-1.297a5.76 5.76 0 0 0-.25-1c-.355-.926-.246-1.125.766-1.402a2.12 2.12 0 0 0 .699-.383c.309-.27.359-.281 1.082-.234.707.047.848.016 2.277-.461l1.668-.512c.355 0 1.578-1.082 1.789-1.586.242-.562.188-1.301-.109-1.613-.191-.199-.238-.328-.195-.516.086-.34 1.246-1.469 1.766-1.719.898-.434.715-1.074-.523-1.805l-.309-.215c-.277-.227-1.504-.832-1.684-.832-.102 0-.215-.043-.246-.098s-.172-.102-.301-.102-.266-.043-.301-.098-.219-.102-.406-.102c-.387 0-1.293-.426-2.156-1.012-.312-.211-.617-.387-.68-.387-.254 0-.699-.312-.699-.496 0-.125-.129-.246-.375-.352l-.898-.406-.523-.238v-.523c0-.797.59-1.375 1.402-1.375.52 0 1.113-.191 1.242-.398.176-.289.719-.402 1.91-.402 1.043 0 1.281-.027 1.582-.199.195-.109.434-.199.527-.203.23-.004.418-.164.742-.645.438-.641.77-.949 1.023-.949.426 0 1.254-.426 1.316-.676.078-.312-.305-.719-.68-.719-.152 0-.437-.09-.633-.199s-.441-.199-.547-.199-.219-.047-.25-.102-.215-.102-.402-.102-.363-.043-.398-.098-.168-.102-.297-.102-.266-.043-.301-.098-.141-.102-.234-.102c-.285 0-1.152-.473-1.461-.797-.805-.84-.723-2.594.125-2.594.117 0 .234-.043.266-.09s.203-.113.379-.141l.625-.137c.324-.09 1.348-.797 1.348-.934 0-.398.531-.695 1.246-.695h.727l.148-.449c.172-.527.156-.551-.336-.551-.207 0-.402-.043-.437-.098s-.168-.102-.301-.102-.262-.043-.297-.102-.145-.098-.242-.098c-.293 0-.805-.301-.82-.48l-.023-.465c-.012-.262-.09-.336-.648-.617-1.699-.848-2.078-2.113-.875-2.914.922-.613 2.055-1.105 2.559-1.113.633-.008 1.547-.465 1.852-.934l.531-.77c.707-.996.465-2.148-.488-2.316l-1.77-.352c-.234-.051-.609-.223-.836-.379l-.734-.508a2.01 2.01 0 0 1-.527-.562c-.219-.375-.176-.359-1.918-.555-1.262-.141-1.5-.25-1.5-.695 0-.383.32-.805.715-.941.094-.031.227-.18.301-.332s.199-.301.285-.336l.563-.273c.293-.141.449-.172.523-.098s.121.055.164-.059c.094-.238-.027-.371-.543-.594-.68-.297-1.051-.676-.656-.676.082 0 .195-.113.246-.25a.69.69 0 0 1 .348-.348c.164-.062.227-.145.188-.246-.082-.219-.469-.191-.684.047-.137.152-.309.199-.707.199-.293 0-.559.043-.59.098-.09.145-1.281.125-1.43-.02-.195-.195-.141-.559.105-.687.305-.164.379-.297.27-.504-.051-.094-.094-.355-.094-.578 0-.34-.039-.426-.242-.5-.707-.27-.297-1.004.563-1.004.34 0 .75-.043.918-.094l.582-.152c.32-.066.973-.609.973-.816 0-.078.094-.324.207-.543l.203-.402-1.277.039-1.496.117c-.184.063-.254.02-.426-.258-.398-.652-.227-.926.938-1.48 1.531-.73 1.359-2.262-.191-1.715-1.512.527-2.34.203-1.344-.531.883-.648.332-1.141-1.629-1.457l-1.195-.199a17.09 17.09 0 0 0-1.59-.156c-.703-.035-.98-.086-1.02-.187-.09-.238.227-.445.676-.445.57 0 .906-.301.82-.73-.09-.445-.336-.668-.73-.668-.34 0-.344-.004-.324-.426.027-.707.012-.758-.402-1.195-.219-.234-.398-.477-.398-.543 0-.23-.914-.844-1.066-.715-.535.441-1.219-.391-.805-.977.539-.758-.137-1.164-2.172-1.301-.383-.027-.742-.09-.793-.141s-.262-.094-.461-.094c-.523 0-.66-.199-.449-.648.164-.348.559-.488.707-.25s.836.113.988-.18c.176-.34.063-1.012-.199-1.168-1.062-.629-.746-1.645.516-1.645.645 0 .84-.145.836-.621-.004-.965-.82-1.203-3.891-1.137-2.168.043-2 .121-1.664-.781.246-.66-.141-1.223-1.406-2.059-.664-.437-1.418-1.184-1.418-1.398 0-.051-.07-.094-.156-.094-.18 0-.445-.23-.445-.391 0-.059-.09-.105-.199-.105s-.199-.047-.199-.102-.156-.098-.348-.098-.352-.047-.352-.102-.223-.098-.496-.098-.5-.047-.5-.102-.18-.102-.398-.102-.398-.043-.398-.098-.227-.102-.5-.102-.5-.043-.5-.098-.266-.102-.598-.102-.602-.043-.602-.098-.27-.102-.609-.102h-.609l.066.273"/><path fill="#040404" d="M14.891 14.977c.031.078.094.145.172.176.074.023.113-.016.09-.09-.031-.078-.098-.141-.176-.172s-.113.012-.086.086m47.684 39.891c-.004.508-.437 1.273-.809 1.418-.187.074-.43.207-.539.301-.18.148-1.285.816-1.793 1.078-.109.059-.266.316-.348.574-.141.43-.211.5-.785.793-.348.18-.82.508-1.051.734-.359.355-1.223.805-2.262 1.18a38.53 38.53 0 0 0-1.047.484c-.492.234-1.082.477-1.312.535s-.437.176-.469.258c-.137.352-.59.5-1.754.566-.637.039-1.355.121-1.605.184a13.41 13.41 0 0 1-2.195.383c-.41.039-.844.125-.957.191-.422.234-1.699.605-2.285.66a11.73 11.73 0 0 0-1.098.16l-1.047.195c-.305.055-.902.215-1.332.355-.859.289-.633.285-6.891.098-1.617-.051-1.848-.035-2.492.156-.781.23-2.266.23-3.707.004l-2.793-.387c-.73-.094-1.73-.371-1.895-.527-.051-.051-.375-.09-.719-.09a4.91 4.91 0 0 1-2.008-.41c-.234-.105-.504-.187-.598-.187s-.398-.086-.672-.191l-.848-.312-.523-.211a.99.99 0 0 0-.367-.086c-.109 0-.223-.043-.258-.098s-.168-.102-.301-.102-.262-.043-.297-.098-.168-.102-.301-.102-.266-.043-.297-.098-.172-.102-.301-.102-.266-.047-.301-.102-.156-.098-.273-.098c-.223 0-.809-.168-1.098-.312a1.12 1.12 0 0 0-.418-.086c-.27 0-.668-.152-1.055-.402-.137-.09-.406-.223-.598-.301a4.92 4.92 0 0 1-.805-.445 5.77 5.77 0 0 0-.949-.496c-.586-.223-1.312-.609-1.59-.848-.359-.309-2.371-1.402-2.578-1.402-.164 0-.812-.336-1.363-.703-.664-.445-1.996-1.898-1.996-2.18 0-.059-.066-.109-.152-.109-.098 0-.148.098-.148.297 0 .168.047.301.102.301s.098.332.098.797.043.801.102.801.098.223.098.5.047.496.102.496.098.266.098.602.047.598.102.598.102.18.102.398.043.398.098.398.102.227.102.5.043.5.098.5.102.18.102.398.043.398.098.398.102.137.102.301.043.301.098.301.102.176.102.398.043.398.098.398.102.133.102.301.047.297.102.297.098.137.098.301.047.301.102.301.098.133.098.297.047.301.102.301.098.133.098.297.047.301.102.301.098.137.098.301.047.297.102.297.098.09.098.199.047.203.102.203.102.133.102.297.043.301.098.301.102.09.102.199.043.199.098.199.102.137.102.301.043.297.098.297.102.09.102.199.043.203.098.203.102.09.102.199.043.199.102.199.098.133.098.297.047.301.102.301.098.09.098.199.047.199.102.199.098.09.098.199.047.199.102.199.098.09.098.203.047.199.102.199.098.09.098.199.047.199.102.199.102.09.102.199.043.199.098.199.102.09.102.199.043.199.098.199.102.09.102.199.043.199.098.199.102.09.102.199.043.203.098.203.102.078.102.176.09.242.199.32.199.227.199.324.047.176.102.176.098.082.098.18.09.242.199.32.199.223.199.32.047.18.102.18.102.082.102.184.09.266.199.363.199.234.199.301.09.199.199.297.199.254.199.344.09.227.199.305.199.215.199.301.09.219.199.301.199.211.199.297.09.223.199.301.203.207.203.281.133.266.297.418.301.332.301.398.18.289.398.5.398.434.398.496.227.332.5.602.5.535.5.594.492.602 1.098 1.203l1.098 1.199c0 .137.457.598.598.598.059 0 .598.492 1.199 1.098s1.141 1.098 1.207 1.098.199.098.305.215c.152.18.223.199.41.109.539-.258 1.133-.344 1.531-.223.527.16 3.059.324 4.828.309l8.285.016 3.094-.129c1.238-.211 2.461-.187 2.867.051.289.172.379.18.902.07.32-.066.738-.117.926-.117s.75-.086 1.242-.195l1.648-.355a8.56 8.56 0 0 0 1.395-.445c.711-.312 1.117-.457 2.695-.941 1.211-.375 1.551-.539 1.895-.91.141-.148.859-.574 1.598-.945 2.004-1.008 4.492-2.918 4.492-3.449 0-.062.117-.219.258-.352s.379-.496.531-.805c.621-1.273 1.555-1.805 2.141-1.223l.266.266v-.309c0-.168.043-.336.098-.367s.102-.195.102-.352.09-.453.199-.648.199-.531.199-.746.043-.418.098-.449.102-.172.102-.301.043-.266.098-.301.102-.168.102-.297.043-.266.102-.301.098-.168.098-.301.047-.266.102-.297.098-.328.098-.652c0-.406.063-.703.199-.945.109-.195.199-.422.199-.5s.09-.305.203-.5c.121-.219.199-.539.199-.844 0-.27.043-.52.098-.551s.102-.168.102-.301.043-.266.098-.301.102-.211.102-.398.043-.363.098-.398.102-.168.102-.301.043-.266.098-.297.102-.156.102-.273a.75.75 0 0 1 .184-.418c.223-.246.516-1.371.516-1.98 0-.238.066-.523.145-.629a.93.93 0 0 0 .152-.469c0-.148.047-.273.102-.273s.102-.281.102-.641-.047-.672-.102-.707c-.062-.035-.102-.781-.102-1.895s.039-1.859.102-1.898c.055-.031.102-.437.102-.898s-.047-.863-.102-.898-.102-.238-.102-.453c0-.371-.016-.395-.297-.395-.262 0-.301.039-.301.277m13.871 34.457c-.113.113-.25.176-.301.145s-.098.012-.098.098.016.152.035.152a2.37 2.37 0 0 0 .766-.449c.199-.238-.16-.187-.402.055"/><path fill="#045493" d="M31.938 3.992c0 .055-.09.098-.199.098s-.203.047-.203.102-.133.102-.297.102-.301.043-.301.098-.09.102-.199.102-.199.043-.199.098-.137.102-.301.102-.297.043-.297.098-.09.102-.199.102-.203.043-.203.098-.09.102-.199.102-.199.043-.199.102-.09.098-.199.098-.199.047-.199.102-.133.098-.301.098-.297.047-.297.102-.09.098-.199.098-.199.047-.199.102-.082.098-.18.098-.242.09-.32.199-.223.203-.32.203-.18.043-.18.098-.09.102-.199.102-.199.043-.199.098-.09.102-.199.102-.199.043-.199.098-.09.102-.199.102-.199.043-.199.098-.082.102-.18.102-.242.09-.32.199-.223.199-.324.199-.176.047-.176.102-.09.098-.199.098-.254.09-.324.199-.172.199-.234.199c-.148 0-.723.293-.793.406-.027.047-.211.164-.398.254s-.348.203-.348.25-.07.09-.156.09c-.184 0-.457.25-.371.336.035.035-.047.063-.18.063-.152.008-.293.082-.391.199-.078.109-.203.199-.277.199s-.246.137-.387.301-.305.301-.371.301-.297.18-.512.398-.437.398-.496.398-.285.18-.5.398-.445.398-.512.398-.395.27-.727.602-.656.598-.711.598c-.207 0-1.215 1.105-1.152 1.266.082.211-.762 1.055-.973.973-.168-.062-1.664 1.348-1.668 1.578 0 .07-.27.391-.598.715s-.598.645-.598.707-.133.242-.297.402-.301.336-.301.398-.137.242-.301.398-.297.34-.297.406-.137.227-.301.355-.297.305-.297.387-.094.219-.203.297-.199.227-.199.324-.043.176-.098.176-.102.07-.102.156-.043.129-.098.094-.102.031-.102.145-.039.203-.09.203-.16.156-.25.348-.207.371-.258.402c-.176.109-.426.746-.371.953.043.164.012.199-.164.176-.156-.023-.223.027-.246.195-.02.121-.074.223-.125.223s-.094.09-.094.199-.043.199-.098.199-.102.082-.102.18-.09.242-.199.32-.199.223-.199.32-.047.18-.102.18-.098.09-.098.199-.047.199-.102.199-.098.09-.098.199-.047.199-.102.199-.098.09-.098.199-.047.199-.102.199-.102.09-.102.199-.043.203-.098.203-.102.086-.102.199-.043.199-.098.199-.102.09-.102.199-.043.199-.098.199-.102.09-.102.199-.043.199-.098.199-.102.137-.102.301-.043.297-.098.297-.102.09-.102.199-.043.203-.102.203-.098.09-.098.199-.047.199-.102.199-.098.133-.098.297-.047.301-.102.301-.098.09-.098.199-.047.199-.102.199-.098.137-.098.301-.047.301-.102.301-.102.09-.102.199-.043.199-.098.199-.102.133-.102.297-.043.301-.098.301-.102.137-.102.301-.043.297-.098.297-.102.137-.102.301-.043.301-.098.301-.102.133-.102.297-.043.301-.098.301-.102.18-.102.398-.043.398-.102.398-.098.137-.098.301-.047.301-.102.301-.098.18-.098.398-.047.398-.102.398-.098.18-.098.398-.047.398-.102.398-.098.18-.098.402-.047.398-.102.398-.098.18-.098.398-.047.398-.102.398-.102.27-.102.605c0 .379-.035.582-.098.543s-.102.148-.102.492c0 .305-.043.555-.098.555s-.102.297-.102.695c0 .379-.043.719-.098.754s-.102.48-.102 1.004c0 .559-.039.941-.098.941-.066 0-.102 1.531-.102 4.391l.102 4.391c.055 0 .098.246.098.551 0 .422.035.547.148.547.086 0 .152.051.152.113 0 .238 1.441 1.844 1.945 2.168.496.32 1.25.715 1.371.715.242 0 2.023.953 2.664 1.426.398.297.887.594 1.09.668.605.215 1.398.594 1.461.699.031.051.227.168.43.254.387.172.531.242 1.086.555.184.105.41.191.496.191.27 0 5.145 1.531 5.375 1.691.055.035.301.125.547.195l1.098.328.957.285c.164.051.684.129 1.148.18s.934.129 1.043.188c.367.191.984.352 1.688.441l2.852.398c1.07.18 3.133.172 3.691-.016.488-.164 1.992-.176 6.324-.051 1.855.055 2.363.039 2.695-.074l.762-.254c.52-.168 2.848-.633 3.594-.719.609-.07 1.078-.211 1.895-.578.191-.086.707-.191 1.148-.234l1.297-.184c1.098-.23 2.324-.398 2.879-.402.512 0 .617-.035.848-.281.309-.332.625-.516.883-.516.102 0 .629-.223 1.18-.496l1.102-.5c.059-.004.293-.094.52-.203s.461-.199.52-.199c.184 0 .527-.234 1.02-.687.262-.242.711-.555 1.004-.695.668-.328.773-.434.777-.781 0-.375.074-.469.547-.687.219-.102.457-.242.527-.312s.297-.203.5-.297a3.05 3.05 0 0 0 .621-.406 1.55 1.55 0 0 1 .543-.309c.395-.102.637-.543.645-1.184.008-.496.125-.742.258-.531.152.25.949-.211.949-.551 0-.062.09-.195.199-.293s.199-.234.199-.301.09-.199.199-.301.199-.234.199-.297.09-.203.199-.301.199-.234.199-.301.09-.199.199-.297.199-.234.199-.301.09-.199.203-.301.199-.234.199-.297.09-.203.199-.301.199-.234.199-.301.09-.199.199-.297.199-.234.199-.301.09-.199.199-.301.199-.23.199-.297.09-.199.199-.301c.184-.164.199-.305.199-1.504 0-.777.043-1.352.102-1.391s.102-.582.102-1.297.039-1.262.098-1.297.102-.613.102-1.398.039-1.359.098-1.395c.352-.219.051-1.949-.34-1.949-.176 0-.211-.152-.059-.246.055-.035.102-.172.102-.301s.043-.266.098-.301c.215-.133.105-.664-.199-.945-.25-.234-.301-.359-.301-.742 0-.25-.043-.457-.098-.457s-.102-.18-.102-.398-.043-.398-.098-.398-.102-.18-.102-.402-.043-.398-.098-.398-.102-.203-.102-.453c0-.816-1.105-1.441-1.18-.668-.016.176-.074.324-.125.324s-.094.133-.094.297-.043.301-.098.301-.102.246-.102.543.047.57.102.605c.27.168.113 1.953-.199 2.246-.164.152-.301.352-.301.438s-.043.16-.098.16-.102.09-.102.199-.047.199-.102.199-.098.09-.098.199-.047.199-.102.199-.098.082-.098.18-.09.242-.199.32-.199.215-.199.301-.09.219-.203.297-.199.215-.199.301-.09.223-.199.301-.199.223-.199.32-.043.176-.098.176-.102.074-.102.16-.18.328-.398.539-.398.445-.398.52-.09.199-.199.281-.199.211-.199.297-.094.223-.203.301-.199.215-.199.301-.09.219-.199.297-.199.227-.199.324-.043.176-.098.176-.102.07-.102.152c0 .172-1.234 1.445-1.402 1.445-.059 0-.328.223-.594.5s-.539.496-.602.496-.242.137-.395.301-.344.301-.418.301-.203.09-.281.199-.207.199-.281.199-.266.133-.418.297-.336.301-.398.301-.246.137-.402.301-.34.297-.414.297-.203.09-.281.203-.207.199-.281.199-.266.133-.418.297-.344.301-.418.301-.203.09-.281.199-.215.199-.301.199-.219.09-.297.199c-.102.141-.262.199-.523.199-.207 0-.375.047-.375.102s-.137.098-.301.098-.301.047-.301.102-.09.098-.199.098-.199.047-.199.102-.09.102-.199.102-.199.043-.199.098-.09.102-.199.102-.199.043-.199.098-.137.102-.301.102-.297.043-.297.098-.184.102-.402.102-.398.043-.398.098-.133.102-.301.102-.297.043-.297.102-.137.098-.301.098-.297.047-.297.102-.18.098-.402.098-.398.047-.398.102-.133.098-.297.098-.301.047-.301.102c0 .152-.695.117-.855-.043-.082-.082-.145-.336-.145-.598 0-.254-.043-.457-.098-.457s-.102-.18-.102-.398-.043-.402-.098-.402-.102-.133-.102-.297-.043-.301-.098-.301-.102-.18-.102-.398-.043-.398-.098-.398-.102-.18-.102-.398-.047-.402-.102-.402-.098-.133-.098-.297-.047-.301-.102-.301-.098-.09-.098-.199-.047-.199-.102-.199-.098-.09-.098-.199-.047-.199-.102-.199-.098-.137-.098-.301-.047-.301-.102-.301-.102-.09-.102-.199-.043-.199-.098-.199-.102-.133-.102-.297-.043-.301-.098-.301-.102-.09-.102-.199-.043-.199-.098-.199-.102-.137-.102-.301-.043-.301-.098-.301-.102-.133-.102-.297-.043-.301-.098-.301-.102-.133-.102-.301-.043-.297-.102-.297-.098-.09-.098-.199-.047-.199-.102-.199-.098-.137-.098-.301-.047-.301-.102-.301-.098-.133-.098-.297-.047-.301-.102-.301-.098-.078-.098-.176-.09-.242-.203-.324-.199-.215-.199-.297-.09-.223-.199-.301-.199-.223-.199-.32-.043-.18-.098-.18-.102-.078-.102-.176-.09-.242-.199-.324-.199-.211-.199-.297-.09-.223-.199-.301-.199-.215-.199-.301-.09-.219-.199-.297-.203-.207-.203-.281-.133-.266-.297-.418-.301-.332-.301-.395-.312-.426-.699-.805-.695-.738-.695-.801-.18-.285-.402-.496-.398-.434-.398-.5-.133-.242-.301-.398-.297-.34-.297-.414-.09-.203-.199-.281-.199-.227-.199-.324-.09-.23-.199-.301-.203-.18-.203-.25c0-.156-1.449-1.621-1.602-1.621-.059 0-.457-.359-.887-.801s-.836-.797-.914-.801-.293-.18-.48-.398-.414-.398-.5-.402c-.5-.016-.75-.941-.316-1.156.133-.066.324-.301.426-.52s.227-.43.281-.461.234-.348.402-.703.344-.664.395-.695.273-.43.492-.883.516-.93.656-1.062.254-.289.254-.355.066-.176.145-.242.375-.59.656-1.16l.598-1.09c.047-.031.27-.434.496-.898s.449-.867.496-.895c.105-.066.402-.641.402-.777 0-.051.133-.219.301-.371s.297-.332.297-.395.316-.426.699-.805.699-.734.699-.793c0-.152 4.066-4.195 4.219-4.195.07 0 .191-.09.273-.199s.211-.203.297-.203.223-.09.301-.199.215-.199.301-.199.219-.09.297-.199.227-.199.32-.199.18-.047.18-.102.09-.098.199-.098.199-.047.199-.102.09-.098.199-.098.199-.047.199-.102.09-.098.199-.098.203-.047.203-.102.09-.098.199-.098.199-.047.199-.102.09-.098.199-.098.199-.047.199-.102.133-.102.301-.102.297-.043.297-.098.09-.102.199-.102.199-.043.199-.098.137-.102.301-.102.301-.043.301-.098.223-.102.496-.102c.684 0 .887-.656.273-.891-.125-.047-.289-.156-.363-.246s-.238-.16-.363-.16-.258-.047-.293-.102-.215-.098-.398-.098-.367-.047-.402-.102-.211-.098-.398-.098-.363-.047-.398-.102-.207-.098-.391-.098c-.199 0-.395-.078-.508-.199-.098-.109-.281-.203-.406-.203s-.258-.043-.293-.098-.211-.102-.398-.102-.363-.043-.398-.098-.168-.102-.301-.102-.266-.043-.297-.098-.195-.102-.355-.102-.449-.09-.645-.199-.484-.199-.645-.199-.32-.043-.352-.102-.215-.098-.402-.098-.363-.047-.398-.102-.258-.098-.496-.098-.469-.047-.5-.102-.301-.098-.59-.098c-.402 0-.57-.051-.707-.199-.172-.191-.309-.203-2.508-.203-1.441 0-2.348-.035-2.383-.098-.035-.055-.195-.102-.355-.102s-.293.047-.293.102m4.172 3.512c.145.145.16 1.379.02 1.379-.059 0-.102.367-.102.898s-.039.898-.098.898-.102.25-.102.555c0 .621-.141.84-.543.84-.141 0-.254.047-.254.102s-.137.102-.301.102-.301.043-.301.098-.09.102-.199.102-.199.043-.199.098-.133.102-.297.102-.301.043-.301.098-.09.102-.199.102-.199.043-.199.098-.137.102-.301.102-.301.043-.301.098-.09.102-.199.102-.199.043-.199.102-.133.098-.297.098-.301.047-.301.102-.09.098-.199.098-.199.047-.199.102-.137.098-.301.098-.301.047-.301.102c0 .16-.516.113-.715-.066-.102-.09-.184-.266-.184-.395s-.043-.254-.098-.289-.102-.5-.102-1.055c0-.594.043-.988.102-.988s.098-.453.098-1.152c0-1.344.156-1.645.844-1.645.195 0 .355-.043.355-.098s.227-.102.5-.102.5-.043.5-.102.223-.098.496-.098.5-.047.5-.102.266-.098.598-.098.602-.047.602-.102.223-.098.496-.098.5-.047.5-.102c0-.141 1.035-.125 1.18.02m21.352 69.648c-.262.277-.477.566-.477.641 0 .141-.223.504-.703 1.148-.402.539-2.117 2.297-2.242 2.297-.062 0-.199.09-.297.199s-.234.199-.301.199-.176.066-.242.145-.762.461-1.543.848-1.551.84-1.707 1.008c-.402.418-1.687.992-2.223.992-.113 0-.238.047-.273.102s-.137.102-.234.102-.359.09-.59.199-.5.199-.605.199-.437.129-.734.285-.672.313-.836.352l-.691.172c-.219.059-.645.141-.949.188l-.996.203c-.246.063-.793.145-1.215.184s-.797.098-.836.137-.238-.02-.437-.133c-.41-.23-1.91-.223-3.398.016-.422.066-1.613.113-2.723.105l-8.281-.008c-1.508.008-3.812-.148-4.367-.297-.73-.195-1.094-.234-1.223-.129-.07.051-.293.125-.5.164s-.371.086-.371.109c0 .098.52.547.633.547.07 0 .281.18.469.398s.406.398.477.398.262.137.418.301.34.301.414.301.203.09.281.199.207.199.277.199.105.047.074.102.031.098.145.098.203.039.203.09.156.16.348.25.371.207.402.258.215.172.402.262.344.203.344.25.086.09.191.09.211.063.242.137c.055.145.613.461.809.461.063 0 .176.09.258.199s.223.199.32.199.176.047.176.102.09.098.203.098.199.047.199.102.078.098.176.098.242.09.32.203.227.199.324.199.176.043.176.098.09.102.199.102.199.043.199.098.09.102.199.102.203.043.203.098.086.102.199.102.199.043.199.098.09.102.199.102.199.047.199.102.09.098.199.098.199.047.199.102.137.098.301.098.297.047.297.102.09.098.199.098.203.047.203.102.09.098.199.098.199.047.199.102.09.102.199.102.199.043.199.098.133.102.301.102.297.043.297.098.09.102.199.102.199.043.199.098.137.102.301.102.301.043.301.098.09.102.199.102.199.043.199.098.133.102.301.102.297.043.297.102.137.098.301.098.301.047.301.102.133.098.297.098.301.047.301.102.133.098.297.098.301.047.301.102.137.098.301.098.297.047.297.102.18.102.402.102.398.043.398.098.133.102.297.102.301.043.301.098.18.102.398.102.398.043.398.098.227.102.5.102.5.043.5.098.18.102.398.102.398.043.398.098.266.102.602.102.598.043.598.102.223.098.5.098.496.047.496.102.301.098.699.098.699.043.699.102.367.098.898.098.898.043.898.102 1.563.098 4.492.098l4.488-.098c0-.059.344-.102.824-.102.57 0 .777-.031.676-.098s.086-.098.621-.098l.773-.004v-.441c0-.246.047-.473.102-.508s.098-.258.098-.496.047-.465.102-.5.102-.305.102-.598.043-.566.098-.602.102-.301.102-.598.043-.566.098-.598.102-.348.102-.699.043-.664.098-.699.102-.516.102-1.098.043-1.062.098-1.098.102-.48.102-.996.043-.965.098-1 .102-.258.102-.5.043-.465.102-.496.098-.262.098-.5.047-.465.102-.5.098-.305.098-.598.047-.566.102-.598.098-.262.098-.5.047-.465.102-.5.098-.305.098-.598.047-.566.102-.602.102-.562.102-1.246-.043-1.211-.102-1.246-.102-.59-.102-1.32c0-1.406-.051-1.52-.695-1.52-.293 0-.434.086-.824.5"/><path fill="#323464" d="M63.293 2.668c.02.098.156.234.305.305s.273.172.273.219c0 .191.563.734 1.188 1.145 1.48.973 1.922 1.676 1.535 2.426-.301.578-.309.578 1.805.543 1.469-.027 2.109.004 2.688.125l.809.156c.102 0 .359.645.359.906 0 .395-.41.691-.957.691-.613 0-.891.156-1.02.578-.121.391.047.816.316.816.23 0 .48.367.535.785.07.523-.32.973-.75.867-.746-.187-.871-.18-1.008.074-.211.395-.109.617.289.648.191.016.441.07.551.121s.512.113.898.141c1.988.141 2.813.602 2.145 1.207-.344.313-.27.805.156 1.008.266.125.383.141.469.055.219-.219.457-.113.887.395l.777.852c.316.309.344.383.352.961l.004.621.391.051c.211.027.418.117.457.199l.188.379c.227.438-.176.844-.926.918-.426.043-.508.082-.508.25 0 .184.074.203.945.23.523.016.992.07 1.043.125s.332.094.621.094.551.047.582.102.305.098.602.098.563.047.598.102.203.102.379.105c.941.023 1.25.734.57 1.316-.742.633-.277.836 1.098.473 1.156-.305 1.52-.219 1.52.359 0 .496-.594 1.336-.945 1.336-.328 0-1.273.738-1.273.992 0 .41.457.762.82.629.191-.066.809-.121 1.41-.121 1.164 0 1.309.07 1.031.516a2.23 2.23 0 0 0-.219.469c-.145.48-.699.91-1.172.91-.129 0-.277.043-.332.094s-.426.109-.832.125c-.945.039-1.551.754-.758.895.164.031.207.129.23.535.016.273.074.539.125.594.176.176.094.441-.18.574-.191.09-.277.207-.277.379 0 .273 1.246.441 1.484.203.059-.059.355-.105.66-.105.453 0 .578-.035.684-.203.086-.145.211-.199.395-.176.367.043.418.348.078.477a.71.71 0 0 0-.355.352c-.051.137-.168.25-.254.25-.293 0-.09.238.41.48.816.398.93.492.871.711-.027.125-.141.207-.266.195-.512-.016-1.219.387-1.367.781-.047.125-.148.227-.219.227s-.281.152-.461.34c-.664.684-.242 1.109 1.188 1.207 1.32.086 1.895.238 1.895.496 0 .219 1.41 1.332 1.781 1.406.145.027.469.113.715.191a6.99 6.99 0 0 0 .996.207c1.195.141 1.777 1.309 1.09 2.18-.105.133-.191.266-.191.297 0 .383-1.184 1.461-1.605 1.461-.098 0-.207.047-.238.102s-.262.098-.5.098-.465.047-.5.102-.137.098-.23.098c-.219 0-1.566.668-1.719.855-.066.078-.176.145-.242.145-.301 0-.555.457-.555 1.008 0 .668.551 1.289 1.609 1.82l.637.316V47c0 .473.32.785.82.801.117.004.246.051.277.105s.172.102.301.102.266.047.301.102.238.098.453.098c.391 0 .508.141.301.355-.047.051-.105.207-.125.344-.027.227-.078.25-.582.273-.863.043-1.395.273-1.395.609 0 .18-1.125 1.012-1.367 1.012-.121 0-.246.047-.281.102s-.191.098-.348.098-.316.047-.352.102-.16.102-.277.102c-.578 0-1.129 1.359-.668 1.645.055.035.098.164.098.285 0 .426 1.355 1.461 1.906 1.461.098 0 .207.047.242.102s.168.098.297.098.266.047.301.102.211.098.398.098.363.047.398.102.148.102.254.102.352.09.547.199.453.199.578.199c1.164 0 .699 1.219-.547 1.438-.414.074-.801.398-1.234 1.043-.223.332-.406.473-.746.586-.246.078-.492.188-.543.234s-.648.09-1.324.09c-1.23 0-1.699.098-2.027.414-.25.238-.687.387-1.156.387-.863 0-1.562.633-1.516 1.375.031.5.238.66 1.453 1.141.195.078.324.195.324.305 0 .191.543.57.816.57.09 0 .18.035.199.078.043.094 1.074.719 1.75 1.059.285.145.68.262.875.262s.352.047.352.102.133.098.301.098.297.047.297.102.137.098.301.098.301.047.301.102.09.098.199.098.199.047.199.102.09.102.199.102.199.043.199.098.059.102.129.102.23.09.348.199.281.199.367.199.152.035.152.074.18.188.398.324c.684.422.668 1.191-.035 1.504-.414.184-1.68 1.395-1.789 1.707-.035.098.043.281.188.449.34.387.391.66.246 1.305-.125.559-.855 1.523-1.148 1.523-.066 0-.203.086-.297.191s-.316.223-.492.258-.984.285-1.809.555c-1.48.488-2.098.582-2.578.398a.31.31 0 0 0-.43.109c-.16.176-.918.582-1.09.582-.648 0-.863.508-.535 1.266a4.24 4.24 0 0 1 .262.98c.078.676.164.813.656 1.039.813.375 1.195.895 1.152 1.57-.031.582-.031.586.297.691 2.148.695.352 3.238-2.289 3.238-.426 0-1.484.813-1.484 1.145 0 .051-.141.238-.312.414-.199.203-.328.449-.344.656l-.07.801c-.059.672-.273.875-.922.875-.824 0-1.086.582-.316.707.598.098.699.691.117.691-.246 0-.367.266-.23.488.156.246.281.27.281.055 0-.086.043-.129.098-.098s.188-.031.301-.145.293-.203.402-.203.199-.043.199-.098.047-.102.105-.102.07.055.031.125c-.074.125.504-.332 1.07-.848.168-.152.355-.273.422-.273s.246-.137.398-.301.336-.301.398-.305.344-.227.617-.496.543-.496.602-.496.547-.449 1.094-1 1.043-.996 1.105-.996c.125 0 1.641-1.531 1.641-1.66 0-.051.359-.449.797-.887s.801-.84.801-.898.223-.328.496-.598.5-.539.5-.594.18-.297.398-.531.402-.477.402-.547.133-.23.297-.359.301-.293.301-.359.09-.203.199-.305.199-.234.199-.297.09-.203.199-.301.199-.234.199-.301.09-.199.199-.297.199-.254.199-.344.09-.227.203-.305.199-.215.199-.301.09-.219.199-.301.199-.211.199-.297.09-.223.199-.301.199-.223.199-.32.047-.18.102-.18.098-.09.098-.199.047-.199.102-.199.098-.078.098-.176.09-.242.199-.324.199-.223.199-.32.047-.176.102-.176.102-.09.102-.203.043-.199.098-.199.102-.09.102-.199.043-.199.098-.199.102-.09.102-.199.043-.199.098-.199.102-.09.102-.199.043-.199.098-.199.102-.09.102-.199.043-.199.098-.199.102-.09.102-.199.047-.203.102-.203.098-.09.098-.199.047-.199.102-.199.098-.09.098-.199.047-.199.102-.199.098-.09.098-.199.047-.199.102-.199.098-.137.098-.301.047-.297.102-.297.102-.09.102-.203.043-.199.098-.199.102-.09.102-.199.043-.199.098-.199.102-.133.102-.297.043-.301.098-.301.102-.09.102-.199.043-.199.098-.199.102-.137.102-.301.043-.301.098-.301.102-.133.102-.297.043-.301.102-.301.098-.133.098-.301.047-.297.102-.297.098-.137.098-.301.047-.297.102-.297.098-.137.098-.301.047-.301.102-.301.098-.133.098-.297.047-.301.102-.301.102-.18.102-.398.043-.398.098-.398.102-.137.102-.301.043-.301.098-.301.102-.18.102-.398.043-.398.098-.398.102-.227.102-.5.043-.5.098-.5.102-.18.102-.398.043-.398.098-.398.102-.266.102-.598.043-.602.102-.602.098-.223.098-.496.047-.5.102-.5.098-.301.098-.699.043-.699.102-.699.098-.367.098-.898.043-.898.102-.898c.066 0 .098-1.594.098-4.59l-.098-4.59c-.059 0-.102-.367-.102-.898s-.039-.898-.098-.898-.102-.301-.102-.699-.043-.699-.098-.699-.102-.223-.102-.5-.043-.496-.098-.496-.102-.266-.102-.602-.043-.598-.102-.598-.098-.18-.098-.398-.047-.398-.102-.398-.098-.227-.098-.5-.047-.5-.102-.5-.098-.18-.098-.398-.047-.398-.102-.398-.098-.137-.098-.301-.047-.297-.102-.297-.098-.18-.098-.402-.047-.398-.102-.398-.102-.133-.102-.297-.043-.301-.098-.301-.102-.137-.102-.301-.043-.297-.098-.297-.102-.137-.102-.301-.043-.301-.098-.301-.102-.133-.102-.297-.043-.301-.098-.301-.102-.133-.102-.301-.043-.297-.102-.297-.098-.137-.098-.301-.047-.301-.102-.301-.098-.09-.098-.199-.047-.199-.102-.199-.098-.133-.098-.297-.047-.301-.102-.301-.098-.09-.098-.199-.047-.199-.102-.199-.098-.09-.098-.199-.047-.199-.102-.199-.102-.137-.102-.301-.043-.301-.098-.301-.102-.09-.102-.199-.043-.199-.098-.199-.102-.09-.102-.199-.043-.199-.098-.199-.102-.09-.102-.199-.043-.199-.098-.199-.102-.09-.102-.199-.043-.199-.102-.199-.098-.094-.098-.203-.047-.199-.102-.199-.098-.09-.098-.199-.047-.199-.102-.199-.098-.09-.098-.199-.047-.199-.102-.199-.098-.09-.098-.199-.047-.199-.102-.199-.098-.09-.098-.199-.047-.199-.102-.199-.102-.082-.102-.18-.09-.242-.199-.32-.199-.223-.199-.324-.043-.176-.098-.176-.102-.09-.102-.199-.043-.199-.098-.199-.102-.09-.102-.199-.039-.199-.09-.199-.16-.152-.246-.336-.227-.395-.312-.461-.148-.187-.148-.266-.09-.191-.199-.258-.203-.199-.203-.285-.09-.242-.199-.344-.199-.234-.199-.297-.09-.199-.199-.301-.199-.234-.199-.297-.09-.203-.199-.301-.199-.234-.199-.297-.18-.289-.398-.504-.402-.434-.402-.492-.133-.25-.297-.422-.301-.371-.301-.434-.223-.328-.5-.598-.496-.535-.496-.594-.496-.602-1.098-1.203l-1.102-1.168c-.008-.129-.477-.625-.594-.625-.062 0-.609-.496-1.223-1.102l-1.219-1.102c-.059 0-.332-.227-.605-.496s-.547-.496-.609-.496-.187-.09-.289-.199-.242-.199-.312-.199-.125-.051-.109-.113-.133-.199-.324-.309a2.59 2.59 0 0 1-.512-.387c-.09-.105-.203-.191-.258-.191s-.223-.133-.379-.297-.34-.301-.402-.301-.199-.09-.297-.199-.234-.199-.301-.199-.199-.09-.297-.199-.254-.199-.344-.199-.227-.09-.305-.203-.227-.199-.324-.199-.176-.043-.176-.098-.082-.102-.18-.102-.242-.09-.32-.199-.223-.199-.32-.199-.18-.043-.18-.098-.078-.102-.176-.102-.242-.09-.32-.199-.227-.199-.324-.199-.176-.047-.176-.102-.09-.098-.199-.098-.199-.039-.199-.09-.137-.145-.301-.211-.301-.164-.301-.211-.09-.09-.199-.09-.199-.043-.199-.098-.09-.102-.199-.102-.199-.043-.199-.098-.09-.102-.199-.102-.199-.043-.199-.098-.09-.102-.199-.102-.199-.043-.199-.098-.137-.102-.301-.102-.301-.043-.301-.102-.09-.098-.199-.098-.199-.047-.199-.102-.09-.098-.199-.098-.199-.047-.199-.102-.09-.098-.199-.098-.199-.047-.199-.102-.137-.098-.301-.098-.301-.047-.301-.102-.09-.102-.199-.102-.199-.043-.199-.098-.133-.102-.297-.102-.301-.043-.301-.098-.09-.102-.199-.102-.199-.043-.199-.098-.18-.102-.402-.102-.398-.043-.398-.098-.133-.102-.297-.102-.301-.043-.301-.098-.137-.102-.301-.102-.297-.043-.297-.102-.137-.098-.301-.098-.301-.047-.301-.102-.133-.098-.297-.098-.301-.047-.301-.102-.047-.098-.105-.098-.094.078-.074.172M34.941 4.066c2.203.027 2.367.043 2.535.227.137.148.309.199.707.199.289 0 .555.043.59.098s.258.102.5.102.465.043.496.098.215.102.398.102.367.043.402.098.191.102.352.102.449.09.645.199.488.199.645.199.32.047.355.102.168.098.297.098.266.047.301.102.215.098.398.098.367.047.398.102.164.098.293.098.309.094.406.203c.113.121.309.199.508.199.184 0 .355.043.391.098s.215.102.398.102.367.043.398.098.215.102.402.102.363.043.398.098.156.102.273.102a.69.69 0 0 1 .391.164 1.94 1.94 0 0 0 .41.277c.121.063.25.246.285.41.063.281.063.285.074.035s-.25-.586-.453-.586c-.055 0-.184-.09-.281-.199s-.285-.203-.41-.203-.254-.043-.289-.098-.215-.102-.398-.102-.367-.043-.402-.098-.211-.102-.398-.102-.363-.043-.398-.098-.207-.102-.391-.102c-.199 0-.395-.078-.508-.199a.64.64 0 0 0-.406-.199c-.129 0-.258-.047-.293-.102s-.211-.098-.398-.098-.363-.047-.398-.102-.168-.098-.301-.098-.266-.047-.297-.102-.195-.098-.355-.098-.449-.09-.645-.199-.484-.203-.645-.203-.32-.043-.352-.098-.215-.102-.402-.102-.363-.043-.398-.098-.258-.102-.496-.102-.469-.043-.5-.098-.301-.102-.59-.102c-.402 0-.57-.047-.707-.199-.172-.191-.293-.199-2.535-.176l-2.355.023 2.355.027m1.063 3.418c.148.168.168 1.258.023 1.348-.055.035-.098.438-.098.898s-.047.863-.102.898-.102.297-.102.586c0 .566-.117.762-.461.762-.125 0-.25.043-.285.098s-.148.102-.254.102-.348.09-.543.199-.422.199-.5.199-.305.09-.5.199-.418.199-.5.199-.301.09-.496.199-.422.203-.5.203-.305.09-.5.199-.441.199-.547.199-.219.043-.25.098c-.184.297-.75.023-.75-.363 0-.121-.043-.25-.102-.285s-.098-.48-.098-.996.043-.965.098-1 .102-.543.102-1.184c0-1.07.012-1.137.25-1.359.137-.129.23-.254.203-.277-.277-.281-.555.523-.555 1.621 0 .699-.035 1.152-.098 1.152s-.102.395-.102.988c0 .555.047 1.02.102 1.055s.098.164.098.289.082.305.184.395c.199.18.715.227.715.066 0-.055.137-.102.301-.102s.301-.043.301-.098.09-.102.199-.102.199-.043.199-.098.133-.102.301-.102.297-.043.297-.098.09-.102.199-.102.199-.047.199-.102.137-.098.301-.098.301-.047.301-.102.09-.098.199-.098.199-.047.199-.102.133-.098.301-.098.297-.047.297-.102.09-.098.199-.098.199-.047.199-.102.137-.098.301-.098.301-.047.301-.102.113-.102.254-.102c.402 0 .543-.219.543-.84 0-.305.047-.555.102-.555s.098-.367.098-.898.043-.898.102-.898c.188 0 .117-1.258-.074-1.406-.152-.113-.156-.109-.051.008m-20.816 7.145c-.238.27-.051.516.191.254.109-.117.172-.258.141-.312-.086-.137-.176-.117-.332.059m-.602.602c-.215.242.016.398.27.18.207-.18.199-.344-.016-.336-.066 0-.18.074-.254.156m-6.648 8.719c-.086.137-.012.238.137.188.059-.02.066-.09.02-.172-.062-.098-.102-.105-.156-.016m54.5 30.512c-.035.035-.062.289-.062.563 0 .594.066.57.188-.07.082-.434.027-.645-.125-.492m-60.578.762c.156.211.551.66.879.996l.59.617-.543-.621-.875-.996-.34-.379.289.383m59.445 1.191c-.18.121-.324.262-.324.313s.09.008.207-.098.328-.242.473-.309.199-.121.113-.125-.293.094-.469.219m-1.168.723c-.105.082-.172.168-.148.191s.156-.043.293-.148.203-.187.148-.187-.187.066-.293.145m-.996.605c-.09.086-.156.301-.148.473l.008.316.098-.348c.055-.191.168-.406.258-.473s.113-.125.051-.125-.18.07-.266.156m-52.953.484c0 .02.289.203.645.398s.672.406.703.457c.063.098.449.336.449.273s-.953-.754-1.324-.961c-.383-.211-.473-.246-.473-.168m51.066 1.418c-.262.25-.465.473-.445.488s.262-.187.547-.461.484-.488.445-.488-.281.207-.547.461m-2.363 1.234c-.133.086-.133.098 0 .098.082 0 .215-.047.301-.098.133-.086.133-.098 0-.098-.086 0-.219.043-.301.098m-42.816.598c.086.055.285.094.449.09.258-.004.273-.016.102-.09-.293-.125-.746-.125-.551 0m.852.199c.031.055.16.098.277.094.211-.008.211-.012.02-.094-.273-.117-.371-.117-.297 0m.648.199c.082.055.262.094.398.09l.25-.008-.25-.082c-.387-.121-.59-.121-.398 0m38.82.055-.25.148.301-.066c.535-.117.742-.223.449-.227-.137 0-.363.066-.5.145m-38.074.145c.035.055.16.098.281.094.211-.008.211-.008.02-.094-.273-.117-.371-.117-.301 0m.602.203c.031.055.16.094.277.09.211-.004.211-.008.02-.09-.273-.121-.371-.121-.297 0m36.988.059c-.074.082-.113.172-.09.195s.125-.047.227-.156.141-.199.09-.195-.152.07-.227.156m-36.391.141c.035.055.16.094.281.09.211-.004.211-.008.016-.09-.273-.121-.371-.121-.297 0m.598.199c.035.055.16.094.281.09.211-.004.211-.008.02-.09-.277-.121-.375-.121-.301 0m33.781 0c-.352.055-.242.07.5.078.523.004 1.039-.031 1.148-.078.242-.105-.973-.105-1.648 0m-33.184.199c.035.055.16.098.281.094.211-.008.211-.012.02-.094-.273-.117-.371-.117-.301 0m32.039 0c-.184.078-.18.086.047.086a1.35 1.35 0 0 0 .449-.086c.184-.078.18-.086-.047-.086a1.35 1.35 0 0 0-.449.086m-1 .199c-.164.07-.137.086.148.09.195.004.418-.035.5-.09.195-.125-.355-.125-.648 0m-29.988.199c.082.055.215.098.297.098.133 0 .133-.012 0-.098-.082-.055-.215-.098-.297-.098-.133 0-.133.012 0 .098m28.391 0c-.137.059-.004.086.449.09.359.004.719-.035.801-.09.191-.125-.961-.125-1.25 0m-27.793.199c.082.055.262.094.398.09.23-.004.234-.012.051-.09-.297-.125-.645-.125-.449 0m1.047.285c.574.277 1.262.414 1.973.402l.625-.016-.797-.082-.945-.148c-.086-.039-.312-.102-.504-.141l-.551-.141c-.109-.039-.02.02.199.125m25.699-.086c-.133.086-.133.098 0 .098a.65.65 0 0 0 .301-.098c.133-.086.133-.098 0-.098a.7.7 0 0 0-.301.098m-1.945.398c-.145.063-.051.09.348.094.305.004.617-.039.699-.094.191-.121-.758-.121-1.047 0m-.898.203-.301.074.301.004c.164.004.391-.031.5-.078l.199-.086-.199.004c-.109 0-.336.039-.5.082m-19.66.199c.297.125.547.125.348 0a.69.69 0 0 0-.348-.094l-.199.008.199.086m18.613 0-.352.07.352.008a1.64 1.64 0 0 0 .547-.078l.199-.086-.199.004c-.109.004-.355.039-.547.082m-17.957.203c.129.086 1.273.141 1.18.059-.02-.02-.328-.062-.684-.094-.398-.035-.586-.02-.496.035m1.34.18c.066.063 1.09.188 2.145.254.301.02.371.02.148 0a5.38 5.38 0 0 1-.746-.137c-.434-.113-1.637-.211-1.547-.117m15.117.016c-.195.129.055.129.352 0l.199-.086-.199-.008a.75.75 0 0 0-.352.094m-7.758.074h1.746c.48-.02.09-.035-.871-.035l-.875.035m-1.422.129c-.109.074-.07.082.148.035.367-.082.449-.141.191-.137a.69.69 0 0 0-.34.102m4.27.012c.234.094 4.434.098 4.578.008.063-.039-.98-.074-2.316-.074l-2.262.066m-7.328.207c.145.09 2.449.086 2.68-.004.094-.039-.496-.07-1.312-.07s-1.43.035-1.367.074M58.29 76.613c.191.02.391.082.441.133s.141.094.195.094.012-.066-.094-.148-.352-.141-.543-.133l-.352.012.352.043m-.699.324c-.117.164-.191.301-.164.301s.145-.137.262-.301.191-.297.164-.297-.145.133-.262.297m1.395 1.227c0 .691.035 1.277.078 1.305s.074-.508.074-1.184-.035-1.262-.074-1.305-.078.492-.078 1.184m-2.195-.164c-.234.473-.234.496-.004.211.121-.152.203-.328.184-.387s-.102.02-.18.176m-.547.832c-.156.164-.266.316-.242.336s.168-.117.324-.301c.355-.414.301-.434-.082-.035m-1.258 1.449-.898.949c.035 0 .488-.426 1.008-.949l.895-.945c-.023 0-.477.426-1.004.945m4.238.449c0 .523.016.734.035.473.023-.312.023-.629 0-.945-.02-.262-.035-.047-.035.473m-.195 1.34c-.031.074-.039.289-.02.473.031.293.039.273.082-.141.047-.484.031-.582-.062-.332m-.203 1.199a.96.96 0 0 0-.016.375c.027.168.051.133.086-.145.055-.387.023-.48-.07-.23m-8.992.359c-.23.215-.387.395-.344.395s.25-.18.465-.398c.504-.512.426-.512-.121.004m8.793.633c-.027.078-.035.313-.02.527.035.355.039.344.082-.141.051-.535.035-.633-.062-.387m-10.066.063c-.195.082-.195.086.016.094.121.004.246-.039.281-.094.074-.117-.023-.117-.297 0m-.75.199-.25.078.25.012c.137.004.316-.035.398-.09.191-.125-.016-.125-.398 0m-.648.199c-.191.082-.191.086.02.094.121.004.246-.039.277-.094.074-.117-.023-.117-.297 0m-1.148.398-.25.082.25.008c.137.004.316-.035.398-.09.191-.121-.012-.121-.398 0m12.414.34a1.19 1.19 0 0 0-.02.426c.031.23.047.207.086-.141.051-.437.027-.531-.066-.285m-13.859.258c-.195.086-.195.09.016.094.121.004.25-.035.281-.094.074-.117-.023-.117-.297 0m-.75.203-.25.078.25.008a.86.86 0 0 0 .398-.086c.191-.125-.016-.125-.398 0m-1.199.199c-.207.066-.172.082.199.086.25.008.52-.035.602-.086.188-.121-.422-.121-.801 0m-23.652.172c-.137.023-.293.086-.344.137-.125.121.559-.004.688-.125.102-.09.09-.09-.344-.012m1.199.027c.082.051.262.094.398.086l.25-.008-.25-.078c-.383-.125-.59-.125-.398 0m16.867 0c-.156.051.184.078.898.078.727-.004 1.035-.031.848-.078-.395-.102-1.434-.102-1.746 0m4.789 0-.25.078.25.008c.137.008.316-.035.398-.086.191-.125-.016-.125-.398 0m16.406.141c-.031.078-.039.27-.02.426.031.23.047.203.086-.145.051-.434.027-.527-.066-.281m-37.266.059c.082.055.711.094 1.398.09.777-.008 1.152-.039.996-.09-.371-.121-2.578-.121-2.395 0m5.488 0c-.137.043.836.078 2.199.078l2.145-.078c-.398-.102-4.023-.102-4.344 0m9.184 0c-.191.063-.125.082.301.09.301.004.613-.035.695-.09.188-.121-.621-.121-.996 0m4.59 0c-.184.059-.074.082.398.09.359.004.719-.035.801-.09.184-.121-.824-.121-1.199 0m-16.465.199c.082.055.598.098 1.145.098s1.066-.043 1.148-.098c.102-.066-.273-.098-1.148-.098s-1.246.031-1.145.098m7.484 0c.082.055.973.098 1.996.098l1.996-.098c.098-.062-.574-.098-1.996-.098l-1.996.098m8.184-.062c0 .098.281.137.406.055.105-.066.066-.09-.133-.09-.152 0-.273.016-.273.035m18.605.797c-.031.074-.039.465-.023.871l.031.738.051-.871c.047-.871.039-.996-.059-.738m-.199 1.992c-.031.074-.039.512-.023.973l.031.84.051-.973c.047-.965.039-1.094-.059-.84m-.203 2.203c-.027.074-.039.355-.02.621l.031.488.051-.625c.047-.629.035-.738-.062-.484m-.199 1.398c-.031.078-.039.289-.02.473.031.293.039.277.082-.141.051-.484.031-.578-.062-.332m-.199 1.199c-.031.074-.039.289-.02.473.031.293.039.273.082-.141.051-.484.031-.582-.062-.332m-.203 1.195c-.027.078-.035.27-.016.426.027.23.043.203.086-.141.047-.437.027-.531-.07-.285m-.172.926c-.09.09-.082.93.012.93.055 0 .121-.996.066-.996-.008 0-.039.027-.078.066"/><path fill="#cc3434" d="M67.891 7.355c.152.023.375.023.5 0s-.004-.043-.277-.043-.375.023-.223.043m-32.812.129c-.031.055-.258.102-.496.102s-.465.043-.5.098-.305.102-.598.102-.566.043-.602.098-.258.102-.496.102-.465.043-.5.098-.258.102-.5.102-.465.043-.5.102-.207.098-.387.098c-.66 0-.859.383-.859 1.672 0 .633-.043 1.137-.102 1.172s-.098.484-.098 1 .043.965.098.996.102.164.102.285c0 .387.566.66.75.363.031-.055.145-.098.25-.098s.352-.09.547-.199.422-.199.5-.199.305-.09.5-.203.418-.199.496-.199.305-.09.5-.199.422-.199.5-.199.301-.09.5-.199.438-.199.543-.199.219-.047.254-.102.16-.098.285-.098c.344 0 .461-.195.461-.762 0-.289.047-.551.102-.586s.102-.437.102-.898.043-.863.098-.898c.141-.086.125-1.184-.02-1.328s-.84-.16-.93-.02m37.102.949c.004.219.023.297.047.172s.023-.301-.004-.398-.043.008-.043.227m-.871.648-.5.066.449.016c.246.008.516-.027.598-.082s.105-.09.051-.082l-.598.082m-1.879 2.961c-.039.035-.066.113-.066.176 0 .07.027.066.074-.008.039-.062.188-.137.324-.16l.25-.047-.258-.016c-.145-.008-.289.02-.324.055m6.395 7.789c.121.023.324.023.449 0s.023-.043-.227-.043-.348.02-.223.043m5.039 3.191a.87.87 0 0 0 .348 0c.098-.027.02-.047-.172-.047s-.273.02-.176.047m1.949 3h1.199c.313-.02.031-.039-.629-.039s-.914.02-.57.039m1.117 4.887c-.117.152-.117.16.004.055.168-.152.563-.168.633-.023.027.055.039.043.023-.027-.039-.203-.508-.207-.66-.004m-1.344.328c-.035.055-.363.109-.73.117l-.668.02.594.035c.328.023.688-.008.801-.066s.426-.117.703-.137l.496-.035-.566-.016c-.312-.012-.598.027-.629.082m.094 3.316-.293.324.324-.293.324-.324c0-.074-.082-.008-.355.293M85.008 36c.121.023.301.023.398-.004s-.008-.043-.227-.043-.297.023-.172.047m.07 9.508.543.5c.027 0-.172-.223-.441-.5l-.543-.496c-.027 0 .172.223.441.496m-.695 8.285c.215.219.41.398.438.398s-.125-.18-.34-.398-.41-.398-.437-.398.125.18.34.398m-21.184 1.148c0 .219.02.297.047.172s.02-.305-.004-.398-.043.004-.043.227m.172 1.324.051.871.031-.789c.016-.434-.008-.824-.051-.871s-.059.313-.031.789m-.129.988c-.113.109-.078 3.707.031 3.773.055.035.109.34.117.68l.02.617.039-.543c.02-.301-.016-.637-.074-.75-.074-.137-.102-.836-.082-2.027l.023-1.82c-.008 0-.039.031-.074.07m-.055 5.398a1.18 1.18 0 0 1-.152.449c-.078.121-.16.559-.187.969-.027.422-.012.664.031.551s.086-.449.09-.75c.004-.332.07-.645.16-.777.086-.121.137-.324.113-.445l-.043-.223-.012.227m-.555 2.551c-.031.184-.152.418-.258.516s-.199.281-.199.41-.047.254-.102.289-.098.168-.098.297-.047.266-.102.301-.098.215-.098.398-.047.367-.102.398-.098.172-.098.301-.047.266-.102.301-.098.293-.102.578c0 .344-.066.629-.199.844-.109.18-.199.395-.199.473s-.09.305-.199.5c-.137.242-.199.539-.199.945 0 .324-.043.617-.098.652s-.102.168-.102.297-.043.266-.098.301-.102.168-.102.301-.047.266-.102.297-.098.172-.098.301-.047.266-.102.301-.098.234-.098.449-.094.555-.207.758-.187.477-.164.625l.043.262.012-.27c.008-.152.105-.434.215-.629s.199-.531.199-.746.047-.418.102-.449.098-.172.098-.301.047-.266.102-.301.102-.168.102-.297.043-.266.098-.301.102-.168.102-.301.043-.266.098-.297.102-.328.102-.652c0-.406.063-.703.199-.945.109-.195.199-.422.199-.5s.09-.293.199-.473c.133-.215.199-.5.199-.844 0-.285.047-.547.102-.578s.098-.168.098-.301.047-.266.102-.301.098-.211.098-.398.047-.363.102-.398.098-.168.098-.301.047-.266.102-.297.102-.164.102-.289a.64.64 0 0 1 .191-.406c.188-.168.375-.719.277-.812-.027-.027-.074.105-.113.293m25.238 3.484-.695.723.723-.695c.672-.645.77-.75.695-.75-.016 0-.34.324-.723.723m-.223 2.121c.004.219.023.297.047.172s.023-.301-.004-.398-.043.008-.043.227m-.723 1.598c-.242.246-.418.449-.391.449s.25-.203.492-.449.418-.449.391-.449-.25.203-.492.449m-5.211 1.918c.18.023.449.02.598 0s.004-.043-.328-.043-.449.02-.27.043M59.242 76.5c-.035.105-.055.219-.051.328.004.094.047.035.094-.125.094-.316.063-.473-.043-.203m20.223.746c0 .191.02.27.047.176a.89.89 0 0 0 0-.352c-.027-.098-.047-.016-.047.176m2.566 5.465-.344.371.375-.344c.348-.32.418-.402.344-.402-.02 0-.187.168-.375.375m-3.691 1.496-.547.574.551-.516c.301-.285.637-.535.746-.562.199-.047.199-.047 0-.059-.129-.008-.41.203-.75.563m-.852 1.047-.293.324.324-.293c.18-.16.324-.309.324-.324 0-.078-.082-.008-.355.293"/><path fill="#96a1a8" d="M56.688 2.141c0 .352-.047.668-.102.703s-.098.613-.098 1.398-.043 1.359-.102 1.398c-.203.125-.121 1.684.102 1.844.109.078.199.215.199.301s.09.219.199.297.199.207.199.281c0 .328.789.594 1.035.348.121-.121 1-.426 1.23-.426.121 0 .246-.047.277-.102.172-.277.852.094.852.465 0 .297.766.965 1.594 1.391.414.211.766.422.785.461s.109.078.203.078.305.137.461.301.34.301.402.301.195.086.297.199.23.199.289.203c.301.012 1.008.887.883 1.09-.148.238-.164.5-.023.5.055 0 .098.25.098.555 0 .566.285 1.043.621 1.043.074 0 .199.09.277.199s.223.199.316.199.199.047.234.102.297.102.582.102.582.055.656.121c.105.102.141.102.18 0 .051-.145.727-.168.727-.023 0 .055.07.102.156.102.359 0 .648.813.328.918-.086.027-.086.094 0 .254.098.184.086.254-.082.422-.113.109-.203.238-.203.285s-.09.168-.199.266-.199.23-.199.297-.137.242-.301.402c-.645.617-.312 2.066.48 2.125.23.016.418.074.418.125s.113.094.25.094c.164 0 .422.172.758.5.281.273.551.5.602.5s.309.223.578.496.559.5.648.5.156.047.156.102.117.098.258.098c.277 0 .742.402.742.645 0 .09.086.156.199.156s.199.043.199.098.09.102.199.102.199.043.199.098.09.102.199.102.203.043.203.098.066.102.152.102.25.09.367.199.273.199.348.199.129.047.129.102.09.098.199.098.199.047.199.102.227.098.5.098.5.047.5.102c0 .137-2.863 2.992-3 2.992-.16 0-.395.262-.395.441 0 .09-.043.16-.098.16-.145 0-.117.516.039.723.07.094.203.176.293.176s.164.043.164.098.148.102.332.102c.191 0 .418.082.543.199.121.109.285.199.371.199s.152.043.152.098.09.102.199.102.199.043.199.102.09.098.199.098.199.047.199.102.09.098.199.098.203.047.203.102.09.098.199.098.199.047.199.102.09.098.199.098.199.047.199.102.09.098.199.098c.16 0 .199.066.199.352 0 .191-.043.348-.098.348s-.102.09-.102.199-.043.199-.098.199-.102.09-.102.203-.047.199-.102.199-.098.09-.098.199-.047.199-.102.199-.098.078-.098.176-.09.242-.199.324c-.207.145-.281.598-.102.598.055 0 .102.25.102.559 0 .492.035.594.297.84.164.152.301.34.301.414s.09.203.199.281.199.207.199.285.137.262.301.414.297.352.297.441c0 .117.102.16.402.16.219 0 .398.043.398.098s.059.102.129.102.23.09.348.199.281.199.367.199.152.043.152.098.09.102.199.102.203.043.203.098.086.102.199.102.199.047.199.102.09.098.199.098.199.047.199.102.09.098.199.098.199.047.199.102.09.098.199.098.199.047.199.102.09.098.199.098.199.047.199.102.09.102.203.102.199.043.199.098.09.102.199.102.199.043.199.098.09.102.199.102.199.043.199.098.09.102.199.102.199.043.199.098.09.102.199.102c.52 0 .023.336-1.973 1.332-3.762 1.883-3.973 2.012-3.859 2.371.027.094.008.199-.051.238-.215.133-.086.422.395.898.285.281.5.582.5.703 0 .266.395.645.668.645.215 0 .395.168.578.535.09.18.207.219.75.242.426.02.715.09.848.199.309.262.625.422.84.422.109 0 .223.043.258.098s.168.102.301.102.266.047.301.105c.105.168-.258.492-.551.492-.148 0-.707.227-1.246.5-.574.289-1.117.5-1.301.5-.176 0-.668.176-1.098.398s-.855.398-.953.398-.211.043-.242.098-.141.102-.234.102c-.516 0-2.711 1.289-2.711 1.59 0 .32 1.094 1.203 1.488 1.203.109 0 .223.047.258.102s.164.098.289.098.258.031.297.07c.117.121.801.328 1.082.328.145.004.297.051.332.109.078.121-.426.691-.605.691-.172 0-.477.371-.398.492.035.059.262.105.5.105s.465.043.492.09c.055.086.305.145 1.184.277.203.027.398.094.43.145s.336.09.68.09c.859 0 1.371.508.633.629l-.746.16-.801.191c-.203.047-.695.25-1.094.449-.418.211-.867.367-1.066.367-.191 0-.375.043-.406.098s-.137.102-.23.102c-.234 0-1.844.797-1.988.988-.27.348-.074 1.039.418 1.504.148.137.254.348.254.504 0 .148.082.375.184.508.297.375.613 1.055.613 1.309 0 .277.258.676.441.676.074 0 .188.066.258.148s.406.285.746.449.68.367.75.449.18.148.246.148.203.09.305.203a.64.64 0 0 0 .406.199c.125 0 .258.043.289.098s.16.102.281.102.359.086.535.191.465.207.648.223c.656.066.109 1.48-.574 1.48-.5 0-.305 1 .242 1.246.145.066.215.188.215.375 0 .238.039.277.301.277.246 0 .301.039.301.227 0 .309-.18.469-.52.469-.156 0-.281.047-.281.102s-.18.102-.398.102-.398.043-.398.098-.18.102-.398.102-.402.043-.402.098-.078.102-.176.102-.242.09-.32.199c-.121.164-.258.199-.82.199-.387 0-.68.043-.68.098s-.09.102-.199.102-.199.047-.199.102-.078.098-.176.098-.242.09-.32.199-.227.199-.324.199-.176.047-.176.102-.09.098-.199.098-.199.047-.199.102-.09.098-.203.098-.199.047-.199.102-.078.102-.176.102-.242.09-.32.199c-.156.211-1 .297-1 .098 0-.055-.09-.098-.199-.098s-.199-.047-.199-.102-.137-.098-.301-.098-.297-.047-.297-.102-.07-.102-.152-.102-.148.047-.148.102-.07.102-.152.102c-.199 0-.848.645-.848.844s1.449 1.648 1.648 1.648c.266 0 .164.395-.195.754-.191.188-.406.344-.477.344s-.195.09-.277.199-.223.203-.32.203c-.148 0-.176.086-.176.547 0 .543 0 .551.297.551.164 0 .301.043.301.098s.078.102.176.102.242.09.324.199.223.199.32.199c.129 0 .176.078.176.301 0 .164.047.297.102.297s.098.09.098.199c0 .125.07.199.18.199.098 0 .242.09.32.199s.207.203.281.203a.54.54 0 0 1 .418.391c0 .059-.051.105-.109.105s.027.133.199.289.309.363.309.449c0 .121.102.16.398.16.289 0 .402.043.402.152 0 .082-.047.148-.102.148s-.098.09-.098.199-.047.199-.102.199-.102.09-.102.199-.043.199-.098.199-.102.09-.102.199-.043.199-.098.199-.102.09-.102.203-.043.199-.098.199-.102.113-.102.254c0 .18-.176.43-.598.844-.328.32-.598.641-.598.707 0 .172-.316.383-.574.387-.125 0-.227.047-.227.102s-.223.102-.5.102-.496.043-.496.098-.137.102-.301.102-.301.043-.301.098-.113.102-.254.102c-.172 0-.391.137-.645.398-.211.219-.434.398-.492.398-.133 0-.805.652-.805.781 0 .047.09.168.199.27s.203.23.203.293.266.379.598.703.598.637.598.691.148.254.324.441c.211.223.281.355.199.387-.07.023-.125.215-.125.438 0 .215-.043.391-.098.391s-.102.09-.102.199-.043.199-.098.199-.102.203-.102.449.047.449.102.449a.1.1 0 0 0 .098-.102c0-.055.09-.098.199-.098s.199-.047.199-.102.09-.098.199-.098.203-.035.203-.078c0-.078.484-.32.629-.312.047 0 .164-.09.262-.203s.254-.207.344-.207.16-.043.16-.094.09-.121.195-.152c.316-.102-.156-.852-.539-.852-.086 0-.152-.086-.152-.199s-.07-.199-.16-.199-.285-.137-.441-.301-.328-.297-.387-.297c-.137 0-1.41-1.238-1.41-1.371 0-.059.137-.129.301-.164s.301-.117.301-.187c0-.297.75-.973 1.078-.973.176 0 .316-.047.316-.102s.227-.098.5-.098.5-.047.5-.102.113-.098.254-.098c.254 0 .941-.586.941-.805 0-.062.18-.285.402-.496s.398-.434.398-.496c0-.141.52-.801.629-.801s.367-.258.371-.367c0-.043.223-.305.492-.578s.496-.559.5-.633.184-.305.402-.516c.605-.582.563-.746-.5-1.797-.492-.488-.898-.961-.898-1.043s-.043-.156-.098-.156-.102-.078-.102-.176-.09-.242-.199-.32-.199-.227-.199-.324-.043-.176-.102-.176-.098-.09-.098-.199-.035-.199-.074-.203c-.113 0-.324-.5-.324-.762 0-.121-.047-.25-.102-.285-.129-.078-.129-.918 0-.996.055-.035.102-.176.102-.312 0-.301.211-.535.484-.535.109 0 .23-.047.262-.102s.141-.098.234-.098.238-.09.316-.199.223-.203.32-.203.18-.043.18-.098.133-.102.297-.102.301-.043.301-.098.133-.102.301-.102.297-.043.297-.098.137-.102.301-.102.297-.043.297-.098.18-.102.402-.102.398-.043.398-.102.18-.098.398-.098.398-.047.398-.102.137-.098.301-.098.301-.047.301-.102.09-.098.199-.098.199-.047.199-.102.078-.098.176-.098.242-.09.32-.199.219-.203.309-.203.246-.09.348-.207c.219-.238.82-.516.953-.434.051.031.09-.234.09-.586 0-.574.031-.672.297-.953.168-.172.301-.379.301-.461s.047-.152.102-.152.098-.219.098-.492c0-.441.039-.527.398-.867.449-.426.492-.535.199-.535-.109 0-.199-.039-.199-.09s-.078-.113-.172-.145a2.22 2.22 0 0 1-.426-.199l-.547-.277a6.6 6.6 0 0 1-1.484-1.008c-.16-.152-.367-.277-.461-.277s-.352-.09-.578-.199-.488-.199-.578-.199c-.199 0-1.469-.422-1.539-.512-.027-.035-.254-.164-.5-.289-.465-.234-.898-.656-.898-.871 0-.07-.039-.125-.082-.125s-.148-.125-.227-.277l-.191-.324a1.49 1.49 0 0 1-.297-.645c0-.145-.328-.785-.527-1.027-.055-.07-.086-.137-.062-.152.375-.215.523-.27.711-.273.125 0 .496-.137.824-.301l.68-.293c.043 0 .359-.133.699-.293 1.168-.555 2.578-.937 3.938-1.074.285-.027.523-.09.523-.141s.18-.09.398-.09.398-.047.398-.102.137-.098.301-.098c.406 0 .395-.277-.027-.602-.602-.473-2.465-1.34-2.594-1.211-.141.141-.539.152-.621.016-.035-.055-.152-.102-.262-.102s-.316-.074-.469-.168c-.379-.238-.375-.234-.254-.312s.563-.824.512-.863c-.184-.152-.547-.254-.918-.254-.266 0-.598-.078-.809-.199-.195-.109-.418-.199-.496-.199s-.305-.09-.5-.199-.414-.199-.488-.199c-.187 0-.758-.301-.758-.398s.57-.398.758-.398c.074 0 .293-.09.488-.199s.422-.203.504-.203c.188 0 .906-.355 1.23-.609a.89.89 0 0 1 .449-.187c.258 0 1.254-.355 1.398-.496a.41.41 0 0 1 .254-.102c.117 0 3.277-1.508 3.492-1.668.098-.074-.574-.66-.961-.836-.23-.105-.445-.238-.48-.293s-.254-.187-.488-.293-.484-.266-.555-.348-.18-.156-.246-.156-.25-.133-.406-.301-.34-.297-.402-.297-.195-.09-.297-.199-.23-.199-.297-.199-.242-.137-.402-.301-.336-.301-.402-.301-.195-.09-.297-.199-.227-.199-.281-.199c-.121 0-.664-.5-.664-.609 0-.078 1.789-.988 1.949-.988.059 0 1-.449 2.094-.996l2.09-1c.469 0 1.844-.867 1.848-1.164.004-.305-.672-.93-1.004-.93-.055 0-.273-.18-.492-.402s-.449-.398-.52-.398-.199-.09-.277-.199-.223-.199-.32-.199-.18-.043-.18-.098-.078-.102-.176-.102-.242-.09-.32-.199c-.086-.117-.262-.199-.422-.199-.152 0-.277-.047-.277-.102s-.09-.098-.199-.098-.199-.047-.199-.102-.09-.098-.203-.098-.199-.047-.199-.102-.09-.098-.199-.098-.199-.047-.199-.102-.09-.102-.199-.102-.199-.043-.199-.098-.09-.102-.199-.102-.199-.043-.199-.098-.125-.102-.277-.102c-.164 0-.336-.082-.422-.199-.078-.109-.223-.199-.32-.199s-.18-.043-.18-.102-.09-.098-.199-.098-.199-.047-.199-.102-.09-.098-.199-.098-.199-.047-.199-.102-.09-.098-.199-.098-.199-.047-.199-.102-.09-.098-.203-.098-.199-.047-.199-.102-.09-.098-.199-.098-.199-.047-.199-.102-.09-.102-.199-.102-.199-.039-.199-.086-.102-.113-.223-.148c-.176-.043-.199-.082-.102-.18.07-.066.125-.25.125-.402s.043-.281.098-.281.102-.133.102-.297.043-.301.102-.301.098-.066.098-.148-.043-.152-.098-.152-.102-.156-.102-.348.035-.348.074-.352c.09 0 .324-.48.324-.668 0-.07.047-.129.102-.129s.098-.09.098-.199.047-.199.102-.199.098-.09.098-.199.047-.199.102-.199.098-.066.098-.148-.043-.152-.098-.152-.102-.07-.102-.156a.51.51 0 0 0-.441-.441c-.086 0-.156-.047-.156-.102s-.18-.098-.398-.098-.398-.047-.398-.102-.18-.098-.398-.098-.402-.047-.402-.102-.109-.098-.25-.098-.246.043-.246.098-.113.102-.25.102-.25-.047-.25-.102-.125-.098-.277-.098c-.578 0-.57-.324.023-.941.293-.305.586-.559.648-.559s.469-.359.902-.797.84-.797.902-.797c.18 0 .395-.27.395-.492 0-.133-.062-.207-.176-.207-.098 0-.242-.09-.324-.199s-.203-.199-.281-.199-.262-.137-.414-.301-.352-.301-.441-.301-.16-.043-.16-.098-.09-.102-.199-.102-.199-.043-.199-.098-.078-.102-.176-.102-.242-.09-.324-.199-.211-.199-.297-.199-.223-.09-.301-.199-.215-.199-.301-.199-.219-.09-.297-.199-.227-.203-.324-.203-.176-.043-.176-.098-.078-.102-.18-.102-.242-.09-.32-.199-.215-.199-.297-.199-.223-.09-.301-.199-.215-.199-.301-.199-.219-.09-.297-.199-.215-.199-.301-.199-.219-.09-.301-.199-.223-.199-.32-.199c-.105 0-.176-.074-.176-.184 0-.207-.383-.418-.754-.418-.137 0-.246-.043-.246-.098s-.18-.102-.398-.102-.398-.043-.398-.098-.07-.102-.156-.102c-.398 0-.727-.551-.469-.789.242-.223.426-.566.426-.801 0-.105.043-.223.098-.258s.102-.168.102-.297.043-.266.098-.301.102-.129.102-.211c0-.207.371-.547.918-.832 1.094-.574.707-1.301-.695-1.301-.281 0-.539-.047-.574-.102s-.258-.098-.496-.098-.465-.047-.5-.102-.258-.098-.5-.098-.465-.047-.5-.102-.16-.102-.277-.102-.332-.09-.469-.199-.305-.195-.375-.195c-.398-.008-.008-1.07.512-1.391.277-.176.66-.715.66-.941 0-.102-.984-1.062-1.094-1.062-.059 0-.574-.461-1.145-1.023-3.617-3.57-3.414-3.41-4.371-3.387-.402.012-.676-.023-.676-.082 0-.262-.418-.035-1.098.598-1.426 1.328-2.441 1.051-2.039-.559.262-1.043-.098-4.531-.465-4.531-.051 0-.09.289-.09.645m-8.285 6.145c0 .055-.223.098-.5.098s-.496.047-.496.102-.137.098-.301.098-.301.047-.301.102-.09.098-.199.098-.199.047-.199.102-.133.098-.297.098-.301.047-.301.102-.09.102-.199.102-.199.043-.199.098-.09.102-.199.102-.199.043-.199.098-.09.102-.203.102-.199.043-.199.098-.09.102-.199.102-.199.043-.199.098-.09.102-.199.102-.199.043-.199.098-.078.102-.18.102-.242.09-.32.199-.215.199-.297.199-.223.09-.301.199-.215.199-.301.199-.219.09-.297.203-.203.199-.273.199c-.152 0-4.219 4.043-4.219 4.195 0 .059-.316.414-.699.793s-.699.742-.699.805-.133.238-.297.395-.301.32-.301.371c0 .137-.297.711-.402.777-.047.027-.27.434-.496.895l-.496.898c-.047.031-.316.52-.598 1.09s-.574 1.094-.656 1.16-.145.176-.145.242-.117.227-.254.355-.434.609-.656 1.063-.441.852-.492.883-.227.344-.395.695-.352.668-.402.703-.18.238-.281.461-.293.453-.426.52c-.434.215-.184 1.141.316 1.156.086.004.309.184.5.402s.402.398.48.398.488.363.914.801.828.801.887.801c.152 0 1.602 1.465 1.602 1.621 0 .07.09.184.203.25s.199.207.199.301.09.242.199.324.199.203.199.281.133.262.297.414.301.336.301.398.18.289.398.5.402.434.402.496.313.422.695.801.699.742.699.805.137.242.301.395.297.34.297.418.094.203.203.281.199.215.199.297.09.223.199.301.199.215.199.301.09.219.199.297.199.227.199.324.047.176.102.176.098.082.098.18.09.242.199.32.199.215.199.301.09.219.199.297.203.227.203.324.043.176.098.176.102.133.102.301.043.297.098.297.102.137.102.301.043.301.098.301.102.09.102.199.043.199.098.199.102.133.102.297.043.301.102.301.098.137.098.301.047.297.102.297.098.137.098.301.047.301.102.301.098.09.098.199.047.199.102.199.098.133.098.301.047.297.102.297.098.09.098.199.047.199.102.199.102.137.102.301.043.301.098.301.102.09.102.199.043.199.098.199.102.09.102.199.043.199.098.199.102.137.102.301.043.297.098.297.102.18.102.402.043.398.102.398.098.18.098.398.047.398.102.398.098.137.098.301.047.297.102.297.098.18.098.402.047.398.102.398.098.203.098.457c0 .262.063.516.145.598.16.16.855.195.855.043 0-.055.133-.102.301-.102s.297-.043.297-.098.18-.102.398-.102.402-.043.402-.098.133-.102.297-.102.301-.043.301-.098.133-.102.297-.102.301-.047.301-.102.18-.098.398-.098.402-.047.402-.102.133-.098.297-.098.301-.047.301-.102.09-.098.199-.098.199-.047.199-.102.09-.098.199-.098.199-.047.199-.102.09-.102.199-.102.199-.043.199-.098.137-.102.301-.102.301-.043.301-.098.168-.102.375-.102c.262 0 .422-.059.523-.199.078-.109.211-.199.297-.199s.223-.09.301-.199.207-.199.281-.199.262-.137.418-.301.34-.297.418-.297.199-.09.281-.199.203-.203.281-.203.262-.133.414-.297.336-.301.402-.301.242-.133.398-.301.34-.297.418-.297.199-.09.281-.199.203-.199.281-.199.262-.137.418-.301.328-.301.395-.301.336-.223.602-.496.535-.5.594-.5c.168 0 1.402-1.273 1.402-1.445 0-.082.043-.152.102-.152s.098-.078.098-.176.09-.242.199-.324.199-.211.199-.297.09-.223.199-.301.203-.215.203-.301.086-.219.199-.297.199-.207.199-.281.18-.309.398-.52.398-.453.398-.539.047-.16.102-.16.098-.078.098-.176.09-.242.199-.32.199-.215.199-.301.09-.219.199-.301.203-.211.203-.297.09-.223.199-.301.199-.223.199-.32.043-.18.098-.18.102-.09.102-.199.043-.199.098-.199.102-.09.102-.199.043-.199.102-.199.098-.07.098-.16.137-.285.301-.437c.313-.293.469-2.078.199-2.246-.055-.035-.102-.305-.102-.605s.047-.543.102-.543.098-.133.098-.301.047-.297.102-.297.098-.133.098-.293.047-.324.102-.355.102-.262.102-.508-.047-.441-.102-.441-.102-.09-.102-.199-.043-.199-.098-.199-.102-.09-.102-.199-.043-.199-.098-.199-.102-.137-.102-.301-.043-.301-.098-.301-.102-.09-.102-.199-.043-.199-.098-.199-.102-.09-.102-.199-.043-.199-.098-.199-.102-.09-.102-.199-.047-.199-.102-.199-.098-.09-.098-.199-.047-.199-.102-.199-.098-.09-.098-.203-.047-.199-.102-.199-.098-.09-.098-.199-.047-.199-.102-.199-.098-.09-.098-.199-.047-.199-.102-.199-.102-.078-.102-.18-.09-.242-.199-.32-.199-.223-.199-.32-.043-.18-.098-.18-.102-.09-.102-.199-.043-.199-.098-.199-.102-.078-.102-.176-.09-.242-.199-.32-.199-.227-.199-.324-.047-.176-.102-.176-.098-.332-.098-.801-.043-.797-.102-.797-.098-.078-.098-.176-.09-.242-.199-.324-.199-.211-.199-.297-.094-.223-.203-.301-.199-.207-.199-.281-.133-.266-.297-.418-.301-.332-.301-.398-.133-.246-.301-.398-.297-.344-.297-.418-.09-.203-.199-.281-.199-.203-.199-.277-.137-.277-.301-.453-.301-.367-.301-.426-.09-.191-.199-.293c-.117-.105-.199-.305-.199-.496 0-.219-.09-.398-.301-.602-.164-.156-.297-.336-.297-.395s-.227-.332-.5-.602-.5-.539-.5-.602-.18-.281-.398-.496-.398-.441-.398-.5-.137-.242-.301-.398-.297-.383-.297-.496c0-.121-.215-.422-.5-.703-.273-.27-.5-.535-.5-.59 0-.195-1.437-1.555-1.648-1.555-.121 0-.488-.285-.895-.699-.559-.559-.754-.699-1-.699s-.457-.152-1.148-.848c-.777-.781-1.098-1-1.098-.746"/></svg>